<svg width="150" height="100" viewBox="0 0 150 100" fill="none" xmlns="http://www.w3.org/2000/svg">
<path d="M30.3749 54.5014C29.7869 53.8973 28.3155 53.5623 27.555 53.976C26.813 54.3824 26.0226 54.7219 25.4298 55.3916C24.7851 56.1469 24.0399 56.8132 23.3283 57.5091C22.9687 57.8478 22.5496 58.1458 22.1269 58.4883C22.0034 58.0206 21.8838 57.616 21.8087 57.2151C21.3848 55.1436 20.9053 53.0944 20.2699 51.0865C19.9971 50.2477 19.7242 49.4089 19.4329 48.5776C19.194 47.9838 18.8401 47.4795 18.1899 47.3099C17.9 47.2325 17.6102 47.1551 17.3389 47.0703C17.0045 46.9892 16.7447 47.0937 16.5596 47.3838C16.4485 47.5363 16.3523 47.7259 16.2487 47.8969C16.1081 48.1906 16.0049 48.5771 15.7676 48.7373C15.5006 48.9309 15.3933 49.1466 15.2675 49.3696C14.8678 50.0909 14.6949 50.8935 14.4885 51.6664C12.8267 58.1988 11.7037 64.8379 10.811 71.5136C10.7818 71.7625 10.8157 72.0075 10.8421 72.234C10.8837 72.6053 11.0256 72.9579 10.6696 73.252C10.64 73.2855 10.6217 73.4006 10.6255 73.4638C10.4901 74.4668 10.3993 75.4734 10.2268 76.4914C10.1535 76.9521 10.5105 77.1965 10.5781 77.5789C10.6118 77.7162 10.7012 77.8312 10.772 77.9536C10.7869 77.9907 10.8315 77.9943 10.8761 77.9979C11.1399 78.0643 11.1885 78.2387 11.1964 78.4727C11.1928 78.5172 11.2523 78.558 11.2933 78.6062L11.475 78.4684C11.5648 78.7988 11.5648 78.7988 11.8213 78.9542C11.8881 78.9058 11.9845 78.8239 12.0476 78.8201C12.3931 78.8751 12.6045 78.7038 12.7339 78.4361C12.8634 78.1685 13.0188 77.9119 12.929 77.5815C12.8729 77.3885 12.8761 77.1286 12.9277 76.9353C13.2781 75.7165 13.5839 74.494 13.9863 73.2973C15.4671 69.1013 17.6766 65.3235 20.5815 61.9342L21.2929 61.1306C21.3716 61.4869 21.4241 61.7245 21.4506 61.951L21.6236 63.024C21.7885 63.7553 21.9644 64.4606 22.0922 65.2068C22.22 65.9531 22.2736 66.7292 22.4274 67.4865C22.9152 69.985 23.4662 72.4796 23.9616 74.9966C24.8022 79.3365 25.6169 83.6653 26.439 88.0126C26.762 89.7798 27.0108 91.5768 27.2781 93.3664C27.3197 93.7377 27.3206 94.1685 27.2284 94.5289C27.151 94.8188 26.9064 95.0681 26.7213 95.3582L27.0572 96.1931C27.3869 95.7802 27.6685 95.4083 27.9834 95.0659C28.1613 94.865 28.3131 94.653 28.3609 94.3967L28.4959 93.1782L28.5468 92.6619C28.7855 93.1479 28.7234 93.6903 28.7877 94.225C28.799 94.3066 28.8474 94.3734 28.8847 94.4662C28.9918 94.1428 29.0246 93.8494 28.9943 93.5598C28.9183 92.728 28.9426 91.8775 28.5399 91.0909C28.4282 90.9203 28.487 90.6379 28.4791 90.404C28.4827 90.3594 28.516 90.2813 28.5085 90.2628C28.263 90.0813 28.3479 89.81 28.3215 89.5835C28.0576 87.6417 27.8568 85.696 27.2996 83.829C27.2549 83.7177 27.2546 83.61 27.2284 83.4912C27.0884 82.2325 26.8928 80.9961 26.5524 79.7749C26.4476 79.4075 26.354 79.014 26.2864 78.6316C26.1699 77.967 26.1091 77.2801 25.9741 76.623C25.5274 74.2804 25.0621 71.9453 24.5709 69.5991C24.0009 66.8965 23.4124 64.2014 22.8238 61.5063L22.49 59.8728L22.8568 59.445C23.5424 58.738 24.2466 58.0235 24.9583 57.3275C25.329 56.9628 25.6847 56.561 26.1187 56.3001C26.8828 55.8418 27.5388 55.1682 28.4785 55.1998C28.5154 55.0771 28.5301 55.0065 28.5523 54.9545C28.6303 54.9878 28.6935 54.9839 28.7455 55.0061C28.805 55.0468 28.8831 55.0801 28.924 55.1283C29.4858 55.6137 29.6507 56.345 29.3846 56.9695C29.2551 57.2371 29.1517 57.5159 29.3381 57.8721L29.5997 56.8613C29.6782 57.11 29.738 57.2584 29.7791 57.4144L30.202 57.1795C30.5518 57.5131 29.9766 57.7445 30.1481 58.0635C30.3339 58.0966 30.5083 58.048 30.6045 57.8584C30.66 57.7283 30.6969 57.6056 30.7598 57.4941C31.2409 56.6538 31.0374 55.1835 30.3749 54.5014ZM18.3243 49.5194L18.7848 51.3606C19.2081 53.109 19.6238 54.8389 20.0581 56.5612C20.178 57.0735 20.2533 57.5822 20.5291 58.0533C20.7042 58.3278 20.6641 58.7104 20.7279 59.0296L18.9753 61.0498C18.6788 61.3847 18.401 61.7121 18.1491 62.0505C18.038 62.203 17.9604 62.3852 17.8678 62.5302C18.1681 62.2585 18.4684 61.9868 18.7352 61.6854C19.4059 60.9413 20.0506 60.186 20.7138 59.4233C20.8663 59.5344 20.8815 59.6793 20.7629 59.8132C19.9661 60.6727 19.1879 61.5248 18.3837 62.3658C18.2651 62.4997 18.0721 62.5558 17.9201 62.6601C17.6644 62.9354 17.4198 63.1848 17.1901 63.4712C16.9937 63.6796 16.8493 63.9101 16.6863 64.1482C16.4494 64.5237 16.2385 64.9104 15.983 65.2935C15.7868 65.6095 15.5646 65.9145 15.4614 66.301C15.4134 66.4496 15.3023 66.6021 15.1948 66.7101C14.5388 67.3836 14.1059 68.183 13.8701 69.0971C13.8223 69.3534 13.7039 69.5951 13.6116 69.8478C13.3717 70.5911 13.1318 71.3343 12.8994 72.0962L12.7774 72.3824C12.5912 72.1339 12.5573 71.8889 12.5715 71.6029C12.644 70.7114 12.709 69.8013 12.7629 68.9173C12.6738 68.9101 12.6181 68.9325 12.555 68.9363C12.36 68.0231 12.5773 67.1164 12.6869 66.21C12.7487 65.56 12.9739 64.8873 12.8909 64.2524C12.7817 63.4987 13.308 62.9851 13.3364 62.3054C13.5823 62.7023 13.2302 63.0595 13.2607 63.4569C13.2801 63.8802 13.1548 64.3187 13.1556 64.7495C13.1712 65.1097 12.9307 65.5299 13.3474 65.9227C13.4065 65.7481 13.4694 65.6365 13.5063 65.5139C13.8112 63.8606 14.0195 62.1815 13.9864 60.4917C13.9514 59.7081 14.117 58.9947 14.3273 58.2849C14.9504 56.0293 15.592 53.7663 16.2337 51.5032C16.4218 50.8454 16.6098 50.1877 16.8685 49.5447C17.0385 49.1098 17.3311 48.7118 17.5938 48.2396C17.9845 48.6214 18.1823 49.0592 18.3243 49.5194ZM15.7021 49.4319C15.9069 49.6729 15.7958 49.8254 15.7478 49.974C15.7367 50.0001 15.7181 50.0075 15.7181 50.0075C15.6921 49.9964 15.6846 49.9779 15.6326 49.9557C15.6435 49.822 15.6654 49.6622 15.7021 49.4319ZM29.6328 56.6756C29.6473 56.4973 29.6878 56.3301 29.7023 56.1518C29.8215 56.3409 29.807 56.5192 29.6328 56.6756ZM26.5567 81.929C26.6726 82.2704 26.8106 82.5598 26.6182 82.939C26.5109 83.1547 26.6007 83.485 26.5493 83.786L26.0278 81.1501C26.2063 81.2723 26.3253 81.3538 26.4629 81.4278C26.5079 81.6468 26.5045 81.7991 26.5567 81.929ZM28.5504 92.6173C28.5169 92.5877 28.4835 92.558 28.4796 92.4949C28.457 92.3315 28.4419 92.1867 28.434 91.9528C28.6573 92.1863 28.5946 92.4055 28.5504 92.6173ZM29.9997 45.1884L30.4558 44.8755C30.1282 44.4899 29.6978 44.7062 29.3485 44.5881C29.1263 44.893 29.0898 45.2311 29.0459 45.5506C28.9363 46.457 28.8378 47.3374 28.7468 48.2363C28.3392 52.367 27.9316 56.4977 27.5425 60.621C27.5024 61.0036 27.4624 61.3862 27.4594 61.7539C27.4417 62.1922 27.5354 62.5856 27.8666 62.9266C27.7256 63.0049 27.6032 63.0757 27.5143 63.1762C27.3771 63.3176 27.2029 63.4739 27.1438 63.6486C26.9519 64.2432 27.1249 65.3162 27.8908 65.7195C28.5117 66.0302 29.1694 66.2183 29.8491 66.2466C30.0905 66.2572 30.3392 66.1788 30.5953 66.1188C30.7141 66.0926 30.8365 66.0218 30.9443 66.0215C31.3194 66.0431 31.6013 65.8865 31.8684 65.6929C32.1354 65.4992 32.3949 65.287 32.621 65.0451C33.918 63.6609 34.442 61.9626 34.5385 60.1129C34.5811 59.1472 34.4864 58.2152 33.9536 57.3732C33.6219 56.8168 33.1941 56.45 32.533 56.4142C32.4067 56.4218 32.2841 56.3849 32.1689 56.3666C31.7118 56.2487 31.2923 56.3312 30.8805 56.5401C30.2424 56.883 29.7978 57.3853 29.383 57.9618C29.2829 58.0883 29.2239 58.2629 28.9827 58.36L28.8988 57.2943C28.8909 57.0603 28.857 56.8153 28.8937 56.5849C29.0146 55.7602 29.1354 54.9355 29.2749 54.1033C29.3043 53.9621 29.3523 53.8134 29.4003 53.6648L29.4077 53.6833C29.3964 53.6016 29.3777 53.5014 29.3849 53.4122C29.6047 51.9225 29.832 50.4514 30.0258 48.9505C30.1612 47.9475 30.278 46.9519 30.3874 45.9378L30.4057 45.8227C30.5506 45.8075 30.6694 45.7813 30.7956 45.7736C30.8092 45.1645 30.2933 45.3289 29.9997 45.1884ZM29.3979 46.9611C29.2117 46.7127 29.3524 46.5267 29.3669 46.3484C29.5047 46.5301 29.4085 46.7197 29.3979 46.9611ZM31.4197 56.8621C31.4271 56.8806 31.4532 56.8917 31.4681 56.9288C31.3568 56.9736 31.2529 57.037 31.1601 57.0743L31.4197 56.8621ZM30.4999 57.4693C30.6555 57.3204 30.8782 57.2308 31.0563 57.1376C30.8451 57.4166 30.634 57.6956 30.4005 57.9189C29.837 58.4474 29.5152 59.0943 29.1489 59.7375C29.1081 59.797 29.1194 59.8787 29.0789 60.0459C28.9448 59.8196 28.9222 59.6563 29.0072 59.4927C29.4329 58.7825 29.8102 58.0055 30.4999 57.4693ZM32.5381 57.1235C32.4118 57.1312 32.2931 57.1574 32.1482 57.1726C32.3299 57.0348 32.3299 57.0348 32.5381 57.1235ZM28.412 58.9777C28.6093 59.2001 28.4907 59.334 28.4242 59.4902L28.3275 59.4643L28.412 58.9777ZM30.2792 58.5282C30.4163 58.3868 30.5534 58.2454 30.7313 58.0445C30.7023 58.4011 30.7023 58.4011 30.2792 58.5282ZM32.4274 57.4914C32.858 57.3828 33.2671 57.6494 33.3571 58.0875C33.4508 58.4809 33.5184 58.8633 33.5935 59.2643C33.6197 59.3831 33.6088 59.5168 33.6204 59.7062L33.3183 59.1163C33.3002 59.3392 33.1819 59.5808 33.3977 59.7958C33.3271 59.7811 33.3086 59.7885 33.264 59.7849C33.2454 59.7924 33.2158 59.8259 33.2232 59.8444C33.2542 60.4571 33.0028 61.011 32.8145 61.5611C32.5929 62.1892 32.3379 62.7876 32.1163 63.4157C31.9574 63.8246 31.7316 64.1741 31.3942 64.4608C31.3089 64.5167 31.205 64.58 31.1532 64.6655C30.9201 65.1043 30.5375 65.0642 30.1623 65.0427C30.0546 65.0429 29.958 65.0171 29.8578 65.0358C29.3231 65.1001 28.8733 64.893 28.4901 64.5298C28.4928 64.0544 28.9867 64.0497 29.1942 63.8153C29.2789 63.4363 29.1187 63.1989 28.8176 63.0399C28.4983 63.1036 28.6662 63.4673 28.4213 63.6089L28.3318 63.3862L27.6267 63.6699C27.7156 63.5695 27.76 63.4654 27.8527 63.4281C28.0012 63.3683 28.0195 63.2532 28.0379 63.138C28.0926 62.6848 28.2961 62.2796 28.4251 61.7965C28.6373 62.056 28.6676 62.3457 28.6904 62.6167C28.7165 62.6278 28.761 62.6314 28.7982 62.6165C28.8611 62.505 28.9314 62.412 28.9869 62.2819C29.1679 61.821 29.3415 61.3415 29.5151 60.8621C29.9252 59.7917 30.5733 58.8842 31.3479 58.0767C31.6518 57.7604 32.0229 57.6111 32.4274 57.4914ZM28.3007 60.898C28.4091 61.2209 28.2758 61.4254 28.1278 61.7005C28.09 61.3924 28.1192 61.1435 28.3007 60.898ZM27.9255 64.5198C27.9106 64.4827 27.8846 64.4716 27.8585 64.4605L28.2034 64.1924C28.2294 64.2035 28.2369 64.2221 28.2443 64.2406C28.148 64.3225 28.033 64.4119 27.9255 64.5198ZM28.4276 64.8568C28.119 64.6791 28.119 64.6791 28.2966 64.3705L28.4276 64.8568ZM37.8685 50.0851C37.8708 49.3943 37.8435 48.737 37.8347 48.0723C37.8563 47.6971 37.9298 47.3441 37.9142 46.9839C37.9266 45.7286 37.9239 44.4361 37.9102 43.1697C37.9017 42.6127 37.856 42.0705 37.8364 41.5395C37.8359 41.3241 37.7948 41.1682 37.5533 41.1575C37.1119 41.3998 37.358 41.9044 37.1064 42.3506C37.091 42.0981 37.0833 41.9718 37.1017 41.8566C37.1456 41.5372 37.197 41.2362 37.2558 40.9538C37.3111 40.716 37.2142 40.5825 36.9837 40.4382C36.9771 40.8504 36.9666 41.1996 36.9786 41.6043L36.6996 41.3932C36.6693 41.1036 36.6725 40.8436 36.6608 40.5465C36.5571 40.7176 36.4906 40.8737 36.5021 41.0631C36.4971 42.2293 36.4549 43.4104 36.4758 44.5876C36.4849 47.2356 36.5422 49.8427 36.5512 52.4907C36.5846 54.2882 36.5362 56.0969 36.525 57.8908C36.5274 59.0755 36.5373 60.2788 36.5618 61.4115C36.9157 61.9159 37.3239 61.7516 37.7287 61.7397C37.7579 61.4908 37.7796 61.2233 37.8014 60.9559C37.8905 60.9631 37.9425 60.9853 37.9871 60.9889L38.0974 60.4056C38.3287 59.1053 38.508 57.7828 38.7394 56.4824C38.9193 55.483 39.1402 54.5318 39.5394 53.5951C39.6689 53.3274 39.7834 53.0227 40.0914 52.8772C40.3443 53.0772 40.4638 53.3741 40.5275 53.6934C40.6589 54.3951 40.8499 55.1374 40.9331 55.8801C41.0502 56.8677 41.1191 57.8963 41.2252 58.91L41.354 60.1948C41.4223 60.9003 41.472 61.6133 41.4957 62.3151C41.5256 62.3894 41.574 62.4561 41.6598 62.6156C41.6811 62.1328 41.7137 61.7316 41.7424 61.2673C41.8284 61.5345 41.8881 61.683 41.9852 61.9242C41.966 61.6085 41.9916 61.4042 41.954 61.2038C41.8358 59.6776 41.699 58.1589 41.5808 56.6327C41.4856 55.4853 41.3905 54.3379 41.1505 53.2056C41.1055 52.9866 40.9677 52.8049 41.1121 52.5743C41.2799 52.9379 41.4738 53.3127 41.6046 53.6912C41.9181 54.4705 41.9644 55.3357 42.0218 56.175C42.0521 56.4646 41.9636 56.7805 42.0942 57.0513C42.277 57.452 42.1887 57.8756 42.2378 58.2655C42.2986 58.9524 42.3148 59.6358 42.3496 60.3116C42.3767 60.8612 42.493 61.4181 42.3678 61.9643C42.294 62.2095 42.3019 62.4435 42.2913 62.6849C42.2951 62.7481 42.3435 62.8148 42.3734 62.889C42.3919 62.8816 42.4365 62.8852 42.4476 62.8592C42.4881 62.692 42.5101 62.5322 42.5096 62.3168C42.6882 62.439 42.8183 62.4944 42.9597 62.6316C42.9665 62.327 42.966 62.1116 42.9581 61.8777C42.8935 61.1276 42.8474 60.37 42.7642 59.6274C42.5826 57.9974 42.375 56.3562 42.1935 54.7262C42.1068 54.1359 42.0091 53.5715 41.8669 53.0036C41.7431 52.4282 41.3931 51.987 40.9171 51.6611C40.6605 51.5056 40.5157 51.5208 40.2709 51.6624L39.2508 52.2884C39.3506 52.0542 39.421 51.9612 39.4579 51.8386C38.6938 52.2969 38.5136 53.1887 37.9841 53.9622C37.9651 53.7543 37.9538 53.6726 37.935 53.5724C37.9215 52.4136 37.882 51.2438 37.8685 50.0851ZM40.8662 52.1774C41.1225 52.2252 41.1784 52.3105 41.0971 52.5372C40.967 52.4818 40.8035 52.3967 40.8662 52.1774ZM45.344 49.7721C45.4698 49.5491 45.6068 49.2999 45.6396 49.0065C45.6391 48.7911 45.4792 48.6614 45.3749 48.5094C45.1335 48.4987 45.0334 48.6252 45.0042 48.8741C44.8106 48.6071 44.6135 48.4923 44.3203 48.5672C44.1204 48.9278 44.1695 49.3177 44.2928 49.6777C44.3041 49.7594 44.4231 49.8409 44.5048 49.8295C44.5568 49.8517 44.6272 49.7587 44.72 49.7214C44.9989 49.9325 45.2182 49.9952 45.344 49.7721ZM46.9742 58.8605C47.0039 58.827 47.0261 58.775 47.0668 58.7155C47.2037 58.4664 47.3852 58.2209 47.5332 57.9458C47.5886 57.8157 47.6031 57.6374 47.6733 57.4367C47.421 57.5597 47.1798 57.6568 46.9533 57.6832C46.8972 57.4902 47.1717 57.3151 46.9895 57.2375L46.627 57.9439C46.627 57.9439 46.6826 57.9215 46.7532 57.9362C46.724 58.1851 46.5944 58.345 46.3421 58.4681C46.2826 58.4274 46.2231 58.3866 46.2007 58.331C45.8916 57.9379 45.6568 57.515 45.5333 57.0473C45.4285 56.6799 45.2867 56.3273 45.3008 55.9336C45.2969 55.8705 45.241 55.7852 45.2112 55.711C45.1291 55.5069 45.0024 55.2991 45.0094 55.1023C45.0045 54.5006 45.0776 53.9323 45.1209 53.2897L45.2772 53.4639C45.3361 53.1815 45.3503 52.8955 45.3981 52.6392C45.4201 52.4794 45.4569 52.3568 45.5124 52.2267C45.6529 51.933 45.6342 51.8328 45.3885 51.5436C45.2547 51.5327 45.1844 51.6257 45.1735 51.7594C45.1961 51.9228 44.9694 51.8416 44.94 51.9827C44.9142 52.0794 44.8698 52.1834 44.8254 52.2875L44.5691 52.2398C44.7282 51.9386 44.8615 51.7341 44.9798 51.4924C44.8572 51.4555 44.549 51.4933 44.4449 51.4489C44.2933 51.7686 44.2197 52.1216 44.2018 52.4522C44.169 52.7457 44.1733 53.0242 44.1404 53.3177C43.9761 54.6773 43.8748 56.0331 44.2786 57.3581C44.4655 57.9297 44.6338 58.5087 45.0543 58.9647C45.6127 59.6023 46.4445 59.5264 46.9742 58.8605ZM48.4844 58.0373C48.7663 57.8808 49.0408 57.7057 49.3637 57.5973C50.169 57.2948 50.9295 56.8811 51.6118 56.3263C52.3904 55.6897 52.671 54.8869 52.6505 53.925C52.6354 53.7802 52.5571 53.6392 52.4788 53.4983C52.3073 53.1792 52.1173 52.8676 51.9458 52.5486L50.5775 49.9516C50.5552 49.8959 50.5438 49.8143 50.5364 49.7957C51.2662 48.8769 52.2382 48.3996 53.2363 47.9333C53.2958 47.974 53.3517 48.0593 53.4187 48.1186C53.8083 47.9618 53.9489 47.6682 53.9222 47.334C53.7055 46.6882 53.1 46.63 52.6319 46.5381C52.1042 46.4055 51.6594 46.8 51.2663 47.1091L51.2776 47.1908C51.3371 47.2315 51.3706 47.2611 51.4226 47.2833C50.4141 48.0987 49.6101 49.0474 49.3677 50.3737C49.2858 50.2773 49.2373 50.2106 49.1405 50.0771C49.257 50.7416 49.6701 51.179 49.9719 51.6612C50.2104 52.0396 50.523 52.388 50.743 52.7739C51.3058 53.7978 51.3621 54.0985 50.4651 54.9768C49.9906 55.4048 49.5272 55.8069 48.859 55.9679C48.2725 56.1177 47.7347 56.4419 47.1669 56.6918C46.9443 56.7814 46.9223 56.9412 46.8857 57.1715C46.8343 57.4724 47.0019 57.7283 46.932 58.0367C47.4596 58.1694 47.9612 58.2909 48.4844 58.0373ZM49.842 49.838C49.8159 49.8269 49.7899 49.8158 49.7825 49.7972L49.8157 49.7192C49.8417 49.7303 49.8492 49.7488 49.8492 49.7488C49.8456 49.7934 49.8345 49.8194 49.842 49.838ZM56.6223 42.5396C56.6246 41.8488 56.5973 41.1915 56.5885 40.5267C56.6101 40.1516 56.6836 39.7986 56.668 39.4384C56.6803 38.1831 56.6777 36.8906 56.664 35.6242C56.6555 35.0671 56.6098 34.525 56.5902 33.9939C56.5897 33.7785 56.5486 33.6226 56.3071 33.612C55.8657 33.8543 56.1118 34.3589 55.8602 34.805C55.8448 34.5525 55.8371 34.4263 55.8555 34.3111C55.8994 33.9916 55.9508 33.6907 56.0096 33.4083C56.0648 33.1705 55.968 33.037 55.7375 32.8926C55.7309 33.3049 55.7204 33.654 55.7324 34.0588L55.4534 33.8477C55.4231 33.5581 55.4263 33.2981 55.4146 33.001C55.3109 33.172 55.2444 33.3282 55.2559 33.5175C55.2508 34.6837 55.2087 35.8648 55.2296 37.0421C55.2387 39.6901 55.2959 42.2972 55.305 44.9452C55.3384 46.7426 55.29 48.5514 55.2788 50.3452C55.2812 51.53 55.2911 52.7333 55.3156 53.866C55.6695 54.3703 56.0777 54.2061 56.4825 54.1941C56.5117 53.9452 56.5334 53.6778 56.5551 53.4104C56.6443 53.4176 56.6963 53.4398 56.7409 53.4434L56.8512 52.8601C57.0825 51.5598 57.2618 50.2372 57.4932 48.9369C57.6731 47.9375 57.894 46.9863 58.2932 46.0496C58.4227 45.7819 58.5372 45.4771 58.8452 45.3317C59.0981 45.5317 59.2176 45.8286 59.2813 46.1479C59.4127 46.8495 59.6037 47.5919 59.6869 48.3345C59.804 49.3222 59.8729 50.3508 59.979 51.3645L60.1078 52.6492C60.1761 53.3548 60.2258 54.0677 60.2495 54.7696C60.2794 54.8438 60.3278 54.9106 60.4135 55.0701C60.4349 54.5872 60.4675 54.1861 60.4962 53.7218C60.5822 53.989 60.6419 54.1374 60.739 54.3787C60.7198 54.063 60.7454 53.8587 60.7078 53.6582C60.5896 52.132 60.4528 50.6133 60.3346 49.0871C60.2394 47.9397 60.1443 46.7923 59.9043 45.6601C59.8593 45.441 59.7215 45.2593 59.8659 45.0288C60.0337 45.3924 60.2276 45.7671 60.3584 46.1457C60.6719 46.925 60.7182 47.7902 60.7756 48.6294C60.8059 48.9191 60.7174 49.2349 60.848 49.5058C61.0308 49.9065 60.9425 50.3301 60.9916 50.7199C61.0524 51.4069 61.0686 52.0902 61.1034 52.7661C61.1305 53.3157 61.2468 53.8725 61.1216 54.4187C61.0478 54.664 61.0557 54.898 61.0451 55.1394C61.0489 55.2025 61.0973 55.2693 61.1272 55.3435C61.1457 55.336 61.1903 55.3396 61.2014 55.3136C61.2419 55.1464 61.2639 54.9867 61.2634 54.7713C61.4419 54.8935 61.572 54.9489 61.7135 55.086C61.7203 54.7815 61.7198 54.5661 61.7119 54.3321C61.6473 53.582 61.6012 52.8245 61.518 52.0819C61.3364 50.4518 61.1288 48.8107 60.9473 47.1807C60.8606 46.5903 60.7629 46.026 60.6207 45.4581C60.4969 44.8827 60.1469 44.4414 59.6709 44.1156C59.4143 43.9601 59.2695 43.9752 59.0247 44.1169L58.0046 44.7429C58.1044 44.5087 58.1748 44.4157 58.2117 44.2931C57.4476 44.7514 57.2674 45.6431 56.7378 46.4167C56.7189 46.2087 56.7076 46.1271 56.6888 46.0268C56.6753 44.8681 56.6358 43.6983 56.6223 42.5396ZM59.62 44.6319C59.8763 44.6797 59.9322 44.765 59.8509 44.9917C59.7208 44.9362 59.5573 44.8511 59.62 44.6319ZM67.1921 49.8636L67.86 49.5948C68.6579 49.2738 69.318 48.7711 69.8402 48.0867C70.1292 47.7333 69.9426 47.2694 69.4781 47.133C69.2328 47.0592 68.995 47.0039 68.8092 46.9709C68.4718 47.2575 68.1865 47.5664 67.8713 47.801C67.5635 48.0542 67.2074 48.2406 66.8476 48.4716C66.9257 48.5048 66.9666 48.553 67.0447 48.5863C65.5897 49.0423 64.8539 48.821 64.4397 47.8451C64.499 47.7781 64.5954 47.6962 64.6732 47.6218C65.3774 46.9073 66.1672 46.2446 66.808 45.4262C67.46 44.5819 68.0859 43.7264 68.5407 42.7673C68.7035 42.4216 68.8216 42.0722 68.8357 41.6785C68.8604 41.0434 68.6072 40.7356 67.9571 40.6738L67.7981 40.975C67.6526 40.667 67.9053 40.7593 67.9571 40.6738C67.7788 40.6593 67.582 40.6523 67.3777 40.6267C67.0582 40.5828 66.7984 40.6873 66.5984 40.9403C66.2798 41.3271 65.9612 41.714 65.676 42.1306C65.4427 42.4616 65.2169 42.8111 64.9985 43.1793C64.8949 43.3503 64.8172 43.5325 64.7731 43.7442C64.6516 44.2459 64.3999 44.692 64.1222 45.1271C63.7889 45.5846 63.5151 46.0828 63.3193 46.6143C63.2824 46.737 63.175 46.8449 63.086 46.9453C62.8231 47.3098 62.4074 47.4555 62.0103 47.5937L62.0214 47.5677C61.9363 47.7313 61.8437 47.8763 61.7512 48.0213C61.8073 48.2144 61.8745 48.3813 61.9082 48.5187C62.4028 48.8371 62.6915 48.376 63.0515 48.2527C63.1373 48.4122 63.197 48.5607 63.2827 48.7202C63.3312 48.7869 63.387 48.8722 63.4726 48.9241C63.6436 49.0277 63.8407 49.1424 64.0303 49.2386C64.1604 49.2941 64.2943 49.4126 64.4206 49.405C64.9442 49.3668 65.32 49.7114 65.7956 49.8218C65.7883 49.911 65.7661 49.963 65.7514 50.0336C66.2379 50.0104 66.7282 50.0502 67.1921 49.8636ZM64.9626 45.6082C65.2731 44.8797 65.6876 44.1955 66.2174 43.5296L66.3626 43.7299C66.1705 44.2168 65.5631 45.0648 64.9626 45.6082ZM64.1847 48.4435C64.0693 48.3175 63.9688 48.2286 64.1059 48.0872C64.1247 48.1874 64.1435 48.2876 64.1847 48.4435ZM73.5899 24.5456C73.4489 24.6239 73.3451 24.6872 73.2783 24.7356C72.7507 24.603 72.9503 24.1347 72.7268 23.7934C72.6344 24.0462 72.5643 24.2469 72.5127 24.4401C72.297 24.3328 72.3706 23.9798 72.0104 23.9954C71.9667 24.4226 71.897 24.8387 71.8978 25.2695C71.8418 26.952 71.8378 28.6567 71.7372 30.3356C71.5874 33.3925 71.367 36.4346 71.1912 39.4804C71.1518 40.1861 71.0528 40.8511 70.7236 41.4794C70.4941 41.8736 70.4319 42.3082 70.4773 42.7427C70.864 42.9536 70.9423 43.0945 70.8947 43.4586C70.9062 43.648 70.9363 43.8299 70.9293 44.0268C70.9302 44.4576 70.8493 44.8997 70.8873 45.3156C70.9255 45.8392 70.9637 46.3627 70.8867 46.868C70.817 47.2841 70.9625 47.592 71.2528 47.8849L71.7418 47.2785L71.8021 47.75C72.2959 47.6376 72.4144 47.5037 72.3133 47.0917C72.2161 46.7427 72.2785 46.4158 72.315 46.0777C72.38 45.1677 72.5602 44.276 72.4284 43.3589C72.4168 43.1695 72.4981 42.9428 72.5273 42.6939C72.7544 42.9906 72.9221 43.2465 73.1379 43.4615C73.3538 43.6765 73.5992 43.8579 73.8522 44.058C73.9192 44.1173 74.0196 44.2062 74.0753 44.1838C74.4353 44.0605 74.6364 44.3461 74.8855 44.483C75.2462 44.6828 75.6254 44.8752 75.8564 45.235C75.9048 45.3017 75.9828 45.335 76.0349 45.3572C76.503 45.4491 76.8268 45.7715 77.2246 45.9564C77.5703 46.1191 77.8789 46.2968 78.1986 46.4484C78.3212 46.4853 78.5034 46.5629 78.5701 46.5145C78.7629 46.3507 78.9636 46.4208 79.1865 46.439C79.5542 46.4419 79.7246 46.2225 79.7015 45.8437C79.6746 45.4018 79.3178 45.2651 79.0092 45.0875C77.8976 44.5215 76.7785 43.9369 75.678 43.3449C75.2653 43.1229 74.9044 42.8154 74.4879 42.5303C74.625 42.3889 74.7029 42.3144 74.7993 42.2325C75.3738 41.678 75.8033 41.0309 76.0878 40.2913C76.3093 39.6632 76.2784 39.0504 76.0877 38.4157C75.9271 37.963 75.5626 37.7 75.1614 37.6674C74.6005 37.6128 74.0251 37.7366 73.468 37.7451C73.2972 37.7492 73.1266 37.8609 72.9039 37.9505C72.9295 37.7462 72.918 37.5568 72.94 37.3971L73.1914 33.1998C73.2275 32.6464 73.2264 32.1079 72.9952 31.6404C73.0506 31.5103 73.1135 31.3987 73.1393 31.3021C73.2014 30.7598 73.282 30.21 73.3069 29.6825C73.3602 28.4754 73.3949 27.2757 73.4296 26.0761C73.4584 25.6118 73.4165 25.1328 73.6496 24.694C73.6607 24.668 73.6123 24.6013 73.5899 24.5456ZM74.4698 39.1098C74.2306 40.1762 73.4415 41.162 72.7141 41.39C72.6315 40.9705 72.6865 40.625 72.9904 40.3087C73.4129 39.8584 73.8763 39.4564 74.4698 39.1098ZM71.7305 47.1968L71.6409 46.9742C71.678 46.9592 71.704 46.9703 71.7411 46.9554C71.7339 47.0445 71.7452 47.1262 71.7305 47.1968ZM94.733 17.785C94.6474 17.7332 94.5805 17.6739 94.5431 17.5811C94.3529 17.1618 93.959 17.04 93.5691 17.0891C93.027 17.1348 92.4663 17.1879 91.9728 17.408C90.9894 17.8037 90.0508 18.3107 89.0416 18.803C89.3575 18.8914 89.6204 18.5269 89.8403 18.9128C89.5287 19.1028 89.2099 19.382 88.8646 19.4347C88.1369 19.555 87.618 20.0871 87.0171 20.4152C86.5941 20.65 86.2011 20.959 85.7782 21.1939C85.7155 21.4131 85.5745 21.4914 85.3702 21.4658C85.3781 21.6998 85.2111 21.767 85.0256 21.8416C85.0362 21.6002 85.1697 21.5034 85.3702 21.4658C85.3107 21.4251 85.2623 21.3583 85.1953 21.299C85.0543 21.3773 84.9245 21.4296 84.8095 21.5189C82.3473 23.4366 80.0415 25.5285 78.0929 27.9725C77.6632 28.5118 77.2855 29.0734 76.8707 29.6499C76.9897 29.7314 77.0567 29.7907 77.1312 29.8685C77.0721 30.0432 77.0205 30.2364 76.7643 30.2963C76.653 30.3411 76.5381 30.4305 76.4677 30.5235C75.8456 31.4421 75.3387 32.379 75.2556 33.5119C75.1974 34.1174 75.3768 34.6704 75.8455 35.0854C76.1209 35.3411 76.4555 35.5299 76.753 35.7335C76.958 36.0822 77.311 36.1558 77.6529 36.2554C77.8536 36.3255 78.0393 36.3586 78.24 36.4287C79.0279 36.6723 79.849 36.8377 80.681 36.8695C81.7283 36.9008 82.7832 36.9506 83.8267 36.9188C84.6549 36.8874 85.5014 36.7409 86.3331 36.6649C86.5336 36.6274 86.7304 36.6344 86.9384 36.6154C86.92 36.7306 86.9239 36.7937 86.9017 36.8458C87.8339 36.8587 88.7662 36.8717 89.7058 36.9032C90.653 36.9533 91.5927 36.9848 92.5176 37.087C93.6915 37.2183 94.8692 37.4127 95.9509 37.9045C96.8171 38.289 97.3569 38.9341 97.5593 39.8659C97.7355 40.6789 97.6443 41.4701 97.3747 42.2469C96.9244 43.5922 96.1803 44.7971 95.3172 45.9204C93.1985 48.6916 90.6256 50.9771 87.8146 52.992C86.7094 53.7816 85.5669 54.4784 84.4134 55.2012C83.6492 55.6596 82.8441 56.0698 81.9798 56.5469C82.2026 56.565 82.3289 56.5573 82.5072 56.5718C82.2811 56.8137 82.0958 56.996 81.9105 57.1784C81.9478 57.2712 81.9777 57.3454 81.9815 57.4085C81.3918 57.8182 80.6232 57.8903 80.2792 58.5893C80.1645 58.7863 79.0324 59.134 78.6351 59.1645L80.219 58.2254L79.6251 58.3566C80.2854 57.9616 80.8603 57.6225 81.4428 57.3019C81.4278 57.2648 81.4018 57.2537 81.3943 57.2351L81.1307 57.2765C81.3235 57.1127 81.4756 57.0084 81.6387 56.8781C81.145 56.9905 80.7481 57.2364 80.3214 57.4082C79.0486 57.9418 77.731 58.3642 76.3722 58.6306C75.5703 58.7808 74.7682 58.8232 73.9695 58.7134C73.3305 58.6256 73.1294 58.34 73.2172 57.7011C73.2281 57.5673 73.265 57.4447 73.3019 57.3221C73.8506 54.9886 74.9011 52.8844 76.3493 50.9651C76.4419 50.8201 76.527 50.6565 76.6381 50.504C76.6195 50.5115 76.627 50.53 76.627 50.53C76.7345 50.4221 76.868 50.3253 76.9309 50.2137C77.2712 49.5594 77.8274 49.12 78.3651 48.6881C79.6257 47.642 80.987 46.7924 82.5309 46.2359C82.7795 46.1574 82.8906 46.005 82.8492 45.7413C82.6409 45.5449 82.4436 45.3225 82.2277 45.1075C82.4133 45.0329 82.5321 45.0066 82.6805 44.9469C82.5131 44.7987 82.4052 44.6912 82.2309 44.8475C82.1642 44.896 82.0789 44.9518 82.0454 44.9222C81.696 44.8041 81.4625 45.0274 81.2102 45.1504C80.6314 45.4264 80.0861 45.7321 79.5518 46.0117C79.2916 45.9008 79.2916 45.9008 79.1507 45.9791C78.5237 46.296 77.986 46.7279 77.4708 47.2155C76.3142 48.306 75.3586 49.5744 74.4439 50.891C73.4553 52.3451 72.7342 53.9287 72.1173 55.5566C71.8107 56.3483 71.6006 57.1658 71.5465 57.9421C71.8521 58.4875 72.3431 58.8504 72.2367 59.4969C72.5193 59.6634 72.7908 59.856 73.077 59.978C73.5639 60.1701 74.0508 60.3622 74.5635 60.4578C74.9611 60.535 75.3844 60.5155 75.7929 60.459C77.8573 60.232 79.8356 59.6301 81.6832 58.6496C81.8613 58.5564 82.0543 58.5003 82.2323 58.407C82.8037 58.1125 83.3825 57.8365 83.9278 57.5308C84.5214 57.1843 85.0441 56.7152 85.7344 56.5022C85.8347 56.4834 85.9385 56.42 86.0164 56.3456C86.8991 55.7533 87.8078 55.1721 88.6756 54.5427C91.3382 52.5875 93.7887 50.3728 95.8409 47.7577C96.9004 46.426 97.8298 45.0388 98.5211 43.4887C99.1312 42.1654 99.4479 40.8091 98.9882 39.3988C98.8686 38.9942 98.6969 38.5675 98.4548 38.2337C97.4939 36.9172 96.2405 35.9987 94.6279 35.6343C93.9405 35.4797 93.2529 35.2174 92.5327 35.3562C91.4514 35.0799 90.3486 35.1787 89.2564 35.036C89.0706 35.003 88.8738 34.996 88.7029 35C86.7828 34.9965 84.8702 35.0115 82.9576 35.0265C82.7422 35.0269 82.5492 35.083 82.3783 35.0871C82.3896 35.1688 82.412 35.2244 82.4344 35.2801C80.8376 35.3836 77.6496 34.6398 76.9279 34.0248C76.8223 33.2265 77.1848 32.5201 77.458 31.6988C77.1502 31.952 77.1844 32.3047 76.895 32.4427C77.2342 31.2499 78.0086 30.3347 78.716 29.3602C78.7829 29.4195 78.8424 29.4602 78.8574 29.4973C79.5874 28.6862 80.3099 27.8566 81.0623 27.1011C81.8258 26.3196 82.6302 25.5864 83.4272 24.8346C83.6682 24.6298 83.9612 24.4472 84.0907 24.1796C84.2312 23.8859 84.6324 23.9185 84.6614 23.5619C84.8582 23.5689 84.7799 23.428 84.8057 23.3313C84.8904 22.9524 85.1499 22.7401 85.5805 22.6316L85.3474 23.0703C85.5552 22.9436 85.685 22.8913 85.826 22.8131C87.0389 22.0232 88.2628 21.2074 89.5092 20.4473C90.6034 19.7914 91.7685 19.258 93.0381 18.9843C93.2832 18.9504 93.5357 18.935 93.8253 18.9047C93.7635 19.5548 93.3969 20.0903 93.5616 20.7139C93.6878 20.7062 93.7435 20.6838 93.8066 20.68C94.0267 21.1735 94.0267 21.1735 94.5503 21.1353C95.0393 20.5289 95.2496 19.8192 95.2926 19.0689C95.325 18.56 95.2015 18.0923 94.733 17.785ZM90.5531 18.7553C91.3396 18.3526 92.0741 17.9278 93.0767 17.8477C92.1526 18.1764 91.3584 18.4529 90.5531 18.7553ZM84.6334 22.5815C84.6185 22.5444 84.5924 22.5333 84.585 22.5147C84.6443 22.4478 84.6775 22.3697 84.7517 22.3398C84.7888 22.3249 84.8744 22.3767 85.0045 22.4322L84.6334 22.5815ZM76.7716 35.7261L76.6223 35.355C76.7599 35.429 76.8305 35.4437 76.8714 35.4919C76.9458 35.5697 76.9571 35.6514 77.0205 35.7553L76.7716 35.7261ZM98.2876 38.1932L98.5638 38.8797C98.3482 38.7724 98.3482 38.7724 98.2876 38.1932ZM77.2543 48.553C77.5582 48.2367 77.8956 47.95 78.2663 47.5853C78.2927 47.8118 78.3004 47.938 78.3267 48.0568C77.8155 48.7152 77.3228 49.3662 76.8377 50.0356C76.7377 50.1621 76.6971 50.3293 76.6381 50.504C75.9629 50.8619 75.4775 51.4237 74.9326 51.9447C74.8844 51.9857 74.8436 52.0452 74.762 52.0565C75.4576 50.7849 76.2537 49.6023 77.2543 48.553ZM72.5343 56.0572L72.2873 56.9973C72.2086 56.6409 72.2971 56.3251 72.5343 56.0572ZM104.573 34.8236L105.241 34.5548C106.039 34.2338 106.699 33.7311 107.221 33.0467C107.51 32.6933 107.323 32.2294 106.859 32.0929C106.614 32.0191 106.376 31.9639 106.19 31.9309C105.853 32.2175 105.567 32.5263 105.252 32.761C104.944 33.0141 104.588 33.2005 104.228 33.4315C104.306 33.4648 104.347 33.513 104.425 33.5463C102.97 34.0023 102.235 33.781 101.82 32.805C101.88 32.7381 101.976 32.6562 102.054 32.5817C102.758 31.8672 103.548 31.2046 104.189 30.3862C104.841 29.5418 105.467 28.6864 105.921 27.7273C106.084 27.3815 106.202 27.0322 106.216 26.6385C106.241 26.0033 105.988 25.6956 105.338 25.6338L105.179 25.9349C105.033 25.627 105.286 25.7193 105.338 25.6338C105.16 25.6193 104.963 25.6123 104.758 25.5867C104.439 25.5428 104.179 25.6473 103.979 25.9002C103.661 26.2871 103.342 26.674 103.057 27.0905C102.823 27.4215 102.598 27.7711 102.379 28.1392C102.276 28.3103 102.198 28.4924 102.154 28.7042C102.032 29.2058 101.781 29.652 101.503 30.0871C101.17 30.5446 100.896 31.0428 100.7 31.5743C100.663 31.6969 100.556 31.8048 100.467 31.9053C100.204 32.2698 99.7882 32.4155 99.3911 32.5537L99.4021 32.5277C99.3171 32.6913 99.2245 32.8363 99.1319 32.9813C99.188 33.1743 99.2552 33.3413 99.2889 33.4787C99.7835 33.7971 100.072 33.3359 100.432 33.2127C100.518 33.3722 100.578 33.5206 100.663 33.6801C100.712 33.7469 100.768 33.8322 100.853 33.884C101.024 33.9877 101.221 34.1024 101.411 34.1986C101.541 34.254 101.675 34.3726 101.801 34.3649C102.325 34.3267 102.701 34.6714 103.176 34.7818C103.169 34.871 103.147 34.923 103.132 34.9936C103.619 34.9703 104.109 35.0102 104.573 34.8236ZM102.343 30.5682C102.654 29.8396 103.068 29.1554 103.598 28.4896L103.743 28.6898C103.551 29.1768 102.944 30.0248 102.343 30.5682ZM101.565 33.4035C101.45 33.2775 101.35 33.1885 101.487 33.0471C101.505 33.1474 101.524 33.2476 101.565 33.4035ZM109.55 21.2444C109.552 20.5536 109.525 19.8963 109.516 19.2315C109.537 18.8564 109.611 18.5034 109.595 18.1432C109.608 16.8879 109.605 15.5954 109.591 14.329C109.583 13.772 109.537 13.2298 109.518 12.6988C109.517 12.4834 109.476 12.3275 109.235 12.3168C108.793 12.5591 109.039 13.0637 108.788 13.5099C108.772 13.2574 108.764 13.1311 108.783 13.0159C108.827 12.6964 108.878 12.3955 108.937 12.1131C108.992 11.8753 108.895 11.7418 108.665 11.5975C108.658 12.0097 108.648 12.3588 108.66 12.7636L108.381 12.5525C108.35 12.2629 108.354 12.0029 108.342 11.7058C108.238 11.8769 108.172 12.033 108.183 12.2224C108.178 13.3885 108.136 14.5697 108.157 15.7469C108.166 18.3949 108.223 21.002 108.232 23.65C108.266 25.4474 108.217 27.2562 108.206 29.0501C108.209 30.2348 108.218 31.4381 108.243 32.5708C108.597 33.0752 109.005 32.9109 109.41 32.899C109.439 32.6501 109.461 32.3826 109.483 32.1152C109.572 32.1224 109.624 32.1446 109.668 32.1482L109.779 31.5649C110.01 30.2646 110.189 28.9421 110.421 27.6417C110.6 26.6423 110.821 25.6911 111.221 24.7544C111.35 24.4867 111.465 24.182 111.773 24.0365C112.025 24.2365 112.145 24.5334 112.209 24.8527C112.34 25.5543 112.531 26.2967 112.614 27.0394C112.731 28.027 112.8 29.0556 112.906 30.0693L113.035 31.3541C113.103 32.0596 113.153 32.7725 113.177 33.4744C113.207 33.5486 113.255 33.6154 113.341 33.7749C113.362 33.2921 113.395 32.8909 113.424 32.4266C113.51 32.6938 113.569 32.8423 113.666 33.0835C113.647 32.7678 113.673 32.5635 113.635 32.363C113.517 30.8369 113.38 29.3181 113.262 27.792C113.167 26.6446 113.072 25.4972 112.832 24.3649C112.787 24.1459 112.649 23.9642 112.793 23.7336C112.961 24.0972 113.155 24.4719 113.286 24.8505C113.599 25.6298 113.646 26.495 113.703 27.3343C113.733 27.6239 113.645 27.9398 113.775 28.2106C113.958 28.6113 113.87 29.0349 113.919 29.4248C113.98 30.1117 113.996 30.795 114.031 31.4709C114.058 32.0205 114.174 32.5774 114.049 33.1236C113.975 33.3688 113.983 33.6028 113.972 33.8442C113.976 33.9073 114.025 33.9741 114.055 34.0483C114.073 34.0408 114.118 34.0445 114.129 34.0185C114.169 33.8512 114.191 33.6915 114.191 33.4761C114.369 33.5983 114.499 33.6537 114.641 33.7909C114.648 33.4863 114.647 33.2709 114.639 33.0369C114.575 32.2869 114.529 31.5293 114.445 30.7867C114.264 29.1567 114.056 27.5155 113.875 25.8855C113.788 25.2952 113.69 24.7308 113.548 24.1629C113.424 23.5875 113.074 23.1462 112.598 22.8204C112.342 22.6649 112.197 22.6801 111.952 22.8217L110.932 23.4477C111.032 23.2135 111.102 23.1205 111.139 22.9979C110.375 23.4562 110.195 24.3479 109.665 25.1215C109.646 24.9136 109.635 24.8319 109.616 24.7316C109.603 23.5729 109.563 22.4031 109.55 21.2444ZM112.547 23.3367C112.804 23.3845 112.86 23.4698 112.778 23.6965C112.648 23.6411 112.485 23.556 112.547 23.3367ZM118.249 44.1744C118.883 43.4451 119.379 42.6419 119.381 41.628C119.31 41.6133 119.247 41.6172 119.184 41.621C119.483 40.7031 119.745 39.8 120.014 38.9156C120.077 38.9118 120.129 38.9339 120.174 38.9376C120.233 38.7629 120.251 38.6477 120.281 38.5065C120.486 37.4105 120.729 36.2996 120.909 35.1924C121.166 33.5801 121.326 31.9419 121.315 30.3078C121.305 29.1045 121.295 27.9012 121.204 26.7093C121.158 25.9517 120.882 25.2652 119.975 25.1556L119.86 25.1373C119.31 24.949 119.265 24.9454 118.887 25.3992C118.587 25.7786 118.287 26.1581 117.969 26.545C117.88 26.6454 117.776 26.7088 117.68 26.7907C117.653 26.5642 117.668 26.3859 117.734 26.2298C117.908 25.858 118.071 25.5123 118.27 25.1516C118.459 24.817 118.652 24.4378 118.9 24.1439C119.326 23.6491 119.759 23.1728 120.428 23.0118C120.874 23.2634 120.938 23.6904 121.031 24.0839C121.076 24.3029 121.077 24.5183 121.266 24.6145C121.608 24.391 122.032 24.5869 122.324 24.189C122.291 24.4824 122.158 24.687 122.311 24.9058C122.388 24.6159 122.417 24.367 122.517 24.1329C122.606 23.9247 122.346 23.8138 122.457 23.5536C122.512 23.4235 122.326 23.1751 122.244 22.971C121.971 22.3476 121.525 21.9882 120.86 21.8893C120.674 21.8562 120.488 21.8232 120.343 21.7306C119.983 21.5308 119.615 21.5279 119.259 21.7143C118.988 21.8448 118.751 22.005 118.498 22.1281C118.142 22.3145 117.872 22.5527 117.631 22.8652C116.975 23.7541 116.546 24.7243 116.281 25.7796C116.134 26.3778 116.046 27.0168 116.155 27.6628C116.234 28.1269 116.424 28.4385 116.862 28.5639L116.743 28.267C117.022 28.3704 117.022 28.3704 116.855 28.5453C117.695 28.9187 118.467 28.802 119.164 28.1767C119.368 27.9868 119.538 27.7674 119.724 27.585C119.794 27.492 119.872 27.4176 119.991 27.2837C120.024 27.421 120.054 27.4952 120.039 27.5658C120.045 28.706 120.096 29.8498 120.039 30.9938C119.859 33.8687 119.263 36.6739 118.649 39.4866C118.439 40.4118 118.002 41.2557 117.566 42.0997C117.329 42.5829 116.97 43.0293 116.398 43.3239C116.279 43.1347 116.164 43.0087 116.096 42.8417C115.742 41.7988 115.461 40.726 115.418 39.6008C115.375 38.691 115.299 37.7515 115.275 36.8342C115.266 36.3849 115.34 35.9242 115.447 35.4932C115.549 34.999 115.775 34.5417 115.826 34.0254C115.837 33.784 116 33.6537 116.223 33.5641C116.475 33.441 116.72 33.2994 117.009 33.1614C116.908 32.6416 116.721 32.1778 116.279 31.8816L115.904 31.9677C115.773 31.5892 115.431 31.5973 115.182 31.4604C114.826 31.6468 114.745 31.9812 114.675 32.2896C114.093 34.5934 113.849 36.9337 113.969 39.3215C113.999 39.8265 114.108 40.3648 114.458 40.8061C114.436 40.9658 114.407 41.107 114.366 41.2742L114.219 41.8724C114.35 42.251 114.47 42.7633 114.675 43.2197C115.07 44.0954 115.64 44.707 116.732 44.7419C117.341 44.7556 117.853 44.6357 118.249 44.1744ZM119.759 26.6008C119.714 26.5971 119.696 26.6046 119.67 26.5935L119.703 26.5155C119.711 26.534 119.737 26.5451 119.77 26.5747L119.759 26.6008ZM117.704 28.0311C118.03 27.6627 118.494 27.3684 118.747 27.353C118.447 27.8402 118.313 27.937 117.704 28.0311ZM119.055 38.4607C119.048 38.4422 119.014 38.4125 119.025 38.3865C119.036 38.3605 119.047 38.3345 119.084 38.3195L119.114 38.3938C119.103 38.4198 119.085 38.4272 119.055 38.4607ZM114.649 41.6562C114.593 41.5709 114.564 41.4966 114.526 41.4039C114.526 41.4039 114.537 41.3778 114.556 41.3704L114.627 41.4928C114.649 41.5485 114.653 41.6116 114.649 41.6562ZM116.67 43.8396C116.574 43.8138 116.47 43.7694 116.366 43.7251C116.369 43.6805 116.38 43.6545 116.391 43.6284C116.507 43.6468 116.603 43.6726 116.707 43.7169C116.726 43.7095 116.733 43.728 116.741 43.7466C116.748 43.7651 116.73 43.7726 116.67 43.8396ZM117.421 44.098C117.443 43.8306 117.565 43.6521 117.877 43.6774C117.721 43.8263 117.584 43.9677 117.421 44.098ZM124.128 22.7087C124.394 22.2997 124.627 21.861 124.92 21.463C125.42 20.7229 125.957 19.9679 126.483 19.2389C126.635 19.0269 126.846 18.8556 127.042 18.6473C127.143 18.7362 127.184 18.7844 127.243 18.8251C127.321 18.8584 127.41 18.8656 127.489 18.8989C127.559 18.8059 127.637 18.7315 127.696 18.6645C128.079 18.92 128.124 18.9236 128.457 18.5738C128.478 17.9833 128.203 17.6199 127.682 17.3981C127.526 17.4393 127.345 17.4693 127.17 17.518C127.136 17.3806 127.136 17.2729 127.117 17.1727C127.244 17.165 127.333 17.1723 127.414 17.1609C127.061 16.9797 126.697 16.8244 126.352 17.0925C126.133 17.2452 125.963 17.4647 125.785 17.6656C125.607 17.8665 125.481 18.0896 125.281 18.2349C124.814 18.5738 124.395 18.9794 124.069 19.4555C123.169 20.8092 122.485 22.2701 121.957 23.7976C121.71 24.5223 121.533 25.2617 121.364 26.0197C121.239 26.6736 121.274 27.3495 121.516 28.0064C121.625 28.3292 121.826 28.5071 122.149 28.5065C122.795 28.5051 123.408 28.3665 123.863 27.8382C124.23 27.4104 124.604 27.0011 124.938 26.5436C125.564 25.6881 126.182 24.8141 126.707 23.762C126.485 23.9593 126.34 24.0821 126.203 24.2235C126.174 24.3647 126.111 24.4763 125.94 24.4803C125.847 24.5177 125.743 24.581 125.677 24.6294C125.728 24.3285 125.758 24.295 125.966 24.276C126.014 24.2351 126.069 24.2127 126.125 24.1903L127.265 22.4164C127.255 22.6579 127.262 22.7841 127.263 22.8918L127.077 24.9497C127.067 25.0834 127.019 25.2321 127.074 25.3174C127.316 25.6512 127.224 26.0116 127.266 26.3829C127.389 26.4198 127.493 26.4641 127.597 26.5085C127.686 26.408 127.745 26.3411 127.786 26.2816L128.217 26.4961C128.25 26.0949 128.267 25.7644 128.285 25.4338C128.307 25.1663 128.284 24.8953 128.481 24.6869C128.276 24.2305 128.49 23.7992 128.623 23.3793C128.65 23.8212 128.588 24.2559 128.481 24.6869C128.459 24.9543 128.456 25.2143 128.453 25.4743C128.464 25.6637 128.409 25.9015 128.658 26.0384C128.68 25.8787 128.709 25.7375 128.72 25.6037L129.017 21.8409C129.054 21.5029 129.09 21.1649 129.082 20.8232C129.062 20.2922 129.043 19.7611 128.522 19.4316C128.169 19.3581 128.088 19.6925 127.869 19.8452L127.337 19.3263C127.237 19.4528 127.122 19.5422 127.041 19.6612L126.423 20.7506C125.564 22.1525 124.724 23.5469 123.883 24.9413C123.654 25.3354 123.384 25.6814 123.035 26.1018C123.094 25.7117 123.09 25.4331 123.163 25.1879C123.448 24.3405 123.635 23.4674 124.128 22.7087ZM125.636 24.6889L125.577 24.8636C125.562 24.8265 125.536 24.8154 125.51 24.8043L125.636 24.6889ZM123.726 26.3195C123.693 26.5052 123.686 26.5944 123.679 26.6835C123.597 26.6949 123.508 26.6876 123.382 26.6953L123.726 26.3195ZM122.845 27.3426C122.949 27.2792 123.052 27.2159 123.149 27.134C123.264 27.26 123.186 27.3345 122.845 27.3426ZM130.849 26.1053C131.061 24.4893 131.259 22.9439 131.43 21.3874C131.573 20.1876 131.659 19.0101 131.765 17.8251C131.794 17.6839 131.731 17.4724 131.972 17.3753C131.95 17.5351 131.958 17.6613 131.928 17.8025L131.601 21.3834C131.583 21.6063 131.602 21.8142 131.614 22.1113C131.732 21.9773 131.773 21.9178 131.884 21.7653C131.826 22.2631 131.819 22.6754 131.761 23.0655C131.717 23.4927 131.61 23.9237 131.585 24.3434C131.534 24.752 131.341 25.1312 131.424 25.5508C131.509 25.3872 131.557 25.2385 131.579 25.0788C131.758 23.864 131.901 22.6641 132.088 21.4678C132.333 19.8815 132.49 18.2879 132.531 16.676C132.561 15.0901 132.566 13.4931 132.525 11.8925C132.45 9.50828 132.356 7.13157 132.236 4.74376C132.201 3.9602 132.051 3.15829 131.715 2.43105C131.491 1.98212 131.145 1.7117 130.659 1.62726C130.491 1.58675 130.313 1.57225 130.075 1.51703C130.017 2.12251 129.844 2.70966 130.435 3.16156C130.495 3.20229 130.514 3.30253 130.532 3.40277C130.585 3.64035 130.645 3.89649 130.679 4.14154C130.956 5.58198 130.918 7.04162 131.051 8.49721C131.105 9.0579 131.139 9.62606 131.137 10.2092C131.134 11.0076 131.106 11.7951 131.104 12.5936C131.063 14.3132 131.03 16.0514 131.007 17.7635C130.982 18.2909 131.002 18.822 130.995 19.342C131.007 19.4236 130.992 19.4942 130.977 19.5648C130.852 20.2187 130.709 20.8801 130.602 21.5265C130.452 22.4925 130.339 23.4434 130.181 24.3908C130.13 24.6917 130.052 24.9816 129.964 25.2974C130.09 25.2898 130.179 25.297 130.294 25.3153C130.276 25.5382 130.251 25.7425 130.251 25.9579C130.262 26.0396 130.374 26.1025 130.489 26.2286C130.522 26.0428 130.548 25.9462 130.585 25.8236C130.686 25.9125 130.734 25.9792 130.849 26.1053ZM132.357 11.5288C132.346 11.5549 132.302 11.5512 132.276 11.5401C132.287 11.5141 132.272 11.477 132.283 11.451L132.365 11.4397C132.354 11.4657 132.369 11.5028 132.357 11.5288Z" fill="#111341"/>
</svg>
