<svg width="737" height="956" viewBox="0 0 737 956" fill="none" xmlns="http://www.w3.org/2000/svg">
<g opacity="0.05">
<path d="M-228.591 244.721C-296.875 -2.72039 -43.924 -27.9069 138.623 46.8075C245.131 85.2321 315.076 -34.2656 447.018 13.4244C578.961 61.1144 420.789 211.338 622.677 288.437C824.565 365.536 726.005 710.494 549.552 714.468C373.099 718.442 421.584 776.465 245.131 909.202C68.6774 1041.94 -228.59 857.538 -154.671 662.804C-80.7514 468.069 -154.672 512.58 -228.591 244.721Z" stroke="#4844FF" stroke-width="3"/>
<path d="M151.178 437.291C143.3 413.724 180.203 375.704 209.876 391.93C237.049 406.788 264.72 396.767 283.001 403.391C331.128 420.83 313.426 430.061 334.94 450.772C361.12 475.975 373.612 541.97 313.426 541.97C263.925 541.97 278.736 566.012 241.67 576.665C204.603 587.317 162.567 569.184 162.567 521.444C162.567 503.516 164.301 476.544 151.178 437.291Z" stroke="#4844FF" stroke-width="3"/>
<path d="M-194.072 261.025C-256.865 33.9361 -23.5541 7.5829 145.095 76.9801C244.391 113.262 310.493 3.71708 432.102 47.6739C556.425 92.6138 411.024 230.02 596.514 301.993C782.428 374.374 693.964 693.971 528.081 697.584C363.169 701.197 408.592 756.131 244.811 877.769C81.0291 999.408 -193.036 830.122 -125.836 648.751C-58.6367 470.09 -125.679 508.102 -194.072 261.025Z" stroke="#4844FF" stroke-width="3"/>
<path d="M-159.551 277.33C-216.853 70.5932 -3.1832 43.0733 151.569 107.153C243.652 141.293 305.911 41.7004 417.188 81.9239C533.891 124.114 401.259 248.702 570.352 315.549C740.293 383.212 661.924 677.449 506.61 680.701C353.239 683.953 395.602 735.797 244.492 846.337C93.3817 956.877 -157.48 802.706 -97.0007 634.698C-36.5212 472.111 -96.6862 503.624 -159.551 277.33Z" stroke="#4844FF" stroke-width="3"/>
<path d="M-125.031 293.636C-176.841 107.251 17.1879 78.5647 158.042 137.328C242.913 169.325 301.329 79.6846 402.273 116.175C511.357 155.615 391.495 267.386 544.19 329.106C698.157 392.052 629.884 660.928 485.14 663.819C343.311 666.709 382.612 715.465 244.173 814.906C105.734 914.348 -121.925 775.292 -68.165 620.647C-14.4054 474.132 -67.6928 499.148 -125.031 293.636Z" stroke="#4844FF" stroke-width="3"/>
<path d="M-90.511 309.943C-136.83 143.911 37.5585 114.057 164.515 167.503C242.174 197.358 296.746 117.67 387.358 150.427C488.822 187.117 381.73 286.07 518.027 342.665C656.021 400.892 597.844 644.409 463.67 646.938C333.381 649.467 369.621 695.133 243.854 783.476C118.087 871.819 -86.3694 747.879 -39.3298 606.597C7.70992 476.156 -38.6999 494.672 -90.511 309.943Z" stroke="#4844FF" stroke-width="3"/>
<path d="M-55.9907 327.076C-96.8181 181.396 57.9294 150.376 170.989 198.505C241.435 226.217 292.165 156.482 372.443 185.505C466.287 219.445 371.965 305.581 491.865 357.049C613.886 410.559 565.804 628.715 442.199 630.883C323.452 633.051 356.631 675.628 243.535 752.872C130.439 830.116 -50.8138 721.291 -10.4941 593.373C29.8256 479.005 -9.70658 491.023 -55.9907 327.076Z" stroke="#4844FF" stroke-width="3"/>
<path d="M-21.4691 345.187C-56.805 219.859 78.3017 187.672 177.463 230.483C240.697 256.054 287.584 196.271 357.529 221.561C443.754 252.75 362.202 326.069 465.704 372.411C571.751 421.203 533.765 613.999 420.731 615.805C313.524 617.612 343.642 657.1 243.218 723.246C142.794 789.391 -15.2569 695.682 18.3429 581.126C51.9426 482.831 19.2881 488.351 -21.4691 345.187Z" stroke="#4844FF" stroke-width="3"/>
<path d="M13.0534 363.352C-16.7911 258.376 98.6749 225.022 183.939 262.517C239.961 285.944 283.004 236.114 342.617 257.671C421.222 286.11 352.44 346.611 439.544 387.827C529.618 431.901 501.728 599.337 399.263 600.782C303.597 602.227 330.654 638.626 242.901 693.673C155.148 748.72 20.3009 670.126 47.1807 568.933C74.0605 486.712 48.2836 485.734 13.0534 363.352Z" stroke="#4844FF" stroke-width="3"/>
<path d="M47.5765 381.595C23.2235 296.971 119.049 262.451 190.415 294.628C239.225 315.914 278.425 276.035 327.705 293.859C398.691 319.548 342.678 367.232 413.385 403.321C487.485 442.678 469.691 584.753 377.795 585.837C293.671 586.921 317.666 620.231 242.585 664.179C167.504 708.128 55.8593 644.649 76.0192 556.819C96.179 490.671 77.2797 483.194 47.5765 381.595Z" stroke="#4844FF" stroke-width="3"/>
<path d="M82.1021 399.953C63.2405 335.681 139.425 299.994 196.894 326.855C238.491 345.998 273.848 316.072 312.795 330.163C376.161 353.101 332.919 387.967 387.228 418.931C445.355 453.569 437.656 570.285 356.33 571.008C283.747 571.73 304.681 601.95 242.271 634.8C179.862 667.65 91.4202 619.287 104.86 544.82C118.3 494.746 106.278 480.77 82.1021 399.953Z" stroke="#4844FF" stroke-width="3"/>
<path d="M116.634 418.486C103.263 374.567 159.807 337.713 203.378 359.256C237.764 376.257 269.277 356.284 297.891 366.641C353.638 386.83 323.165 408.878 361.077 434.715C403.231 464.636 405.627 555.992 334.871 556.353C273.829 556.714 291.702 583.845 241.964 605.597C192.226 627.348 126.987 594.1 133.707 532.996C140.427 498.995 135.283 478.521 116.634 418.486Z" stroke="#4844FF" stroke-width="3"/>
</g>
</svg>
