<svg width="14" height="15" viewBox="0 0 14 15" fill="none" xmlns="http://www.w3.org/2000/svg">
<path d="M10.0428 14.0407H10.0615C10.4135 14.0407 10.7462 13.902 10.9982 13.65L12.8062 11.842C12.8681 11.7802 12.9173 11.7067 12.9508 11.6258C12.9844 11.5449 13.0016 11.4582 13.0016 11.3707C13.0016 11.2831 12.9844 11.1964 12.9508 11.1155C12.9173 11.0347 12.8681 10.9612 12.8062 10.8993L10.1395 8.23268C10.0777 8.17071 10.0042 8.12155 9.92331 8.08801C9.84243 8.05447 9.75573 8.03721 9.66818 8.03721C9.58062 8.03721 9.49392 8.05447 9.41305 8.08801C9.33217 8.12155 9.2587 8.17071 9.19684 8.23268L8.13418 9.29534C7.64151 9.14867 6.72218 8.81534 6.13951 8.23268C5.55684 7.65001 5.22351 6.73068 5.07684 6.23801L6.13951 5.17534C6.20147 5.11348 6.25063 5.04001 6.28417 4.95914C6.31771 4.87826 6.33498 4.79156 6.33498 4.70401C6.33498 4.61645 6.31771 4.52976 6.28417 4.44888C6.25063 4.368 6.20147 4.29453 6.13951 4.23268L3.47284 1.56601C3.34539 1.44571 3.17677 1.3787 3.00151 1.3787C2.82625 1.3787 2.65763 1.44571 2.53018 1.56601L0.722842 3.37401C0.469509 3.62734 0.326842 3.97534 0.332176 4.33067C0.347509 5.28001 0.598842 8.57734 3.19751 11.176C5.79618 13.7747 9.09351 14.0253 10.0428 14.0407ZM3.00218 2.98001L4.72618 4.70401L3.86418 5.56601C3.78573 5.64424 3.72811 5.74085 3.69655 5.84704C3.665 5.95324 3.66051 6.06564 3.68351 6.17401C3.69951 6.25068 4.09084 8.06868 5.19751 9.17534C6.30418 10.282 8.12218 10.6733 8.19884 10.6893C8.30721 10.7125 8.41965 10.708 8.52586 10.6765C8.63208 10.6449 8.72868 10.5872 8.80684 10.5087L9.66884 9.64668L11.3928 11.3707L10.0555 12.7073C9.22351 12.6933 6.37684 12.47 4.14018 10.2327C1.89618 7.98868 1.67884 5.13201 1.66551 4.31667L3.00218 2.98001ZM12.3315 6.70734H13.6648C13.6648 3.28734 11.0828 0.708008 7.65818 0.708008V2.04134C10.3662 2.04134 12.3315 4.00334 12.3315 6.70734Z" fill="#111341"/>
</svg>
