<svg width="14" height="14" viewBox="0 0 14 14" fill="none" xmlns="http://www.w3.org/2000/svg">
<path d="M0.494031 3.94433L6.6587 0.248327C6.76231 0.186159 6.88087 0.15332 7.0017 0.15332C7.12253 0.15332 7.24109 0.186159 7.3447 0.248327L13.5034 3.94499C13.5528 3.9746 13.5937 4.01651 13.6221 4.06664C13.6505 4.11676 13.6654 4.17339 13.6654 4.23099V12.7083C13.6654 12.8851 13.5951 13.0547 13.4701 13.1797C13.3451 13.3048 13.1755 13.375 12.9987 13.375H0.998698C0.821887 13.375 0.652318 13.3048 0.527293 13.1797C0.402269 13.0547 0.332031 12.8851 0.332031 12.7083V4.23033C0.332019 4.17272 0.346936 4.11609 0.375328 4.06597C0.40372 4.01585 0.444617 3.97394 0.494031 3.94433ZM1.66536 4.79699V12.0417H12.332V4.79633L7.00136 1.59633L1.66536 4.79633V4.79699ZM7.0387 8.50699L10.5694 5.53166L11.428 6.55166L7.04803 10.243L2.5747 6.55633L3.4227 5.52699L7.0387 8.50699Z" fill="#111341"/>
</svg>
