<svg width="9" height="15" viewBox="0 0 9 15" fill="none" xmlns="http://www.w3.org/2000/svg">
<path d="M5.74983 15H3.35158C2.951 15 2.62514 14.6736 2.62514 14.2724V8.85429H1.22595C0.825371 8.85429 0.499512 8.52779 0.499512 8.12668V5.80502C0.499512 5.40379 0.825371 5.0774 1.22595 5.0774H2.62514V3.91479C2.62514 2.76203 2.98653 1.78127 3.67013 1.07872C4.35681 0.372963 5.31645 0 6.44531 0L8.27433 0.00297545C8.67422 0.00366211 8.99951 0.330048 8.99951 0.730591V2.8862C8.99951 3.28743 8.67377 3.61382 8.2733 3.61382L7.04184 3.61427C6.66628 3.61427 6.57065 3.68969 6.55019 3.71281C6.51649 3.75114 6.47638 3.85952 6.47638 4.15878V5.07729H8.18075C8.30906 5.07729 8.43337 5.10899 8.5402 5.16872C8.77066 5.2977 8.91393 5.54157 8.91393 5.80513L8.91302 8.12679C8.91302 8.52779 8.58716 8.85418 8.18658 8.85418H6.47638V14.2724C6.47638 14.6736 6.15041 15 5.74983 15ZM3.50309 14.1206H5.59832V8.46062C5.59832 8.19271 5.81598 7.97482 6.08334 7.97482H8.03507L8.03587 5.95676H6.08323C5.81587 5.95676 5.59832 5.73887 5.59832 5.47096V4.15878C5.59832 3.81523 5.63317 3.42453 5.89208 3.13087C6.20491 2.77588 6.69793 2.73491 7.04161 2.73491L8.12156 2.73445V0.882111L6.44462 0.879364C4.63046 0.879364 3.50309 2.04254 3.50309 3.91479V5.47096C3.50309 5.73875 3.28554 5.95676 3.01818 5.95676H1.37746V7.97482H3.01818C3.28554 7.97482 3.50309 8.19271 3.50309 8.46062V14.1206Z" fill="#111341"/>
</svg>
