<svg width="23" height="23" viewBox="0 0 23 23" fill="none" xmlns="http://www.w3.org/2000/svg">
<path fill-rule="evenodd" clip-rule="evenodd" d="M7.83667 0.375H16.0867C19.883 0.375 22.9617 3.45362 22.9617 7.25V15.5C22.9617 19.2964 19.883 22.375 16.0867 22.375H7.83667C4.04029 22.375 0.96167 19.2964 0.96167 15.5V7.25C0.96167 3.45362 4.04029 0.375 7.83667 0.375ZM16.0867 20.3125C18.7404 20.3125 20.8992 18.1537 20.8992 15.5V7.25C20.8992 4.59625 18.7404 2.4375 16.0867 2.4375H7.83667C5.18292 2.4375 3.02417 4.59625 3.02417 7.25V15.5C3.02417 18.1537 5.18292 20.3125 7.83667 20.3125H16.0867Z" fill="#111341"/>
<path fill-rule="evenodd" clip-rule="evenodd" d="M6.46167 11.375C6.46167 8.33763 8.92429 5.875 11.9617 5.875C14.999 5.875 17.4617 8.33763 17.4617 11.375C17.4617 14.4124 14.999 16.875 11.9617 16.875C8.92429 16.875 6.46167 14.4124 6.46167 11.375ZM8.52417 11.375C8.52417 13.2698 10.0669 14.8125 11.9617 14.8125C13.8564 14.8125 15.3992 13.2698 15.3992 11.375C15.3992 9.47888 13.8564 7.9375 11.9617 7.9375C10.0669 7.9375 8.52417 9.47888 8.52417 11.375Z" fill="#111341"/>
<circle cx="17.8742" cy="5.46249" r="0.732875" fill="#111341"/>
</svg>
