<svg width="15" height="15" viewBox="0 0 15 15" fill="none" xmlns="http://www.w3.org/2000/svg">
<path d="M10.9396 0H4.06036C1.82144 0 0 1.82144 0 4.06036V10.9398C0 13.1786 1.82144 15 4.06036 15H10.9398C13.1786 15 15 13.1786 15 10.9398V4.06036C15 1.82144 13.1786 0 10.9396 0V0ZM14.1206 10.9398C14.1206 12.6937 12.6937 14.1206 10.9396 14.1206H4.06036C2.30633 14.1206 0.879364 12.6937 0.879364 10.9398V4.06036C0.879364 2.30633 2.30633 0.879364 4.06036 0.879364H10.9398C12.6937 0.879364 14.1206 2.30633 14.1206 4.06036V10.9398Z" fill="#111341"/>
<path d="M7.49989 3.3988C5.2383 3.3988 3.39844 5.23867 3.39844 7.50025C3.39844 9.76183 5.2383 11.6017 7.49989 11.6017C9.76147 11.6017 11.6013 9.76183 11.6013 7.50025C11.6013 5.23867 9.76147 3.3988 7.49989 3.3988ZM7.49989 10.7223C5.7233 10.7223 4.2778 9.27695 4.2778 7.50025C4.2778 5.72367 5.7233 4.27817 7.49989 4.27817C9.27658 4.27817 10.722 5.72367 10.722 7.50025C10.722 9.27695 9.27658 10.7223 7.49989 10.7223Z" fill="#111341"/>
<path d="M11.6995 1.94202C11.0311 1.94202 10.4875 2.48573 10.4875 3.15395C10.4875 3.82228 11.0311 4.36599 11.6995 4.36599C12.3678 4.36599 12.9115 3.82228 12.9115 3.15395C12.9115 2.48561 12.3678 1.94202 11.6995 1.94202ZM11.6995 3.48651C11.5161 3.48651 11.3669 3.33728 11.3669 3.15395C11.3669 2.9705 11.5161 2.82138 11.6995 2.82138C11.8829 2.82138 12.0322 2.9705 12.0322 3.15395C12.0322 3.33728 11.8829 3.48651 11.6995 3.48651Z" fill="#111341"/>
</svg>
