<svg width="21" height="21" viewBox="0 0 21 21" fill="none" xmlns="http://www.w3.org/2000/svg">
<path d="M4.25128 0.375C2.096 0.375 0.332031 2.13893 0.332031 4.29425V16.4564C0.332031 18.6117 2.09596 20.375 4.25128 20.375H16.4134C18.5687 20.375 20.332 18.6117 20.332 16.4564V4.29425C20.332 2.13897 18.5687 0.375 16.4134 0.375H4.25128ZM5.23704 3.6754C6.27045 3.6754 6.90698 4.35382 6.92663 5.24559C6.92663 6.11767 6.27041 6.81515 5.21705 6.81515H5.19766C4.18391 6.81515 3.52869 6.11771 3.52869 5.24559C3.52869 4.35384 4.20374 3.6754 5.23701 3.6754H5.23704ZM14.1425 7.84342C16.13 7.84342 17.6198 9.14243 17.6198 11.9339V17.1452H14.5995V12.2833C14.5995 11.0616 14.1623 10.2281 13.0693 10.2281C12.2348 10.2281 11.7375 10.7899 11.5191 11.3326C11.4393 11.5268 11.4197 11.7979 11.4197 12.0696V17.1452H8.39932C8.39932 17.1452 8.43895 8.90933 8.39932 8.05656H11.4203V9.3436C11.8217 8.72433 12.5396 7.8434 14.1425 7.8434V7.84342ZM3.70685 8.05722H6.72723V17.1452H3.70685V8.05722Z" fill="#111341"/>
</svg>
