<svg width="10" height="11" viewBox="0 0 10 11" fill="none" xmlns="http://www.w3.org/2000/svg">
<path d="M7.74938 1.55967C7.14491 1.05511 6.37644 0.785254 5.58634 0.799903C5.09562 0.808944 4.61611 0.927275 4.18158 1.14151V0.933455C4.18158 0.662345 3.96174 0.442505 3.69063 0.442505H1.11595C0.84484 0.442505 0.625 0.662345 0.625 0.933455V10.5093C0.625 10.7805 0.84484 11.0002 1.11595 11.0002H3.74145C3.98452 11.0002 4.18158 10.8032 4.18158 10.5602V4.85087C4.18158 4.36209 4.56404 3.94851 5.05248 3.93397C5.56013 3.91898 5.97784 4.32742 5.97784 4.83176V10.5693C5.97784 10.8073 6.17079 11.0002 6.40871 11.0002H8.93201C9.16993 11.0002 9.36288 10.8073 9.36288 10.5693V5.00628C9.36288 3.6719 8.77477 2.41557 7.74938 1.55967ZM8.48272 10.1201H6.85812V4.83176C6.85812 3.85123 6.06035 3.05347 5.07971 3.05347C4.09919 3.05347 3.30142 3.85123 3.30142 4.83176V10.1201H1.50516V1.32255H3.30142V1.96216H3.30199C3.30188 2.06584 3.33793 2.16998 3.41209 2.25387C3.5731 2.43583 3.85131 2.45277 4.03327 2.29164C4.46688 1.9078 5.02421 1.69059 5.60259 1.67984C6.18155 1.66885 6.74345 1.86637 7.18542 2.23533C8.00996 2.92358 8.48272 3.93351 8.48272 5.00628V10.1201Z" fill="url(#paint0_linear_0_1259)"/>
<defs>
<linearGradient id="paint0_linear_0_1259" x1="0.639406" y1="9.9523" x2="13.233" y2="1.77784" gradientUnits="userSpaceOnUse">
<stop stop-color="#DD77FF"/>
<stop offset="0.51" stop-color="#7286FF"/>
<stop offset="1" stop-color="#01F0D9"/>
</linearGradient>
</defs>
</svg>
