<svg width="41" height="26" viewBox="0 0 41 26" fill="none" xmlns="http://www.w3.org/2000/svg">
<path d="M20.2833 8.13772H20.3998C20.7613 8.1456 21.0891 8.18999 21.4053 8.26722C21.1687 8.63544 21.0498 9.06317 21.0498 9.54715C21.0498 10.8397 22.1591 11.9566 23.4513 11.9566C23.9327 11.9566 24.3581 11.8377 24.7241 11.6018C24.8092 11.9533 24.8541 12.3192 24.8541 12.7295C24.8541 15.2558 22.7942 17.3213 20.2833 17.3213C17.7724 17.3213 15.7125 15.2558 15.7125 12.7295C15.7125 10.2032 17.7724 8.13772 20.2833 8.13772ZM39.7993 12.4604C39.8689 12.5645 39.9279 12.6547 39.9762 12.7295C39.9279 12.8044 39.8689 12.8946 39.7993 12.9986C39.5717 13.339 39.2313 13.8278 38.7833 14.4154C37.8867 15.5913 36.5624 17.1591 34.8531 18.7257C31.428 21.8649 26.5025 24.9591 20.4025 24.9591C14.173 24.9591 9.18738 21.8622 5.73616 18.7243C4.01333 17.1579 2.68337 15.5904 1.78455 14.4148C1.33542 13.8274 0.994705 13.3388 0.767132 12.9985C0.697555 12.8945 0.638575 12.8044 0.590328 12.7295C0.638575 12.6547 0.697555 12.5646 0.767132 12.4605C0.994705 12.1202 1.33542 11.6317 1.78455 11.0442C2.68337 9.86865 4.01333 8.30114 5.73616 6.73471C9.18738 3.59681 14.173 0.5 20.4025 0.5C26.5025 0.5 31.428 3.59419 34.8531 6.73337C36.5624 8.29999 37.8867 9.86779 38.7833 11.0437C39.2313 11.6313 39.5717 12.12 39.7993 12.4604ZM29.6573 12.7295C29.6573 7.49082 25.5055 3.31886 20.2833 3.31886C15.0612 3.31886 10.9094 7.49082 10.9094 12.7295C10.9094 17.9682 15.0612 22.1402 20.2833 22.1402C25.5055 22.1402 29.6573 17.9682 29.6573 12.7295Z" fill="#6D4DFE" stroke="white"/>
</svg>
