<svg width="1041" height="1099" viewBox="0 0 1041 1099" fill="none" xmlns="http://www.w3.org/2000/svg">
<g opacity="0.15">
<path opacity="0.0526316" d="M542.963 961.654C575.815 952.603 642.229 908.456 645.068 804.273C648.618 674.044 556.304 586.722 539.53 462.624C527.149 371.03 543.668 144.554 659.03 56.0853" stroke="white" stroke-width="1.45842"/>
<path opacity="0.105263" d="M482.431 959.486C516.049 953.918 586.714 916.955 600.428 813.64C617.571 684.495 534.89 588.002 531.179 462.83C528.441 370.444 568.542 146.935 692.519 71.0099" stroke="white" stroke-width="1.45842"/>
<path opacity="0.157895" d="M422.995 952.442C457.011 950.419 531.153 921.045 555.591 819.729C586.14 693.084 513.999 588.476 523.392 463.603C530.325 371.437 593.57 153.344 724.804 90.7934" stroke="white" stroke-width="1.45842"/>
<path opacity="0.210526" d="M365.158 940.661C399.199 942.206 476.005 920.742 510.9 822.536C554.519 699.778 493.707 588.202 516.102 464.995C532.631 374.058 618.326 163.771 755.38 115.281" stroke="white" stroke-width="1.45842"/>
<path opacity="0.263158" d="M309.407 924.34C343.1 929.434 421.729 916.116 466.698 822.095C522.91 704.569 474.094 587.248 509.245 467.057C535.189 378.346 642.396 178.168 783.767 144.27" stroke="white" stroke-width="1.45842"/>
<path opacity="0.315789" d="M256.205 903.719C289.181 912.307 368.771 907.282 423.321 818.476C491.51 707.47 455.225 585.689 502.747 469.83C537.822 384.317 665.365 196.442 809.506 177.507" stroke="white" stroke-width="1.45842"/>
<path opacity="0.368421" d="M205.985 879.088C237.883 891.076 317.562 894.397 381.097 811.78C460.515 708.51 437.159 583.603 496.531 473.346C540.352 391.968 686.835 218.454 832.165 214.69" stroke="white" stroke-width="1.45842"/>
<path opacity="0.421053" d="M159.154 850.782C189.623 866.039 268.519 877.671 340.341 802.148C430.12 707.744 419.947 581.081 490.519 477.634C542.606 401.282 706.424 244.03 851.352 255.478" stroke="white" stroke-width="1.45842"/>
<path opacity="0.473684" d="M116.075 819.175C144.783 837.533 222.031 857.348 301.354 789.746C400.508 705.244 403.632 578.211 484.63 482.708C544.413 412.219 723.771 272.952 866.708 299.486" stroke="white" stroke-width="1.45842"/>
<path opacity="0.526316" d="M77.0724 784.677C103.705 805.935 178.457 833.716 264.413 774.776C371.856 701.102 388.241 575.091 478.779 488.577C545.602 424.724 738.535 304.968 877.915 346.297" stroke="white" stroke-width="1.45842"/>
<path opacity="0.578947" d="M42.4266 747.729C66.6907 771.655 138.13 807.098 229.775 757.465C344.332 695.425 373.798 571.818 472.883 495.241C546.015 438.723 750.409 339.79 884.706 395.462" stroke="white" stroke-width="1.45842"/>
<path opacity="0.631579" d="M12.371 708.803C34.0013 735.133 101.345 777.849 197.676 738.069C318.09 688.343 360.315 568.492 466.862 502.693C545.501 454.128 759.116 377.102 886.858 446.507" stroke="white" stroke-width="1.45842"/>
<path opacity="0.684211" d="M-12.9142 668.386C5.84532 696.833 68.3548 746.355 168.316 716.861C293.268 679.994 347.791 565.214 460.631 510.912C543.916 470.834 764.412 416.559 884.2 498.936" stroke="white" stroke-width="1.45842"/>
<path opacity="0.736842" d="M-33.3 626.986C-17.6167 657.238 39.374 713.022 141.871 694.139C269.992 670.535 336.213 562.083 454.112 519.874C541.129 488.72 766.091 457.791 876.612 552.238" stroke="white" stroke-width="1.45842"/>
<path opacity="0.789474" d="M-48.7081 585.122C-36.273 616.848 14.5745 678.283 118.484 670.217C248.37 660.135 325.565 559.199 447.23 529.545C537.027 507.658 763.99 500.413 864.032 605.895" stroke="white" stroke-width="1.45842"/>
<path opacity="0.842105" d="M-59.1196 543.314C-50.0689 576.166 -5.92173 642.58 98.2613 645.42C228.49 648.97 315.813 556.656 439.911 539.882C531.504 527.501 757.981 544.019 846.449 659.381" stroke="white" stroke-width="1.45842"/>
<path opacity="0.894737" d="M-64.5659 502.087C-58.9987 535.705 -22.0356 606.37 81.2799 620.084C210.424 637.227 306.918 554.547 432.089 550.836C524.475 548.097 747.985 588.198 823.91 712.176" stroke="white" stroke-width="1.45842"/>
<path opacity="0.947368" d="M-65.1361 461.955C-63.1135 495.971 -33.7394 570.112 67.5766 594.551C194.222 625.099 298.829 552.958 423.703 562.351C515.869 569.285 733.962 632.529 796.512 763.764" stroke="white" stroke-width="1.45842"/>
<path d="M-60.9715 423.422C-62.5156 457.463 -41.0522 534.269 57.1542 569.164C179.912 612.783 291.488 551.972 414.695 574.366C505.632 590.895 715.919 676.591 764.409 813.645" stroke="white" stroke-width="1.45842"/>
</g>
</svg>
