<svg width="1440" height="730" viewBox="0 0 1440 730" fill="none" xmlns="http://www.w3.org/2000/svg">
<g opacity="0.1">
<path d="M-343.231 289.249C85.9769 288.464 35.2174 198.706 193.588 235.395C352.652 272.235 418.221 360.874 572.58 358.124C674.943 356.311 777.789 330.955 879.972 369.336C977.66 406.025 1039.58 488.802 1129.97 538.486C1249.7 604.308 1412.96 594.517 1476.09 517.724C1510.8 475.474 1522.56 414.246 1586.41 398.077C1655.27 380.639 1744.45 428.419 1797.35 481.851C1850.25 535.313 1884.85 597.478 1945.38 646.498C2039.21 722.444 2190.07 750.883 2286.49 710.809C2382.91 670.705 2414.31 566.471 2357.45 475.142C2322.38 418.779 2260.64 371.18 2216.79 317.235C2173.57 264.045 2150.62 194.112 2195.98 158.179" stroke="#4844FF" stroke-width="0.6868" stroke-miterlimit="10" stroke-linecap="round"/>
<path d="M-342.719 287.95C-98.694 288.131 -9.69164 258.816 51.835 240.532C96.5925 227.084 126.361 219.77 193.316 234.971C313.745 262.261 380.882 319.078 474.016 343.406C503.09 350.961 534.668 355.404 571.192 354.8C673.465 353.137 776.25 328.718 878.161 367.251C881.931 368.671 885.611 370.152 889.29 371.724C980.404 410.407 1040.97 488.439 1127.52 536.28C1200.24 576.504 1289.09 589.258 1361.96 575.507C1409.13 566.622 1448.91 546.434 1473.37 516.001C1493.94 490.464 1506.31 458.127 1526.63 432.801C1540.21 415.817 1557.34 402.066 1582.58 395.357C1651.29 377.103 1740.23 424.218 1793.37 476.562C1818.73 501.525 1839.91 528.271 1861.5 554.261C1885.18 582.821 1909.09 610.745 1940.25 635.315C1960.09 650.91 1982.65 664.389 2007.08 675.842C2095.51 717.306 2203.85 731.148 2279.31 702.196C2295.17 696.121 2309.32 688.264 2321.59 678.955C2383.96 632.052 2398.5 544.772 2353.83 470.82C2320.54 415.696 2259.7 370.998 2217.66 319.35C2175.86 267.973 2154.36 199.975 2200.62 164.434" stroke="#4844FF" stroke-width="0.6823" stroke-miterlimit="10" stroke-linecap="round"/>
<path d="M-342.266 286.56C-100.563 287.376 -10.7162 258.665 51.866 240.26C96.6538 227.084 126.542 219.649 192.985 234.428C312.54 260.932 379.887 316.388 472.811 340.142C501.855 347.547 533.402 351.868 569.745 351.324C671.928 349.813 774.653 326.331 876.262 365.045C880.002 366.465 883.712 367.976 887.361 369.518C978.203 408.322 1038.76 486.022 1125.02 533.953C1197.68 574.419 1286.62 587.838 1359.7 574.238C1407.11 565.444 1446.47 544.893 1470.63 514.158C1490.92 488.439 1503.08 455.951 1523.23 430.474C1536.74 413.309 1553.78 399.497 1578.72 392.546C1647.24 373.477 1736.01 419.957 1789.36 471.183C1814.84 495.602 1836.17 521.623 1857.61 546.525C1881.2 573.906 1904.42 600.531 1935.03 624.013C1954.55 638.882 1976.86 651.696 2001.35 662.848C2089.36 702.951 2196.76 719.875 2272.04 693.492C2287.88 687.931 2301.93 680.557 2314.3 671.763C2376.82 627.156 2392.02 538.093 2350.1 466.408C2318.61 412.553 2258.68 370.727 2218.39 321.375C2178.03 271.842 2157.95 205.747 2205.09 170.57" stroke="#4844FF" stroke-width="0.6778" stroke-miterlimit="10" stroke-linecap="round"/>
<path d="M-341.874 285.049C-102.494 286.469 -11.8625 258.303 51.8054 239.868C96.563 226.903 126.663 219.438 192.563 233.763C311.273 259.482 378.831 313.548 471.513 336.758C500.527 343.981 532.015 348.242 568.237 347.728C670.299 346.368 772.994 323.823 874.302 362.718C878.041 364.169 881.721 365.65 885.37 367.221C975.941 406.146 1036.5 483.514 1122.46 531.535C1195.08 572.244 1284.09 586.297 1357.38 572.848C1405.03 564.144 1443.94 543.231 1467.82 512.194C1487.85 486.264 1499.79 453.655 1519.76 428.027C1533.18 410.65 1550.13 396.778 1574.8 389.585C1643.17 369.669 1731.72 415.545 1785.29 465.622C1810.89 489.497 1832.37 514.823 1853.69 538.607C1877.16 564.809 1899.68 590.195 1929.81 612.529C1948.97 626.703 1971.07 638.792 1995.65 649.671C2083.24 688.445 2189.73 708.422 2264.8 684.577C2280.58 679.56 2294.63 672.67 2307.03 664.359C2369.76 622.17 2385.56 531.203 2346.42 461.784C2316.74 409.199 2257.69 370.243 2219.2 323.158C2180.29 275.469 2161.6 211.278 2209.67 176.493" stroke="#4844FF" stroke-width="0.6733" stroke-miterlimit="10" stroke-linecap="round"/>
<path d="M-341.573 283.417C-104.545 285.472 -13.0692 257.85 51.6845 239.354C96.3818 226.57 126.693 219.075 192.11 232.977C309.945 257.88 377.715 310.586 470.186 333.282C499.2 340.354 530.627 344.525 566.668 344.071C668.639 342.863 771.274 321.254 872.28 360.3C876.02 361.751 879.7 363.262 883.319 364.834C973.649 403.88 1034.21 480.884 1119.8 528.997C1192.37 569.947 1281.43 584.665 1354.96 571.367C1402.86 562.724 1441.34 541.478 1464.9 510.108C1484.65 483.997 1496.47 451.267 1516.2 425.428C1529.59 407.899 1546.42 393.907 1570.79 386.472C1639.01 365.74 1727.32 410.952 1781.12 459.941C1806.85 483.272 1828.45 507.872 1849.68 530.599C1873.02 555.622 1894.89 579.739 1924.48 600.954C1943.3 614.433 1965.16 625.826 1989.8 636.434C2076.94 673.879 2182.53 696.907 2257.38 675.601C2273.13 671.098 2287.12 664.722 2299.58 656.864C2362.55 617.062 2378.96 524.252 2342.56 457.1C2314.72 405.784 2256.54 369.699 2219.8 324.911C2182.31 279.065 2165.06 216.779 2214.04 182.386" stroke="#4844FF" stroke-width="0.6688" stroke-miterlimit="10" stroke-linecap="round"/>
<path d="M-341.362 281.664C-106.656 284.354 -14.396 257.245 51.4435 238.719C96.1106 226.147 126.602 218.622 191.507 232.07C308.498 256.187 376.479 307.503 468.708 329.656C497.692 336.546 529.059 340.656 564.979 340.233C666.86 339.175 769.435 318.504 870.17 357.731C873.879 359.182 877.559 360.693 881.178 362.265C971.236 401.432 1031.8 478.104 1117.09 526.307C1189.63 567.499 1278.75 582.882 1352.49 569.735C1400.63 561.183 1438.69 539.574 1461.94 507.902C1481.45 481.579 1493.07 448.728 1512.58 422.738C1525.88 405.028 1542.62 390.945 1566.72 383.299C1634.79 361.721 1722.89 406.328 1776.9 454.168C1802.75 476.985 1824.5 500.83 1845.58 522.469C1868.83 546.314 1889.97 569.161 1919.08 589.258C1937.54 602.012 1959.16 612.74 1983.92 623.046C2070.6 659.161 2175.32 685.242 2249.96 666.474C2265.65 662.515 2279.64 656.622 2292.13 649.248C2355.34 611.834 2372.38 517.18 2338.66 452.264C2312.67 402.217 2255.33 368.974 2220.41 326.513C2184.37 282.48 2168.53 222.128 2218.42 188.128" stroke="#4844FF" stroke-width="0.6643" stroke-miterlimit="10" stroke-linecap="round"/>
<path d="M-341.241 279.79C-108.887 283.115 -15.8133 256.52 51.1421 237.964C95.7791 225.603 126.482 218.018 190.844 231.043C306.96 254.344 375.152 304.3 467.171 325.908C496.124 332.618 527.461 336.637 563.2 336.274C664.96 335.368 767.505 315.633 867.938 355.042C871.648 356.493 875.297 358.034 878.916 359.605C968.733 398.893 1029.26 475.233 1114.23 523.527C1186.7 564.96 1275.91 581.008 1349.87 567.982C1398.24 559.52 1435.88 537.549 1458.83 505.575C1478.08 479.071 1489.51 446.069 1508.84 419.927C1522.08 402.036 1538.7 387.862 1562.53 379.975C1630.42 357.55 1718.3 401.553 1772.56 448.275C1798.53 470.548 1820.39 493.668 1841.39 514.218C1864.52 536.885 1885 558.463 1913.56 577.442C1931.68 589.5 1953.07 599.503 1977.89 609.537C2064.12 644.352 2167.93 673.455 2242.39 657.257C2258.02 653.811 2272.01 648.432 2284.53 641.542C2348.01 606.545 2365.69 510.078 2334.65 447.338C2310.53 398.591 2254.04 368.188 2220.86 328.024C2186.27 285.835 2171.85 227.386 2222.61 193.78" stroke="#4844FF" stroke-width="0.6598" stroke-miterlimit="10" stroke-linecap="round"/>
<path d="M-341.18 277.766C-111.149 281.695 -17.291 255.644 50.7502 237.058C95.3268 224.878 126.241 217.293 190.12 229.835C305.392 252.35 373.795 300.916 465.572 321.98C494.526 328.538 525.772 332.467 561.391 332.134C663.061 331.379 765.575 312.581 865.676 352.171C869.386 353.622 873.035 355.163 876.624 356.765C966.17 396.174 1026.7 472.181 1111.36 520.535C1183.8 562.211 1273.08 578.923 1347.24 566.049C1395.89 557.677 1432.96 535.283 1455.73 503.067C1474.61 476.321 1485.92 443.229 1505.07 416.936C1518.22 398.863 1534.78 384.569 1558.3 376.469C1626.04 353.168 1713.72 396.597 1768.16 442.201C1794.25 463.93 1816.26 486.324 1837.13 505.817C1860.15 527.274 1879.96 547.614 1908.01 565.474C1925.8 576.808 1946.92 586.146 1971.86 595.877C2057.6 629.393 2160.57 661.518 2234.82 647.858C2250.42 644.957 2264.35 640.061 2276.9 633.654C2340.63 601.045 2358.96 502.795 2330.61 442.261C2308.38 394.844 2252.59 367.312 2221.31 329.354C2188.08 289.069 2175.14 232.464 2226.83 199.25" stroke="#4844FF" stroke-width="0.6553" stroke-miterlimit="10" stroke-linecap="round"/>
<path d="M-341.241 275.619C-113.532 280.183 -18.8901 254.616 50.2369 236.029C94.7834 224.031 125.909 216.416 189.245 228.534C303.642 250.264 372.256 297.439 463.822 317.99C492.746 324.367 523.931 328.235 559.4 327.963C660.949 327.359 763.433 309.498 863.233 349.239C866.912 350.72 870.562 352.231 874.151 353.833C963.455 393.332 1024.02 468.886 1108.28 517.482C1180.73 559.278 1270 576.777 1344.41 564.053C1393.3 555.773 1429.94 533.016 1452.38 500.498C1470.99 473.54 1482.12 440.327 1501.06 413.853C1514.15 395.599 1530.59 381.213 1553.84 372.902C1621.43 348.755 1708.89 391.549 1763.54 436.035C1789.75 457.251 1811.89 478.889 1832.64 497.294C1855.53 517.573 1874.68 536.642 1902.19 553.415C1919.65 564.053 1940.52 572.697 1965.52 582.156C2050.79 614.372 2152.88 649.52 2226.92 638.398C2242.45 636.041 2256.39 631.629 2268.96 625.675C2332.96 595.454 2352 495.481 2326.24 437.063C2305.94 390.975 2250.9 366.254 2221.4 330.592C2189.58 292.151 2178.09 237.45 2230.69 204.629" stroke="#4844FF" stroke-width="0.6509" stroke-miterlimit="10" stroke-linecap="round"/>
<path d="M-341.362 273.353C-116.005 278.551 -20.5487 253.497 49.6941 234.881C94.1803 223.064 125.517 215.418 188.34 227.114C301.893 248.027 370.718 294.024 462.043 313.85C490.936 320.136 522.092 323.823 557.409 323.611C658.868 323.158 761.291 306.234 860.82 346.156C864.499 347.637 868.119 349.179 871.708 350.78C960.74 390.401 1021.33 465.592 1105.27 514.309C1177.68 556.317 1267.02 574.48 1341.63 561.908C1390.76 553.718 1426.95 530.598 1449.12 497.747C1467.46 470.609 1478.41 437.244 1497.17 410.619C1510.17 392.154 1526.51 377.677 1549.5 369.155C1616.9 344.132 1704.1 386.442 1759.05 429.719C1785.35 450.421 1807.64 471.304 1828.3 488.651C1851.04 507.751 1869.55 525.551 1896.55 541.206C1913.68 551.119 1934.28 559.097 1959.4 568.254C2044.18 599.171 2145.43 637.341 2219.26 628.758C2234.76 626.914 2248.67 623.016 2261.27 617.545C2325.54 589.711 2345.27 488.077 2322.14 431.713C2303.77 386.955 2249.48 365.045 2221.79 331.68C2191.39 295.082 2181.35 242.285 2234.82 209.858" stroke="#4844FF" stroke-width="0.6464" stroke-miterlimit="10" stroke-linecap="round"/>
<path d="M-341.573 270.966C-118.539 276.798 -22.298 252.259 49.0307 233.612C93.4866 222.007 125.034 214.331 187.345 225.573C300.023 245.7 369.09 290.338 460.173 309.589C489.066 315.693 520.131 319.32 555.298 319.139C656.666 318.867 759.03 302.849 858.256 342.953C861.936 344.434 865.555 345.975 869.144 347.577C957.935 387.318 1018.5 462.177 1102.1 510.985C1174.48 553.234 1263.88 572.062 1338.71 559.641C1388.08 551.542 1423.82 528.06 1445.71 494.907C1463.78 467.556 1474.55 434.071 1493.1 407.295C1506 388.648 1522.29 374.081 1544.97 365.317C1612.23 339.417 1699.18 381.153 1754.37 423.282C1780.79 443.47 1803.2 463.597 1823.77 479.857C1846.39 497.748 1864.25 514.309 1890.7 528.846C1907.5 538.063 1927.82 545.347 1953.04 554.201C2037.34 583.849 2137.74 625.01 2211.36 618.996C2226.8 617.697 2240.7 614.282 2253.34 609.295C2317.88 583.849 2338.33 480.582 2317.79 426.274C2301.39 382.906 2247.82 363.746 2221.91 332.648C2192.93 297.893 2184.31 246.97 2238.71 214.935" stroke="#4844FF" stroke-width="0.6419" stroke-miterlimit="10" stroke-linecap="round"/>
<path d="M-341.875 268.487C-121.163 274.924 -24.138 250.898 48.3066 232.252C92.7023 220.828 124.461 213.121 186.259 223.941C298.093 243.282 367.34 286.56 458.213 305.267C487.076 311.22 518.11 314.756 553.126 314.635C654.374 314.514 756.707 299.434 855.632 339.689C859.282 341.17 862.901 342.741 866.49 344.343C955.01 384.205 1015.6 458.701 1098.87 507.6C1171.2 550.061 1260.68 569.584 1335.72 557.314C1385.33 549.305 1420.65 525.43 1442.25 492.005C1460.04 464.443 1470.6 430.837 1488.96 403.91C1501.81 385.082 1517.98 370.394 1540.39 361.448C1607.49 334.642 1694.23 375.834 1749.64 416.844C1776.18 436.488 1798.71 455.891 1819.16 471.062C1841.66 487.774 1858.85 503.066 1884.79 516.485C1901.25 524.977 1921.31 531.595 1946.61 540.178C2030.4 568.556 2129.96 612.71 2203.37 609.234C2218.78 608.449 2232.62 605.547 2245.32 601.044C2310.13 577.985 2331.34 473.147 2313.33 420.803C2298.91 378.856 2246.07 362.416 2221.95 333.614C2194.38 300.703 2187.2 251.684 2242.51 220.042" stroke="#4844FF" stroke-width="0.6374" stroke-miterlimit="10" stroke-linecap="round"/>
<path d="M-341.301 269.062C-122.941 276.134 -25.102 252.622 48.4283 233.945C92.7938 222.672 124.733 214.996 186.019 225.362C296.978 243.888 366.467 285.805 457.098 303.968C485.931 309.74 516.905 313.185 551.77 313.125C652.927 313.155 755.2 299.012 853.824 339.448C857.473 340.959 861.092 342.5 864.651 344.132C952.93 384.115 1013.49 458.279 1096.43 507.268C1168.73 549.971 1258.24 570.159 1333.52 558.01C1383.37 550.062 1418.24 525.854 1439.53 492.127C1457.06 464.384 1467.43 430.626 1485.62 403.518C1498.38 384.508 1514.45 369.7 1536.59 360.543C1603.51 332.86 1690.04 373.477 1745.69 413.37C1772.35 432.5 1795 451.147 1815.36 465.26C1837.71 480.764 1854.26 494.817 1879.69 507.117C1895.83 514.914 1915.61 520.837 1941.04 529.118C2024.31 556.227 2123.05 603.372 2196.25 602.435C2211.6 602.194 2225.44 599.776 2238.17 595.756C2303.29 575.115 2325.21 468.735 2309.77 418.296C2297.35 377.769 2245.17 364.048 2222.85 337.544C2196.7 306.476 2190.97 259.361 2247.19 228.112" stroke="#4844FF" stroke-width="0.6329" stroke-miterlimit="10" stroke-linecap="round"/>
<path d="M-341.935 269.545C-125.898 277.252 -27.2743 254.223 47.3418 235.546C91.647 224.455 123.828 216.748 184.6 226.691C294.715 244.431 364.385 284.989 454.805 302.577C483.638 308.199 514.522 311.553 549.266 311.523C650.333 311.704 752.545 298.498 850.897 339.115C854.547 340.626 858.136 342.198 861.695 343.8C949.702 383.903 1010.26 457.704 1092.9 506.814C1165.17 549.759 1254.74 570.612 1330.23 558.614C1380.33 550.756 1414.77 526.186 1435.76 492.157C1453.01 464.202 1463.18 430.324 1481.18 403.064C1493.88 383.873 1509.84 368.944 1531.7 359.575C1598.45 330.986 1684.79 371.059 1740.65 409.803C1767.43 428.389 1790.2 446.281 1810.44 459.336C1832.64 473.661 1848.59 486.475 1873.45 497.627C1889.25 504.729 1908.76 509.957 1934.28 517.936C2017.04 543.805 2114.94 593.913 2187.95 595.514C2203.28 595.817 2217.09 593.882 2229.85 590.316C2295.26 572.062 2317.97 464.232 2305.01 415.666C2294.6 376.62 2243.09 365.589 2222.58 341.352C2197.85 312.158 2193.53 266.916 2250.66 236.06" stroke="#4844FF" stroke-width="0.6284" stroke-miterlimit="10" stroke-linecap="round"/>
<path d="M-343.986 269.908C-130.271 278.249 -30.8935 255.704 44.8686 237.027C89.1135 226.117 121.505 218.38 181.765 227.9C291.005 244.824 360.916 284.021 451.095 301.096C479.898 306.536 510.752 309.83 545.315 309.83C646.261 310.163 748.444 297.893 846.494 338.692C850.113 340.203 853.702 341.774 857.261 343.406C945.027 383.631 1005.59 457.1 1087.87 506.27C1160.07 549.426 1249.73 570.944 1325.44 559.127C1375.77 551.36 1409.76 526.428 1430.48 492.096C1447.46 463.96 1457.45 429.9 1475.27 402.52C1487.88 383.117 1503.74 368.097 1525.34 358.547C1591.93 329.051 1678.04 368.581 1734.14 406.207C1761.04 424.249 1783.93 441.415 1804.08 453.382C1826.15 466.499 1841.45 478.073 1865.78 488.107C1881.26 494.484 1900.5 499.077 1926.14 506.723C2008.38 531.354 2105.47 584.453 2178.27 588.593C2193.53 589.409 2207.35 587.989 2220.14 584.906C2285.88 569.04 2309.35 459.85 2298.88 413.037C2290.5 375.502 2239.65 367.1 2220.92 345.129C2197.61 317.779 2194.74 274.441 2252.77 243.978" stroke="#4844FF" stroke-width="0.6239" stroke-miterlimit="10" stroke-linecap="round"/>
<path d="M-346.066 270.21C-134.704 279.156 -34.5125 257.124 42.3354 238.447C86.5199 227.719 119.153 219.982 178.87 229.049C287.266 245.187 357.388 283.024 447.325 299.525C476.098 304.814 506.891 307.987 541.334 308.078C642.19 308.561 744.312 297.228 842.061 338.178C845.68 339.689 849.269 341.261 852.798 342.923C940.292 383.269 1000.85 456.375 1082.83 505.666C1155 549.064 1244.73 571.246 1320.64 559.551C1371.22 551.874 1404.79 526.579 1425.21 491.915C1441.91 463.567 1451.72 429.387 1469.33 401.855C1481.85 382.271 1497.62 367.131 1518.94 357.369C1585.36 326.966 1671.28 365.952 1727.59 402.429C1754.61 419.958 1777.6 436.368 1797.68 447.278C1819.58 459.185 1834.3 469.521 1858.06 478.436C1873.2 484.118 1892.18 488.016 1917.9 495.391C1999.64 518.782 2095.88 574.843 2168.47 581.522C2183.7 582.882 2197.52 581.945 2210.3 579.346C2276.38 565.897 2300.6 455.407 2292.64 410.257C2286.28 374.293 2236.09 368.46 2219.17 348.786C2197.24 323.309 2195.86 281.845 2254.79 251.775" stroke="#4844FF" stroke-width="0.6194" stroke-miterlimit="10" stroke-linecap="round"/>
<path d="M-348.147 270.422C-139.108 280.002 -38.1618 258.454 39.8322 239.777C83.9565 229.199 116.801 221.463 176.035 230.106C283.556 245.459 353.889 281.906 443.616 297.863C472.388 302.97 503.121 306.083 537.383 306.204C638.118 306.838 740.21 296.442 837.657 337.574C841.277 339.115 844.835 340.687 848.364 342.318C935.617 382.785 996.149 455.558 1077.79 504.94C1149.93 548.58 1239.69 571.428 1315.85 559.883C1366.67 552.297 1399.78 526.639 1419.9 491.673C1436.31 463.144 1445.93 428.812 1463.36 401.13C1475.81 381.365 1491.47 366.103 1512.52 356.13C1578.75 324.79 1664.5 363.262 1720.99 398.621C1748.13 415.606 1771.2 431.26 1791.2 441.113C1812.94 451.811 1827.06 460.908 1850.28 468.735C1865.12 473.722 1883.79 476.925 1909.64 483.997C1990.83 506.179 2086.32 565.293 2158.67 574.389C2173.84 576.293 2187.65 575.84 2200.47 573.724C2266.88 562.694 2282.78 448.789 2286.37 407.416C2275 372.6 2232.5 369.79 2217.36 352.382C2196.82 328.749 2196.88 289.189 2256.75 259.512" stroke="#4844FF" stroke-width="0.6149" stroke-miterlimit="10" stroke-linecap="round"/>
<path d="M-350.289 270.512C-143.572 280.727 -41.8418 259.663 37.238 240.986C81.3019 230.59 114.388 222.853 173.079 231.043C279.755 245.58 350.3 280.697 439.785 296.08C468.528 301.036 499.2 304.058 533.342 304.209C633.986 304.995 736.017 295.536 833.193 336.848C836.782 338.39 840.341 339.961 843.87 341.623C930.852 382.181 991.413 454.622 1072.72 504.094C1144.84 547.946 1234.65 571.488 1311.02 560.064C1362.08 552.569 1394.77 526.549 1414.59 491.28C1430.73 462.54 1440.17 428.087 1457.42 400.223C1469.78 380.247 1485.35 364.894 1506.13 354.74C1572.18 322.493 1657.71 360.421 1714.44 394.662C1741.71 411.133 1764.87 426.032 1784.8 434.827C1806.4 444.346 1819.91 452.204 1842.56 458.883C1857.07 463.174 1875.47 465.713 1901.4 472.452C1982.08 493.456 2076.72 555.471 2148.9 567.136C2164.04 569.584 2177.82 569.614 2190.67 567.982C2257.41 559.339 2273.37 443.651 2280.15 404.484C2270.26 370.999 2228.94 370.999 2215.64 355.858C2196.49 334.129 2198.03 296.412 2258.77 267.127" stroke="#4844FF" stroke-width="0.6105" stroke-miterlimit="10" stroke-linecap="round"/>
<path d="M-352.491 270.421C-148.126 281.271 -45.612 260.69 34.5837 242.013C78.5873 231.768 111.884 224.031 170.063 231.798C275.865 245.549 346.62 279.276 435.864 294.145C464.576 298.92 495.219 301.882 529.179 302.094C629.733 303.03 731.704 294.508 828.578 335.972C832.167 337.513 835.726 339.115 839.225 340.747C925.935 381.425 986.497 453.533 1067.48 503.097C1139.53 547.19 1229.44 571.397 1306.01 560.125C1357.31 552.72 1389.56 526.337 1409.1 490.766C1424.96 461.844 1434.19 427.241 1451.26 399.225C1463.54 379.068 1479.01 363.564 1499.52 353.228C1565.39 320.045 1650.74 357.459 1707.68 390.552C1735.1 406.479 1758.32 420.652 1778.2 428.359C1799.61 436.67 1812.55 443.288 1834.66 448.849C1848.86 452.415 1866.96 454.319 1892.99 460.756C1973.12 480.551 2066.95 545.528 2138.94 559.701C2154.02 562.663 2167.81 563.237 2180.69 562.029C2247.79 555.833 2263.78 438.332 2273.76 401.311C2265.34 369.185 2225.23 371.996 2213.71 359.121C2195.92 339.266 2198.96 303.423 2260.61 274.501" stroke="#4844FF" stroke-width="0.606" stroke-miterlimit="10" stroke-linecap="round"/>
<path d="M-355.598 267.248C-153.556 278.702 -50.2573 258.604 31.0543 239.958C74.9976 229.864 108.505 222.157 166.172 229.471C271.129 242.436 342.095 274.773 431.098 289.098C459.81 293.722 490.362 296.563 524.202 296.835C624.635 297.923 726.607 290.337 823.149 331.982C826.738 333.523 830.267 335.125 833.765 336.787C920.234 377.586 980.766 449.362 1061.44 499.016C1133.47 543.351 1223.4 568.223 1300.22 557.102C1351.77 549.788 1383.58 523.042 1402.83 487.169C1418.42 458.066 1427.44 423.281 1444.33 395.145C1456.54 374.806 1471.89 359.182 1492.13 348.664C1557.79 314.514 1642.99 351.445 1700.14 383.419C1727.68 398.832 1750.99 412.22 1770.78 418.869C1792.01 426.001 1804.38 431.35 1825.91 435.793C1839.82 438.664 1857.58 439.873 1883.76 446.008C1963.35 464.624 2056.4 532.502 2128.15 549.214C2143.2 552.72 2156.98 553.778 2169.83 553.052C2237.3 549.275 2253.28 429.96 2266.46 395.115C2259.52 364.319 2220.62 369.971 2210.91 359.363C2194.47 341.411 2199.02 307.382 2261.57 278.883" stroke="#4844FF" stroke-width="0.6015" stroke-miterlimit="10" stroke-linecap="round"/>
<path d="M-358.734 264.045C-159.044 276.133 -54.9618 256.52 27.4657 237.873C71.3486 227.96 105.098 220.224 162.251 227.114C266.334 239.263 337.512 270.27 426.303 284.021C454.985 288.464 485.477 291.244 519.166 291.546C619.508 292.785 721.419 286.137 817.66 327.963C821.219 329.505 824.778 331.137 828.277 332.799C914.474 373.719 975.005 445.132 1055.35 494.877C1127.37 539.453 1217.37 564.99 1294.4 554.02C1346.19 546.767 1377.58 519.688 1396.49 483.513C1411.84 454.198 1420.65 419.293 1437.36 391.005C1449.48 370.455 1464.71 354.709 1484.71 344.011C1550.19 308.924 1635.18 345.341 1692.57 376.167C1720.23 391.036 1743.61 403.698 1763.36 409.289C1784.41 415.243 1796.2 419.323 1817.2 422.647C1830.8 424.793 1848.26 425.367 1874.53 431.17C1953.58 448.638 2045.81 519.386 2117.38 538.637C2132.37 542.687 2145.94 543.473 2159.03 543.987C2228.07 546.706 2242.88 421.499 2259.25 388.86C2253.79 359.424 2216.06 367.886 2208.16 359.545C2193.02 343.558 2199.11 311.311 2262.57 283.205" stroke="#4844FF" stroke-width="0.597" stroke-miterlimit="10" stroke-linecap="round"/>
<path d="M-361.84 260.842C-164.473 273.565 -59.6362 254.404 23.9374 235.788C67.76 226.026 101.75 218.411 158.361 224.757C261.629 236.302 332.988 265.737 421.538 278.974C450.19 283.266 480.652 285.956 514.19 286.288C614.442 287.678 716.293 281.966 812.262 323.974C815.821 325.546 819.35 327.147 822.848 328.81C908.805 369.85 969.336 440.931 1049.35 490.767C1121.28 535.555 1211.37 561.757 1288.61 550.938C1340.64 543.775 1371.58 516.334 1390.22 479.826C1405.3 450.33 1413.9 415.273 1430.42 386.805C1442.46 366.073 1457.6 350.206 1477.32 339.297C1542.59 303.242 1627.43 339.176 1685.04 368.883C1712.81 383.208 1736.28 395.146 1755.97 399.649C1776.84 404.424 1788.09 407.234 1808.48 409.441C1821.78 410.891 1838.94 410.801 1865.33 416.271C1943.84 432.59 2035.25 506.21 2106.64 528.03C2121.6 532.593 2135.17 533.893 2148.26 534.89C2217.54 540.179 2232.5 413.007 2252.08 382.543C2248.09 354.437 2211.57 365.771 2205.48 359.636C2191.54 345.673 2199.29 315.15 2263.66 287.436" stroke="#4844FF" stroke-width="0.5925" stroke-miterlimit="10" stroke-linecap="round"/>
<path d="M-364.977 257.668C-169.932 271.026 -64.3415 252.349 20.3481 233.733C64.1104 224.122 98.3119 216.537 154.41 222.43C256.833 233.189 328.403 261.234 416.712 273.927C445.364 278.037 475.735 280.636 509.123 281.06C609.254 282.631 711.075 277.826 806.742 319.985C810.301 321.556 813.8 323.188 817.299 324.85C902.983 366.012 963.515 436.761 1043.2 486.687C1115.1 531.717 1205.25 558.583 1282.7 547.915C1334.97 540.843 1365.49 513.04 1383.83 476.23C1398.63 446.522 1407.05 411.314 1423.4 382.725C1435.37 361.811 1450.39 345.794 1469.84 334.733C1534.9 297.712 1619.59 333.131 1677.4 361.751C1705.3 375.562 1728.83 386.774 1748.46 390.159C1769.15 393.755 1779.86 395.267 1799.67 396.385C1812.67 397.11 1829.5 396.385 1856.01 401.553C1933.98 416.724 2024.61 493.214 2095.76 517.573C2110.65 522.68 2124.44 525.249 2137.35 525.914C2205.99 529.51 2221.98 404.635 2244.72 376.348C2242.21 349.602 2206.89 363.806 2202.58 359.877C2189.67 348.151 2199.26 319.139 2264.53 291.818" stroke="#4844FF" stroke-width="0.588" stroke-miterlimit="10" stroke-linecap="round"/>
<path d="M-368.083 254.495C-175.39 268.458 -69.0152 250.264 16.7903 231.708C60.4923 222.249 94.9351 214.663 150.52 220.134C252.069 230.107 323.85 256.762 411.948 268.911C440.57 272.87 470.911 275.378 504.147 275.832C604.188 277.554 705.948 273.686 801.315 316.026C804.843 317.598 808.372 319.23 811.841 320.922C897.284 362.205 957.785 432.621 1037.17 482.607C1109.01 527.879 1199.22 555.411 1276.91 544.863C1329.42 537.882 1359.52 509.716 1377.55 472.604C1392.09 442.715 1400.29 407.356 1416.46 378.615C1428.34 357.49 1443.24 341.352 1462.45 330.11C1527.3 292.121 1611.84 327.057 1669.86 354.528C1697.88 367.796 1721.47 378.283 1741.07 380.61C1761.58 383.027 1772.2 384.69 1790.96 383.299C1803.32 382.362 1820.18 381.939 1846.81 386.775C1924.27 400.798 2014.05 480.159 2085.02 507.056C2099.86 512.678 2113.67 515.79 2126.58 516.909C2195.62 522.983 2211.6 396.234 2237.54 370.153C2236.54 344.737 2202.79 361.328 2199.9 360.119C2189.76 349.149 2199.42 323.128 2265.62 296.201" stroke="#4844FF" stroke-width="0.5835" stroke-miterlimit="10" stroke-linecap="round"/>
<path d="M-371.22 251.322C-180.849 265.919 -73.7204 248.179 13.2312 229.653C56.8427 220.345 91.5267 212.76 146.599 217.776C247.304 226.964 319.296 252.259 407.152 263.834C435.744 267.612 466.025 270.06 499.11 270.543C599.031 272.417 700.761 269.516 795.825 312.007C799.354 313.579 802.853 315.211 806.321 316.903C891.493 358.306 951.994 428.36 1031.04 478.467C1102.86 523.981 1193.12 552.177 1271.03 541.781C1323.78 534.891 1353.43 506.361 1371.16 468.947C1385.43 438.877 1393.42 403.367 1409.4 374.475C1421.2 353.169 1436 336.91 1454.94 325.456C1519.58 286.47 1603.94 320.953 1662.2 347.306C1690.34 360.029 1714.02 369.821 1733.53 371.03C1753.86 372.299 1763.45 371.211 1782.12 370.153C1794.52 369.428 1810.74 367.463 1837.46 371.936C1914.37 384.841 2003.35 467.043 2074.13 496.479C2088.94 502.644 2102.72 506.241 2115.66 507.842C2185.09 516.395 2201.08 387.772 2230.21 363.867C2230.69 339.811 2198.15 359.153 2197.03 360.241C2188.32 351.114 2199.42 326.997 2266.49 300.462" stroke="#4844FF" stroke-width="0.579" stroke-miterlimit="10" stroke-linecap="round"/>
<path d="M-374.326 248.149C-186.278 263.38 -78.3956 246.093 9.67192 227.598C53.2231 218.441 88.1485 210.885 142.678 215.449C242.508 223.82 314.711 247.756 402.356 258.817C430.948 262.413 461.169 264.77 494.103 265.345C593.933 267.369 695.603 265.405 790.396 308.048C793.925 309.649 797.393 311.281 800.862 312.974C885.793 354.468 946.294 424.219 1025.01 474.417C1096.79 520.172 1187.12 549.034 1265.24 538.789C1318.23 531.989 1347.45 503.097 1364.89 465.381C1378.88 435.099 1386.69 399.437 1402.5 370.394C1414.2 348.907 1428.89 332.497 1447.58 320.892C1511.98 280.939 1596.21 314.938 1654.69 340.173C1682.98 352.382 1706.36 360.119 1726.17 361.54C1746.68 363.02 1755.34 359.243 1773.46 357.097C1785.56 355.646 1801.45 353.047 1828.3 357.218C1904.66 369.035 1992.85 454.048 2063.42 486.052C2078.17 492.731 2091.99 496.871 2104.92 498.926C2174.77 509.988 2190.73 379.461 2223.03 357.732C2224.99 335.005 2193.69 357.157 2194.32 360.542C2187.05 353.259 2199.57 331.046 2267.55 304.904" stroke="#4844FF" stroke-width="0.5745" stroke-miterlimit="10" stroke-linecap="round"/>
<path d="M-377.433 245.005C-191.737 260.872 -83.0705 244.038 6.14311 225.573C49.634 216.567 84.7705 209.012 138.817 213.152C237.803 220.738 310.217 243.283 397.621 253.8C426.183 257.245 456.343 259.512 489.127 260.116C588.866 262.292 690.476 261.265 784.967 304.088C788.496 305.69 791.965 307.322 795.403 309.045C880.062 350.66 940.563 420.079 1018.98 470.337C1090.7 516.334 1181.12 545.83 1259.45 535.736C1312.68 529.027 1341.48 499.773 1358.61 461.724C1372.34 431.26 1379.94 395.448 1395.56 366.254C1407.17 344.555 1421.77 328.024 1440.2 316.237C1504.38 275.287 1588.46 308.833 1647.12 332.92C1675.53 344.585 1699.33 352.957 1718.75 351.959C1738.72 350.932 1747.2 347.184 1764.72 343.951C1776.51 341.775 1792.1 338.571 1819.07 342.379C1894.89 353.077 1982.26 440.931 2052.63 475.475C2067.34 482.697 2081.16 487.352 2094.1 489.86C2164.37 503.429 2180.26 371.029 2215.79 351.476C2219.23 330.109 2189.13 355.042 2191.57 360.723C2185.75 355.284 2199.66 334.975 2268.57 309.196" stroke="#4844FF" stroke-width="0.5701" stroke-miterlimit="10" stroke-linecap="round"/>
<path d="M-380.569 241.832C-197.196 258.303 -87.7751 241.923 2.55442 223.518C45.985 214.663 81.3628 207.138 134.867 210.825C232.978 217.625 305.633 238.78 392.796 248.753C421.327 252.017 451.427 254.223 484.091 254.858C583.709 257.185 685.289 257.094 779.479 300.1C782.977 301.701 786.446 303.363 789.884 305.056C874.302 346.792 934.773 415.878 1012.86 466.227C1084.55 512.466 1175 542.627 1253.57 532.684C1307.04 526.035 1335.42 496.449 1352.25 458.098C1365.7 427.453 1373.09 391.489 1388.53 362.144C1400.05 340.264 1414.53 323.582 1432.72 311.614C1496.66 269.666 1580.62 302.729 1639.49 325.727C1668.03 336.849 1691.91 344.555 1711.24 342.41C1731.03 340.234 1738.93 335.126 1755.91 330.835C1767.37 327.934 1782.69 324.126 1809.75 327.571C1885.03 337.212 1971.59 427.846 2041.77 464.928C2056.43 472.695 2070.24 477.862 2083.21 480.794C2153.87 496.902 2169.77 362.567 2208.49 345.19C2213.41 325.153 2184.55 352.896 2188.74 360.845C2184.37 357.218 2199.69 338.843 2269.51 313.457" stroke="#4844FF" stroke-width="0.5656" stroke-miterlimit="10" stroke-linecap="round"/>
<path d="M-383.676 238.689C-202.625 255.795 -92.4503 239.868 -1.00484 221.493C42.3352 212.789 77.9543 205.264 130.946 208.528C228.212 214.512 301.049 234.307 388 243.766C416.532 246.879 446.571 248.995 479.053 249.66C578.582 252.138 680.101 252.984 773.989 296.17C777.488 297.772 780.956 299.434 784.364 301.157C868.511 343.014 928.982 411.768 1006.76 462.207C1078.39 508.688 1168.94 539.514 1247.71 529.722C1301.43 523.164 1329.36 493.215 1345.88 454.561C1359.06 423.705 1366.24 387.59 1381.53 358.124C1392.99 336.033 1407.32 319.199 1425.27 307.111C1488.96 264.136 1572.78 296.775 1631.89 318.625C1660.55 329.233 1684.52 336.214 1703.79 332.98C1723.43 329.656 1730.76 323.219 1747.13 317.839C1758.29 314.182 1773.28 309.77 1800.49 312.883C1875.22 321.436 1961 414.88 2030.97 454.501C2045.6 462.781 2059.41 468.493 2072.38 471.878C2143.47 490.525 2159.33 354.256 2201.23 339.055C2207.62 320.378 2179.96 350.902 2185.96 361.147C2183.01 359.364 2199.78 342.893 2270.47 317.9" stroke="#4844FF" stroke-width="0.5611" stroke-miterlimit="10" stroke-linecap="round"/>
<path d="M-386.782 235.516C-208.084 253.256 -97.1549 237.752 -4.53322 219.438C38.7465 210.855 74.6069 203.39 127.085 206.201C223.477 211.399 296.555 229.804 383.265 238.719C411.767 241.651 441.746 243.676 474.077 244.431C573.515 247.06 674.974 248.843 768.591 292.181C772.089 293.813 775.528 295.475 778.936 297.168C862.841 339.145 923.282 407.567 1000.73 458.097C1072.33 504.819 1162.93 536.31 1241.92 526.639C1295.88 520.172 1323.39 489.86 1339.61 450.904C1352.55 419.867 1359.52 383.601 1374.6 353.984C1385.97 331.711 1400.17 314.726 1417.88 302.456C1481.3 258.454 1565.03 290.67 1624.35 311.402C1653.13 321.466 1677.19 327.782 1696.41 323.4C1715.86 318.957 1722.61 311.13 1738.45 304.693C1749.31 300.28 1763.99 295.324 1791.29 298.074C1865.51 305.569 1950.44 401.794 2020.23 443.984C2034.8 452.808 2048.65 459.034 2061.61 462.872C2133.09 484.057 2148.96 345.854 2194.05 332.829C2201.92 315.482 2175.5 348.816 2183.25 361.358C2181.74 361.418 2199.93 346.821 2271.53 322.251" stroke="#4844FF" stroke-width="0.5566" stroke-miterlimit="10" stroke-linecap="round"/>
<path d="M-389.89 232.373C-213.513 250.747 -101.83 235.697 -8.09289 217.413C35.1265 208.981 71.198 201.516 123.164 203.904C218.711 208.286 291.97 225.331 378.469 233.702C406.94 236.452 436.889 238.417 469.07 239.203C568.387 241.983 669.816 244.703 763.131 288.222C766.599 289.854 770.038 291.516 773.446 293.239C857.08 335.337 917.551 403.426 994.67 454.017C1066.21 500.981 1156.9 533.137 1236.1 523.617C1290.3 517.24 1317.38 486.566 1333.31 447.308C1345.97 416.089 1352.73 379.642 1367.66 349.874C1378.94 327.389 1393.05 310.284 1410.49 297.832C1473.67 252.802 1557.28 284.565 1616.81 304.209C1645.71 313.729 1669.86 319.38 1688.99 313.85C1708.29 308.289 1714.44 299.071 1729.7 291.576C1740.23 286.439 1754.64 280.878 1782.06 283.266C1855.74 289.703 1939.86 388.678 2009.44 433.436C2023.97 442.775 2037.79 449.544 2050.79 453.836C2122.69 477.59 2138.52 337.422 2186.81 326.603C2196.16 310.616 2170.94 346.7 2180.5 361.569C2180.44 363.473 2200.02 350.78 2272.55 326.603" stroke="#4844FF" stroke-width="0.5521" stroke-miterlimit="10" stroke-linecap="round"/>
<path d="M-392.995 229.26C-218.942 248.239 -106.505 233.642 -11.621 215.419C31.5079 207.138 67.8508 199.673 119.274 201.638C213.976 205.234 287.447 220.889 373.704 228.746C402.176 231.345 432.034 233.219 464.064 234.035C563.291 236.967 664.689 240.623 757.673 284.324C761.141 285.956 764.579 287.648 767.987 289.371C851.38 331.59 911.821 399.347 988.608 450.028C1060.12 497.234 1150.84 530.055 1230.28 520.686C1284.72 514.4 1311.38 483.362 1327 443.802C1339.4 412.372 1345.95 375.804 1360.69 345.885C1371.88 323.219 1385.88 305.962 1403.07 293.36C1465.98 247.302 1549.5 278.642 1609.24 297.138C1638.29 306.113 1662.54 311.1 1681.57 304.451C1700.72 297.742 1706.24 287.134 1720.99 278.642C1731.21 272.749 1745.33 266.614 1772.83 268.639C1846 274.048 1929.3 375.774 1998.67 423.071C2013.15 432.953 2026.99 440.236 2039.96 444.951C2112.25 471.274 2128.09 329.142 2179.54 320.499C2190.37 305.841 2168.65 344.102 2177.7 361.872C2179.57 365.529 2200.08 354.83 2273.49 331.046" stroke="#4844FF" stroke-width="0.5476" stroke-miterlimit="10" stroke-linecap="round"/>
<path d="M-396.102 226.117C-224.4 245.731 -111.21 231.557 -15.1798 213.394C27.8889 205.234 64.4429 197.83 115.383 199.341C209.211 202.152 282.892 216.416 368.939 223.73C397.38 226.147 427.209 227.931 459.088 228.837C558.194 231.92 659.562 236.513 752.244 280.365C755.712 281.997 759.12 283.689 762.529 285.412C845.65 327.752 906.091 395.176 982.577 445.948C1054.06 493.396 1144.84 526.851 1224.49 517.634C1279.2 511.438 1305.41 480.068 1320.7 440.146C1332.83 408.534 1339.16 371.785 1353.73 341.745C1364.83 318.867 1378.7 301.459 1395.65 288.706C1458.29 241.621 1541.71 272.537 1601.67 289.915C1630.84 298.377 1655.18 302.668 1674.15 294.871C1693.15 287.044 1698.06 275.046 1712.24 265.496C1722.13 258.847 1735.98 252.138 1763.57 253.83C1836.23 258.212 1918.78 362.597 1987.87 412.523C2002.32 422.889 2016.13 430.747 2029.13 435.915C2101.82 464.837 2117.62 320.71 2172.3 314.243C2184.64 300.946 2163.25 342.138 2174.96 362.053C2178.18 367.524 2200.2 358.759 2274.51 335.368" stroke="#4844FF" stroke-width="0.5431" stroke-miterlimit="10" stroke-linecap="round"/>
<path d="M-399.208 223.005C-229.829 243.253 -115.884 229.502 -18.7385 211.399C24.2397 203.391 61.0349 195.987 111.463 197.074C204.446 199.069 278.338 211.974 364.144 218.743C392.555 220.98 422.323 222.702 454.051 223.639C553.067 226.873 654.375 232.403 746.785 276.436C750.223 278.068 753.662 279.76 757.04 281.513C839.889 323.944 900.33 391.066 976.484 441.899C1047.9 489.588 1138.78 523.708 1218.64 514.642C1273.59 508.537 1299.35 476.805 1314.37 436.58C1326.25 404.787 1332.34 367.886 1346.76 337.695C1357.77 314.636 1371.52 297.077 1388.23 284.143C1450.57 236 1533.9 266.493 1594.1 282.752C1623.39 290.67 1647.85 294.297 1666.7 285.351C1685.58 276.406 1689.83 263.018 1703.49 252.41C1713.05 245.006 1726.63 237.753 1754.34 239.052C1826.49 242.407 1908.19 349.542 1977.08 402.037C1991.46 412.947 2005.31 421.318 2018.3 426.939C2091.38 458.46 2107.19 312.369 2165.03 308.078C2178.85 296.14 2158.28 340.234 2172.15 362.326C2176.74 369.639 2200.23 362.779 2275.48 339.78" stroke="#4844FF" stroke-width="0.5386" stroke-miterlimit="10" stroke-linecap="round"/>
<path d="M-402.316 219.921C-235.289 240.804 -120.59 227.477 -22.2686 209.434C20.6492 201.547 57.6858 194.173 107.571 194.837C199.68 196.046 273.783 207.561 359.377 213.786C387.788 215.872 417.466 217.504 449.073 218.471C547.998 221.886 649.246 228.323 741.355 272.537C744.793 274.199 748.201 275.891 751.579 277.644C834.187 320.196 894.598 386.986 970.451 437.909C1041.81 485.84 1132.77 520.625 1212.82 511.71C1268.01 505.696 1293.34 473.6 1308.06 433.073C1319.67 401.069 1325.56 364.017 1339.79 333.675C1350.71 310.404 1364.31 292.695 1380.81 279.639C1442.88 230.438 1526.12 260.539 1586.53 275.68C1615.94 283.054 1640.52 286.016 1659.28 275.952C1678.01 265.888 1681.63 251.08 1694.75 239.444C1703.97 231.284 1716.79 221.251 1745.08 224.394C1817.98 232.463 1897.6 336.606 1966.28 391.64C1980.63 403.094 1994.45 412.009 2007.48 418.053C2080.92 452.173 2096.75 304.088 2157.79 301.973C2173.08 291.365 2153.51 338.329 2169.4 362.627C2175.38 371.784 2200.35 366.828 2276.5 344.192" stroke="#4844FF" stroke-width="0.5342" stroke-miterlimit="10" stroke-linecap="round"/>
<path d="M-405.392 216.808C-240.688 238.296 -125.265 225.391 -25.7972 207.439C17.0301 199.703 54.308 192.359 103.71 192.57C194.975 192.963 269.289 203.088 354.642 208.83C383.023 210.734 412.67 212.275 444.097 213.302C542.902 216.869 644.119 224.243 735.926 268.638C739.364 270.3 742.742 271.993 746.12 273.745C828.457 316.418 888.868 382.875 964.389 433.889C1035.72 482.062 1126.71 517.512 1207 508.718C1262.43 502.764 1287.34 470.336 1301.76 429.507C1313.1 397.321 1318.77 360.118 1332.82 329.625C1343.65 306.173 1357.13 288.312 1373.39 275.075C1435.16 224.817 1518.34 254.494 1578.96 268.547C1608.49 275.377 1633.19 277.674 1651.86 266.462C1670.47 255.28 1673.42 239.081 1686.03 226.388C1694.9 217.473 1707.44 206.956 1735.88 209.646C1808.33 216.506 1887.05 323.581 1955.54 381.153C1969.84 393.12 1983.68 402.58 1996.71 409.077C2070.54 445.796 2086.37 295.716 2150.62 295.777C2167.38 286.529 2148.87 336.334 2166.69 362.869C2174.08 373.869 2200.5 370.817 2277.53 348.574" stroke="#4844FF" stroke-width="0.5297" stroke-miterlimit="10" stroke-linecap="round"/>
<path d="M-408.498 213.756C-246.116 235.878 -129.939 223.397 -29.3251 205.506C13.442 197.89 50.9611 190.576 99.8204 190.365C190.21 189.941 264.736 198.706 349.878 203.904C378.228 205.626 407.815 207.107 439.122 208.195C537.836 211.912 638.993 220.223 730.498 264.77C733.906 266.432 737.314 268.155 740.662 269.908C822.758 312.701 883.139 378.826 958.358 429.9C1029.63 478.315 1120.71 514.43 1201.21 505.786C1256.88 499.923 1281.37 467.133 1295.46 426.002C1306.56 393.634 1311.99 356.25 1325.89 325.636C1336.63 301.973 1349.99 283.961 1366 270.603C1427.44 219.287 1510.59 248.571 1571.39 261.476C1601.04 267.762 1625.89 269.394 1644.41 257.063C1662.87 244.763 1665.16 227.174 1677.25 213.424C1685.79 203.753 1698.06 192.782 1726.6 195.019C1798.59 200.67 1876.43 310.676 1944.71 370.817C1958.98 383.329 1972.79 393.302 1985.85 400.223C2060.02 439.541 2075.91 287.466 2143.32 289.733C2161.56 281.815 2144.16 334.461 2163.89 363.262C2172.66 376.106 2200.53 374.957 2278.5 353.107" stroke="#4844FF" stroke-width="0.5252" stroke-miterlimit="10" stroke-linecap="round"/>
<path d="M-410.369 214.693C-250.339 237.45 -133.409 225.361 -31.6485 207.561C11.0281 200.096 48.7885 192.782 97.1352 192.148C186.68 190.939 261.417 198.313 346.318 202.967C374.638 204.538 404.195 205.929 435.32 207.047C533.944 210.915 635.04 220.163 726.275 264.891C729.683 266.553 733.061 268.275 736.408 270.028C818.233 312.943 878.613 378.735 953.501 429.9C1024.74 478.557 1115.88 515.306 1196.59 506.844C1252.51 501.072 1276.58 467.919 1290.36 426.455C1301.19 393.876 1306.4 356.371 1320.13 325.606C1330.77 301.761 1344.01 283.598 1359.79 270.059C1420.92 217.654 1503.98 246.546 1565.03 258.363C1594.83 264.135 1619.77 265.072 1638.2 251.593C1656.53 238.175 1658.16 219.166 1669.74 204.387C1677.95 193.961 1689.95 182.537 1718.6 184.29C1790.11 188.702 1867.08 301.67 1935.15 364.35C1949.36 377.375 1963.17 387.922 1976.26 395.266C2050.79 437.214 2066.71 283.114 2137.31 287.557C2157.04 280.999 2140.75 336.455 2162.35 367.523C2172.54 382.211 2201.86 382.966 2280.73 361.509" stroke="#4844FF" stroke-width="0.5207" stroke-miterlimit="10" stroke-linecap="round"/>
<path d="M-411.605 217.806C-253.898 241.197 -136.243 229.532 -33.3369 211.792C9.2793 204.448 47.281 197.195 95.1149 196.107C183.786 194.082 258.733 200.096 343.423 204.236C371.743 205.627 401.21 206.926 432.214 208.105C530.717 212.124 631.784 222.309 722.716 267.218C726.125 268.91 729.472 270.633 732.82 272.386C814.403 315.421 874.753 380.881 949.339 432.137C1020.52 481.065 1111.72 518.449 1192.67 510.108C1248.83 504.427 1272.47 470.911 1285.96 429.145C1296.51 396.385 1301.52 358.699 1315.09 327.782C1325.65 303.726 1338.74 285.411 1354.3 271.721C1415.1 218.259 1498.13 246.758 1559.39 257.426C1589.31 262.655 1614.37 262.927 1632.68 248.299C1650.89 233.733 1651.83 213.363 1662.9 197.558C1670.74 186.376 1682.5 174.499 1711.24 175.768C1782.27 178.941 1858.39 294.871 1926.26 360.089C1940.43 373.658 1954.24 384.719 1967.33 392.516C2042.19 437.063 2073.53 314.545 2131.98 287.587C2150.95 278.853 2138.07 340.626 2161.5 373.96C2173.12 390.492 2203.88 393.151 2283.65 372.087" stroke="#4844FF" stroke-width="0.5162" stroke-miterlimit="10" stroke-linecap="round"/>
<path d="M-412.81 220.919C-257.425 244.915 -139.047 233.672 -34.9644 216.023C7.56136 208.8 45.7742 201.487 93.1256 200.066C180.891 197.074 256.111 201.849 340.559 205.476C368.849 206.685 398.285 207.924 429.109 209.163C527.521 213.333 628.528 224.455 719.159 269.515C722.537 271.208 725.914 272.93 729.232 274.713C810.544 317.87 870.894 382.997 945.148 434.313C1016.3 483.483 1107.56 521.532 1188.72 513.342C1245.12 507.751 1268.34 473.903 1281.52 431.805C1291.84 398.863 1296.6 361.026 1309.99 329.958C1320.46 305.72 1333.43 287.225 1348.75 273.414C1409.22 218.864 1492.22 246.97 1553.69 256.55C1583.73 261.234 1608.94 260.842 1627.13 245.096C1645.22 229.411 1645.5 207.652 1656.05 190.788C1663.53 178.851 1675.63 168.364 1703.89 167.336C1773.07 164.798 1849.68 288.162 1917.36 355.918C1931.47 370.002 1945.29 381.607 1958.41 389.857C2033.6 437.033 2061.98 309.861 2126.61 287.739C2147.48 280.576 2135.33 344.948 2160.6 380.549C2173.63 398.924 2205.81 403.457 2286.49 382.815" stroke="#4844FF" stroke-width="0.5117" stroke-miterlimit="10" stroke-linecap="round"/>
<path d="M-414.017 224.092C-260.985 248.722 -141.853 237.873 -36.6241 220.314C5.84136 213.242 44.2653 205.929 91.104 204.085C177.995 200.307 253.426 203.692 337.663 206.775C365.923 207.802 395.299 208.981 426.002 210.25C524.294 214.572 625.27 226.63 715.599 271.872C718.977 273.564 722.325 275.287 725.642 277.07C806.713 320.347 867.033 385.142 940.986 436.549C1012.07 485.961 1103.43 524.675 1184.8 516.636C1241.44 511.136 1264.24 476.925 1277.09 434.524C1287.13 401.401 1291.69 363.383 1304.9 332.194C1315.24 307.745 1328.09 289.128 1343.2 275.136C1403.31 219.468 1486.28 247.211 1547.99 255.703C1578.15 259.844 1603.48 258.786 1621.58 241.892C1639.55 225.089 1639.13 201.939 1649.21 184.018C1656.35 171.325 1668.18 160.324 1696.56 158.874C1765.26 155.368 1841.02 281.422 1908.46 351.747C1922.55 366.375 1936.33 378.524 1949.48 387.197C2024.97 436.972 2050.79 304.995 2121.27 287.859C2144.01 282.329 2132.67 349.209 2159.76 387.107C2174.2 407.325 2207.83 413.762 2289.41 393.513" stroke="#4844FF" stroke-width="0.5072" stroke-miterlimit="10" stroke-linecap="round"/>
<path d="M-415.224 227.266C-264.513 252.531 -144.657 242.074 -38.2525 224.606C4.12249 217.655 42.8179 210.402 89.1438 208.075C175.191 203.481 250.802 205.506 334.828 208.075C363.088 208.951 392.373 210.039 422.926 211.339C521.127 215.812 622.043 228.807 712.101 274.23C715.479 275.922 718.826 277.675 722.144 279.458C802.943 322.856 863.263 387.319 936.884 438.816C1007.88 488.5 1099.33 527.849 1180.91 519.961C1237.79 514.551 1260.17 479.978 1272.72 437.275C1282.49 403.94 1286.83 365.771 1299.89 334.461C1310.15 309.831 1322.87 291.033 1337.74 276.889C1397.52 220.133 1480.46 247.514 1542.38 254.858C1572.66 258.454 1598.14 256.732 1616.09 238.689C1633.94 220.768 1632.83 196.228 1642.39 177.249C1649.17 163.8 1660.79 152.256 1689.23 150.412C1757.48 145.97 1832.37 274.683 1899.59 347.547C1913.62 362.718 1927.4 375.381 1940.58 384.478C2016.37 436.882 2039.99 299.979 2115.96 287.92C2140.51 284.022 2130.02 353.44 2158.91 393.574C2174.77 415.636 2209.85 423.977 2292.34 404.122" stroke="#4844FF" stroke-width="0.5027" stroke-miterlimit="10" stroke-linecap="round"/>
<path d="M-416.43 230.438C-268.042 256.308 -147.462 246.244 -39.9114 228.897C2.40325 222.067 41.3098 214.844 87.123 212.094C172.295 206.715 248.148 207.319 331.933 209.374C360.162 210.069 389.418 211.067 419.819 212.427C517.93 217.05 618.785 230.982 708.542 276.587C711.89 278.309 715.237 280.032 718.555 281.845C799.113 325.334 859.403 389.524 932.722 441.052C1003.72 490.978 1095.19 530.991 1177.02 523.224C1234.14 517.875 1256.1 482.969 1268.34 439.934C1277.87 406.418 1281.98 368.097 1294.85 336.637C1305.02 311.795 1317.59 292.846 1332.25 278.581C1391.67 220.707 1474.61 247.725 1536.74 253.981C1567.14 257.033 1592.75 254.646 1610.6 235.485C1628.33 216.416 1626.52 190.516 1635.6 170.479C1642.03 156.275 1653.43 144.217 1681.96 141.95C1749.76 136.571 1823.74 267.943 1890.79 343.346C1904.78 359.031 1918.53 372.238 1931.75 381.788C2007.84 436.791 2025.24 280.062 2110.69 288.01C2138.4 290.579 2127.39 357.671 2158.13 400.102C2175.41 424.007 2211.93 434.252 2295.33 414.759" stroke="#4844FF" stroke-width="0.4982" stroke-miterlimit="10" stroke-linecap="round"/>
<path d="M-417.637 233.642C-271.602 260.146 -150.268 250.475 -41.5707 233.219C0.65345 226.51 39.8314 219.347 85.1017 216.144C169.429 209.948 245.463 209.193 329.037 210.704C357.236 211.218 386.431 212.154 416.682 213.575C514.672 218.35 615.527 233.219 704.952 278.974C708.3 280.697 711.617 282.45 714.935 284.233C795.221 327.842 855.511 391.7 928.499 443.319C999.435 493.486 1091 534.134 1173.04 526.549C1230.4 521.29 1251.97 486.022 1263.88 442.684C1273.14 408.987 1277.03 370.485 1289.76 338.873C1299.83 313.82 1312.26 294.72 1326.7 280.304C1385.73 221.342 1468.64 247.846 1531.04 253.105C1561.56 255.552 1587.32 252.561 1605.05 232.252C1622.69 212.064 1620.16 184.774 1628.73 163.679C1634.79 148.72 1645.98 136.178 1674.57 133.488C1741.92 127.172 1815.02 261.204 1881.86 339.145C1895.79 355.374 1909.55 369.125 1922.76 379.098C1999.15 436.7 2016.31 277.01 2105.29 288.131C2134.33 291.758 2124.68 361.932 2157.19 406.66C2175.92 432.409 2213.83 444.558 2298.13 425.458" stroke="#4844FF" stroke-width="0.4938" stroke-miterlimit="10" stroke-linecap="round"/>
<path d="M-418.843 236.815C-275.13 263.954 -153.072 254.646 -43.1988 237.51C-1.03496 230.952 38.3541 223.79 83.1419 220.163C166.595 213.182 242.809 210.855 326.202 212.003C354.372 212.306 383.536 213.212 413.636 214.663C511.536 219.589 612.331 235.395 701.454 281.332C704.802 283.054 708.119 284.807 711.407 286.62C791.452 330.351 851.651 393.997 924.397 445.585C995.213 496.116 1086.93 537.308 1169.18 529.843C1226.78 524.675 1248.02 489.104 1259.51 445.404C1268.58 411.556 1272.17 372.872 1284.72 341.11C1294.7 315.875 1307.01 296.593 1321.21 282.027C1379.85 221.946 1462.79 248.118 1525.4 252.258C1556.04 254.193 1581.95 250.506 1599.53 229.079C1617.05 207.742 1613.83 179.092 1621.91 156.94C1627.64 141.225 1638.59 128.169 1667.27 125.056C1734.17 117.803 1806.37 254.495 1872.99 335.005C1886.9 351.748 1900.62 366.042 1913.86 376.469C1990.53 436.7 2007.54 274.078 2099.98 288.282C2130.38 292.967 2122.02 366.224 2156.38 413.248C2176.52 440.841 2215.88 454.894 2301.09 436.186" stroke="#4844FF" stroke-width="0.4893" stroke-miterlimit="10" stroke-linecap="round"/>
<path d="M-420.019 239.989C-278.628 267.762 -155.847 258.847 -44.8273 241.802C-2.75397 235.365 36.8764 228.233 81.1514 224.183C163.76 216.416 240.186 212.729 323.337 213.333C351.476 213.454 380.581 214.27 410.53 215.781C508.309 220.858 609.074 237.601 697.925 283.719C701.243 285.442 704.561 287.225 707.848 289.008C787.621 332.859 847.821 396.143 920.266 447.822C991.051 498.594 1082.83 540.451 1165.29 533.137C1223.13 528.06 1243.94 492.127 1255.13 448.124C1263.94 414.064 1267.29 375.23 1279.68 343.346C1289.58 317.9 1301.73 298.497 1315.72 283.78C1373.96 222.581 1456.93 248.42 1519.76 251.443C1550.52 252.833 1576.55 248.451 1594.04 225.905C1611.44 203.451 1607.52 173.411 1615.09 150.231C1620.46 133.79 1631.2 120.191 1659.94 116.655C1726.41 108.495 1797.71 247.846 1864.13 330.865C1877.97 348.151 1891.66 362.96 1904.96 373.809C1981.9 436.64 1998.82 271.117 2094.64 288.403C2126.4 294.146 2119.37 370.515 2155.5 419.776C2177.07 449.182 2217.87 465.169 2303.98 446.855" stroke="#4844FF" stroke-width="0.4848" stroke-miterlimit="10" stroke-linecap="round"/>
<path d="M-421.226 243.192C-282.188 271.57 -158.652 263.048 -46.4564 246.124C-4.47352 239.807 35.4283 232.736 79.1605 228.233C160.894 219.65 237.531 214.603 320.471 214.663C348.611 214.603 377.655 215.358 407.453 216.93C505.142 222.188 605.846 239.838 694.396 286.107C697.714 287.829 701.001 289.613 704.289 291.426C783.821 335.398 843.99 398.349 916.103 450.119C986.829 501.133 1078.67 543.654 1161.37 536.492C1219.45 531.505 1239.81 495.209 1250.73 450.905C1259.26 416.664 1262.4 377.678 1274.65 345.643C1284.42 320.015 1296.45 300.432 1310.24 285.563C1368.08 223.216 1451.05 248.723 1514.09 250.627C1544.97 251.473 1571.15 246.426 1588.52 222.732C1605.8 199.129 1601.19 167.729 1608.28 143.492C1613.28 126.296 1623.81 112.212 1652.61 108.253C1718.66 99.1869 1789.03 241.167 1855.26 326.724C1869.07 344.555 1882.73 359.877 1896.07 371.18C1973.24 436.61 1990.16 268.246 2089.33 288.585C2122.51 295.385 2116.66 374.867 2154.69 426.395C2177.64 457.674 2219.89 475.535 2306.91 457.614" stroke="#4844FF" stroke-width="0.4803" stroke-miterlimit="10" stroke-linecap="round"/>
<path d="M-422.431 246.365C-285.716 275.378 -161.486 267.218 -48.1144 250.445C-6.19188 244.25 33.9211 237.208 77.1707 232.282C158.06 222.914 234.908 216.476 317.607 215.993C345.716 215.781 374.7 216.446 404.347 218.048C501.945 223.458 602.59 242.044 690.838 288.494C694.156 290.247 697.443 292.03 700.7 293.843C779.961 337.937 840.131 400.556 911.942 452.416C982.637 503.671 1074.53 546.858 1157.45 539.816C1215.77 534.92 1235.71 498.262 1246.33 453.655C1254.62 419.232 1257.46 380.035 1269.58 347.879C1279.2 322.01 1291.14 302.305 1304.72 287.285C1362.14 223.82 1445.17 248.995 1508.42 249.78C1539.42 250.113 1565.75 244.371 1582.97 219.559C1600.13 194.838 1594.86 162.078 1601.4 136.752C1606.05 118.831 1616.39 104.203 1645.25 99.8214C1710.88 89.8181 1780.34 234.458 1846.36 322.554C1860.11 340.898 1873.78 356.795 1887.14 368.521C1964.59 436.549 1981.51 265.375 2083.99 288.706C2118.59 296.594 2114.03 379.128 2153.81 432.953C2178.21 466.076 2221.89 485.841 2309.8 468.312" stroke="#4844FF" stroke-width="0.4758" stroke-miterlimit="10" stroke-linecap="round"/>
<path d="M-423.638 249.569C-289.275 279.216 -164.292 271.389 -49.7739 254.767C-7.94186 248.692 32.4425 241.711 75.1492 236.332C155.164 226.147 232.223 218.35 314.711 217.353C342.79 216.96 371.713 217.534 401.24 219.196C498.718 224.757 599.332 244.28 687.279 290.912C690.566 292.665 693.853 294.448 697.111 296.261C776.1 340.475 836.269 402.761 907.749 454.712C978.384 506.179 1070.37 550.061 1153.49 543.17C1212.06 538.365 1231.58 501.344 1241.86 456.405C1249.89 421.771 1252.51 382.422 1264.45 350.146C1274.01 324.095 1285.78 304.209 1299.14 289.068C1356.14 224.455 1439.2 249.327 1502.69 248.964C1533.81 248.753 1560.29 242.316 1577.39 216.386C1594.46 190.516 1588.46 156.396 1594.52 130.013C1598.81 111.336 1608.94 96.2249 1637.86 91.3894C1703.1 80.5097 1771.59 227.749 1837.4 318.413C1851.13 337.302 1864.76 353.712 1878.15 365.891C1955.84 436.489 1972.85 262.564 2078.56 288.857C2114.61 297.832 2111.29 383.42 2152.88 439.511C2178.7 474.477 2223.81 496.146 2312.64 479.01" stroke="#4844FF" stroke-width="0.4713" stroke-miterlimit="10" stroke-linecap="round"/>
<path d="M-424.845 252.742C-292.804 283.024 -167.217 275.378 -51.4024 259.058C-9.66081 253.014 30.9648 246.154 73.1588 240.351C152.329 229.381 229.599 220.194 311.846 218.652C339.895 218.108 368.788 218.592 398.134 220.284C495.521 225.996 596.075 246.456 683.75 293.269C687.038 295.022 690.325 296.805 693.552 298.649C772.3 342.984 832.439 404.938 903.617 456.949C974.222 508.658 1066.27 553.174 1149.6 546.465C1208.42 541.75 1227.51 504.366 1237.49 459.125C1245.24 424.31 1247.65 384.81 1259.45 352.382C1268.92 326.12 1280.53 306.083 1293.68 290.791C1350.26 225.059 1433.38 249.599 1497.08 248.118C1528.32 247.363 1554.99 240.291 1571.9 213.182C1588.92 186.225 1582.16 150.714 1587.71 123.243C1591.66 103.841 1601.58 88.2164 1630.57 82.9277C1695.41 71.1413 1762.97 221.01 1828.57 314.213C1842.23 333.615 1855.83 350.569 1869.28 363.202C1947.22 436.398 1964.35 259.754 2073.29 288.978C2110.78 299.042 2108.72 387.651 2152.06 446.069C2179.33 482.879 2225.84 506.421 2315.59 489.709" stroke="#4844FF" stroke-width="0.4668" stroke-miterlimit="10" stroke-linecap="round"/>
<path d="M-426.02 255.946C-296.302 286.832 -169.961 279.639 -53.0305 263.38C-11.3493 257.517 29.5176 250.627 71.1989 244.401C149.495 232.645 226.976 222.067 309.011 219.982C337.06 219.257 365.863 219.68 395.088 221.433C492.385 227.296 592.878 248.692 680.252 295.657C683.539 297.409 686.797 299.223 690.024 301.066C768.5 345.492 828.67 407.144 899.486 459.246C970.03 511.196 1062.14 556.377 1145.71 549.789C1204.77 545.135 1223.41 507.419 1233.12 461.875C1240.6 426.848 1242.83 387.228 1254.41 354.649C1263.79 328.205 1275.25 307.987 1288.19 292.544C1344.32 225.664 1427.53 249.871 1491.44 247.302C1522.8 246.003 1549.59 238.236 1566.42 210.039C1583.28 181.903 1575.83 145.063 1580.92 116.534C1584.48 96.376 1594.25 80.268 1623.27 74.5561C1687.72 61.8631 1754.34 214.361 1819.73 310.102C1833.36 330.049 1846.9 347.547 1860.42 360.572C1938.5 436.428 1955.87 257.003 2068.01 289.129C2106.98 300.28 2106.13 391.942 2151.28 452.657C2179.99 491.28 2227.92 516.757 2318.55 500.407" stroke="#4844FF" stroke-width="0.4623" stroke-miterlimit="10" stroke-linecap="round"/>
<path d="M-427.227 259.149C-299.861 290.67 -172.736 283.931 -54.6591 267.702C65.1971 251.231 180.861 225.331 306.146 221.312C431.431 217.292 571.464 237.964 686.465 303.454C764.7 348 824.839 409.29 895.354 461.512C965.868 513.705 1058.04 559.551 1141.82 553.114C1246.66 545.075 1223.1 432.258 1249.37 356.886C1319.19 156.698 1502.3 309.498 1560.93 206.836C1589.46 156.88 1545.73 80.9935 1615.97 66.0944C1693.39 49.6841 1773.1 279.549 1851.52 357.913C1929.94 436.277 1947.37 254.284 2062.67 289.25C2129.11 309.408 2087.4 551.905 2321.44 511.106" stroke="#4844FF" stroke-width="0.4578" stroke-miterlimit="10" stroke-linecap="round"/>
<path d="M-426.202 261.174C-299.409 292.604 -172.857 285.835 -55.353 269.575C-15.3909 264.045 24.0585 257.457 63.5683 250.959C142.015 238.085 220.672 225.633 303.522 222.793C392.344 219.74 488.554 229.079 578.069 258.182C614.111 269.908 649.036 284.807 681.941 303.363C759.844 347.335 820.014 407.778 890.347 459.245C960.741 510.682 1051.67 554.05 1134.95 546.858C1175.03 543.473 1196.47 524.887 1209.35 499.259C1229.59 458.49 1228.32 400.042 1245.12 355.284C1265.3 301.55 1293.62 274.26 1325.44 260.479C1408.41 224.576 1514.03 281.211 1556.1 207.077C1584.42 157.212 1541.96 81.9 1611.81 66.9706C1689.83 50.1373 1769.63 278.974 1848.41 357.792C1868.59 377.98 1884.76 381.002 1899.65 375.109C1942.6 358.124 1975.15 267.067 2060.71 292.423C2127.64 312.097 2088.88 549.275 2320.99 508.325" stroke="#4844FF" stroke-width="0.4758" stroke-miterlimit="10" stroke-linecap="round"/>
<path d="M-425.176 263.199C-298.956 294.508 -173.008 287.769 -56.0468 271.419C-16.2958 265.858 22.9726 259.27 62.2712 252.742C140.295 239.807 218.531 227.266 300.928 224.213C389.237 220.949 484.874 229.986 574.058 258.635C609.918 270.18 644.693 284.898 677.507 303.212C755.079 346.58 815.278 406.237 885.461 456.888C955.764 507.6 1045.37 548.278 1128.22 540.481C1167.91 536.734 1189.6 518.45 1202.75 493.275C1223.59 453.443 1223.5 396.838 1240.99 353.591C1261.98 301.671 1290.54 275.408 1322.48 262.051C1405.78 227.235 1509.65 281.271 1551.4 207.229C1579.47 157.424 1538.31 82.7464 1607.77 67.7565C1686.42 50.5303 1766.29 278.31 1845.4 357.581C1865.48 377.678 1881.59 380.912 1896.58 375.381C1939.8 359.454 1973.21 270.905 2058.87 295.475C2126.28 314.817 2090.51 546.556 2320.69 505.454" stroke="#4844FF" stroke-width="0.4938" stroke-miterlimit="10" stroke-linecap="round"/>
<path d="M-424.152 265.193C-298.505 296.412 -173.159 289.642 -56.7413 273.262C-17.1712 267.702 21.8861 261.083 60.9735 254.525C138.575 241.53 216.389 228.867 298.334 225.663C386.16 222.188 481.224 230.892 570.046 259.149C605.725 270.512 640.379 285.049 673.043 303.121C750.283 345.885 810.512 404.726 880.514 454.621C950.696 504.578 1039.01 542.687 1121.4 534.195C1160.73 530.145 1182.54 512.072 1196.08 487.351C1217.43 448.366 1218.61 393.725 1236.77 351.959C1258.54 301.852 1287.37 276.647 1319.4 263.682C1403.04 229.955 1505.16 281.392 1546.6 207.41C1574.47 157.665 1534.63 83.7433 1603.63 68.5721C1682.98 51.1041 1762.85 277.705 1842.29 357.399C1862.29 377.436 1878.36 380.821 1893.38 375.713C1936.9 360.844 1971.19 274.713 2056.88 298.618C2124.77 317.567 2091.95 543.926 2320.21 502.643" stroke="#4844FF" stroke-width="0.5117" stroke-miterlimit="10" stroke-linecap="round"/>
<path d="M-423.155 267.188C-298.081 298.316 -173.309 291.516 -57.4339 275.106C-18.0448 269.515 20.8316 262.897 59.6778 256.308C136.857 243.253 214.248 230.499 295.741 227.084C383.085 223.427 477.546 231.799 566.036 259.603C601.564 270.784 636.037 285.14 668.61 302.94C745.549 345.099 805.778 403.124 875.629 452.265C945.691 501.465 1032.73 537.006 1114.68 527.848C1153.61 523.497 1175.6 505.605 1189.51 481.368C1211.37 443.259 1213.84 390.522 1232.66 350.267C1255.25 301.973 1284.33 277.796 1316.48 265.254C1400.45 232.615 1500.82 281.453 1541.93 207.561C1569.58 157.907 1531.04 84.6201 1599.62 69.328C1679.64 51.4973 1759.56 277.01 1839.33 357.188C1859.21 377.134 1875.29 380.73 1890.34 375.985C1934.19 362.204 1969.29 278.431 2055.07 301.671C2123.44 320.197 2093.58 541.206 2319.94 499.742" stroke="#4844FF" stroke-width="0.5297" stroke-miterlimit="10" stroke-linecap="round"/>
<path d="M-422.131 269.152C-297.63 300.16 -173.461 293.36 -58.1285 276.919C-18.9505 271.328 19.7449 264.649 58.38 258.061C135.137 244.945 212.106 232.101 293.116 228.474C379.977 224.606 473.866 232.645 561.963 260.056C597.311 271.087 631.633 285.2 664.085 302.789C740.692 344.343 800.952 401.553 870.622 449.937C940.593 498.382 1026.34 531.354 1107.8 521.502C1146.35 516.848 1168.51 499.168 1182.78 475.414C1205.16 438.181 1208.9 387.349 1228.41 348.605C1251.79 302.124 1281.13 278.974 1313.4 266.856C1397.7 235.304 1496.29 281.543 1537.1 207.712C1564.52 158.119 1527.3 85.4964 1595.43 70.1137C1676.08 51.9203 1756.06 276.345 1836.17 356.976C1855.95 376.832 1871.97 380.609 1887.11 376.257C1931.26 363.534 1967.24 282.178 2053.08 304.753C2121.96 322.856 2095.03 538.517 2319.45 496.902" stroke="#4844FF" stroke-width="0.5476" stroke-miterlimit="10" stroke-linecap="round"/>
<path d="M-421.135 271.117C-297.207 302.033 -173.641 295.233 -58.8515 278.702C-19.8545 273.111 18.6299 266.402 57.0538 259.784C133.389 246.607 209.935 233.642 290.493 229.864C376.872 225.784 470.157 233.521 557.923 260.509C593.089 271.358 627.261 285.291 659.622 302.638C735.897 343.618 796.217 399.981 865.706 447.61C935.557 495.33 1020.04 525.702 1101.05 515.185C1139.23 510.229 1161.52 492.761 1176.17 469.46C1199.04 433.104 1204.07 384.205 1224.25 346.942C1248.44 302.275 1278.03 280.183 1310.42 268.487C1395.05 238.024 1491.89 281.694 1532.4 207.924C1559.6 158.391 1523.65 86.4029 1591.39 70.9597C1672.7 52.4037 1752.71 275.741 1833.15 356.825C1852.85 376.62 1868.83 380.579 1884 376.59C1928.49 364.924 1965.28 285.955 2051.21 307.866C2120.58 325.546 2096.63 535.857 2319.09 494.061" stroke="#4844FF" stroke-width="0.5656" stroke-miterlimit="10" stroke-linecap="round"/>
<path d="M-420.14 273.02C-296.816 303.846 -173.823 297.016 -59.5763 280.455C-20.7602 274.833 17.513 268.124 55.7258 261.476C131.639 248.239 207.763 235.183 287.868 231.194C373.764 226.932 466.476 234.306 553.88 260.871C588.866 271.539 622.887 285.29 655.128 302.365C731.071 342.741 791.421 398.288 860.729 445.162C930.459 492.126 1013.67 519.96 1094.2 508.718C1131.99 503.459 1154.46 486.172 1169.48 463.355C1192.85 427.875 1199.16 380.911 1220.03 345.129C1245 302.305 1274.86 281.21 1307.34 269.938C1392.3 240.593 1487.4 281.633 1527.57 207.923C1554.56 158.481 1519.91 87.1279 1587.23 71.594C1669.17 52.6754 1749.25 274.954 1830.04 356.462C1849.65 376.166 1865.6 380.306 1880.83 376.74C1925.65 366.163 1963.29 289.551 2049.25 310.797C2119.1 328.053 2098.11 533.016 2318.67 491.038" stroke="#4844FF" stroke-width="0.5835" stroke-miterlimit="10" stroke-linecap="round"/>
<path d="M-419.175 274.925C-296.423 305.63 -174.003 298.8 -60.2997 282.208C-21.6947 276.587 16.3975 269.848 54.369 263.169C129.86 249.871 205.562 236.725 285.214 232.554C370.598 228.082 462.737 235.153 549.779 261.295C584.614 271.812 618.483 285.351 650.604 302.185C726.215 341.956 786.596 396.717 855.723 442.805C925.362 489.014 1007.25 514.279 1087.35 502.372C1124.75 496.811 1147.37 479.736 1162.75 457.402C1186.61 422.799 1194.21 377.769 1215.74 343.467C1241.5 302.457 1271.63 282.39 1304.23 271.54C1389.53 243.283 1482.87 281.725 1522.71 208.105C1549.5 158.723 1516.11 88.0049 1583.03 72.4107C1665.61 53.1293 1745.75 274.32 1826.88 356.281C1846.39 375.925 1862.35 380.247 1877.58 377.043C1922.73 367.524 1961.21 293.3 2047.23 313.911C2117.56 330.744 2099.52 530.327 2318.16 488.228" stroke="#4844FF" stroke-width="0.6015" stroke-miterlimit="10" stroke-linecap="round"/>
<path d="M-418.18 276.798C-296.001 307.413 -174.185 300.583 -61.024 283.93C-22.6 278.279 15.2811 271.54 53.0415 264.831C128.11 251.473 203.39 238.205 282.56 233.854C367.461 229.169 458.996 235.909 545.707 261.627C580.361 271.963 614.08 285.321 646.08 301.912C721.389 341.079 781.77 395.025 850.746 440.357C920.265 485.81 1000.88 508.537 1080.51 495.904C1117.54 490.041 1140.28 473.147 1156.06 451.297C1180.4 417.54 1189.26 374.504 1211.52 341.623C1238.03 302.456 1268.46 283.417 1301.19 272.96C1386.81 245.791 1478.38 281.634 1517.95 208.075C1544.49 158.753 1512.43 88.6997 1578.93 72.9845C1662.17 53.3405 1742.34 273.444 1823.8 355.888C1843.22 375.441 1859.15 379.974 1874.44 377.134C1919.95 368.702 1959.22 296.835 2045.33 316.781C2116.17 333.192 2101.06 527.425 2317.76 485.145" stroke="#4844FF" stroke-width="0.6194" stroke-miterlimit="10" stroke-linecap="round"/>
<path d="M-417.214 278.611C-295.609 309.105 -174.395 302.275 -61.7776 285.593C-23.5346 279.941 14.1655 273.172 51.6847 266.432C126.331 253.014 201.188 239.656 279.906 235.123C364.324 230.257 455.287 236.664 541.635 261.959C576.108 272.114 609.677 285.26 641.586 301.61C716.564 340.173 776.975 393.302 845.77 437.879C915.198 482.606 994.52 502.764 1073.66 489.406C1110.3 483.241 1133.2 466.559 1149.36 445.162C1174.18 412.281 1184.32 371.18 1207.3 339.78C1234.59 302.456 1265.3 284.414 1298.11 274.38C1384.07 248.299 1473.88 281.543 1513.12 208.074C1539.45 158.844 1508.66 89.3947 1574.77 73.6191C1658.64 53.6124 1738.87 272.628 1820.66 355.525C1840 375.018 1855.89 379.733 1871.21 377.254C1917.09 369.911 1957.17 300.401 2043.31 319.713C2114.64 335.7 2102.51 524.584 2317.28 482.123" stroke="#4844FF" stroke-width="0.6374" stroke-miterlimit="10" stroke-linecap="round"/>
<path d="M-416.279 280.395C-295.247 310.798 -174.607 303.937 -62.5618 287.195C-24.5299 281.513 12.9892 274.743 50.2973 267.974C124.521 254.495 198.956 241.046 277.222 236.302C361.157 231.224 451.517 237.299 537.504 262.171C571.796 272.144 605.213 285.109 637.002 301.217C711.648 339.206 772.089 391.489 840.733 435.31C910.041 479.282 988.095 496.871 1066.78 482.848C1103.07 476.381 1126.11 459.91 1142.64 438.997C1167.94 406.993 1179.34 367.856 1203.02 337.906C1231.07 302.426 1262.07 285.411 1295 275.771C1381.29 250.778 1469.36 281.422 1508.3 208.014C1534.42 158.844 1504.89 90.0295 1570.61 74.1935C1655.12 53.8242 1735.4 271.782 1817.56 355.102C1836.77 374.504 1852.66 379.431 1868.02 377.345C1914.25 371.089 1955.15 303.907 2041.35 322.584C2113.16 338.148 2103.99 521.683 2316.83 479.071" stroke="#4844FF" stroke-width="0.6553" stroke-miterlimit="10" stroke-linecap="round"/>
<path d="M-415.465 281.725C-295.006 312.037 -174.969 305.146 -63.4366 288.373C-25.5857 282.692 11.7223 275.892 48.8192 269.092C122.591 255.553 196.634 241.983 274.447 237.087C357.9 231.799 447.687 237.571 533.311 262.02C567.452 271.842 600.689 284.596 632.387 300.432C706.701 337.816 767.112 389.404 835.636 432.349C904.763 475.686 981.581 490.616 1059.82 475.868C1095.71 469.098 1118.9 452.809 1135.82 432.379C1161.61 401.251 1174.27 364.078 1198.67 335.579C1227.45 301.943 1258.78 285.925 1291.84 276.738C1378.46 252.863 1464.75 280.909 1503.38 207.561C1529.29 158.481 1501.06 90.2715 1566.35 74.375C1651.53 53.6128 1731.84 270.512 1814.33 354.286C1833.45 373.628 1849.35 378.705 1864.73 377.013C1911.33 371.845 1953.04 307.02 2039.3 325.062C2111.62 340.173 2105.38 518.389 2316.29 475.596" stroke="#4844FF" stroke-width="0.6733" stroke-miterlimit="10" stroke-linecap="round"/>
<path d="M-414.952 281.996C-295.066 312.188 -175.632 305.327 -64.6424 288.494C-26.9724 282.782 10.1245 275.982 47.0103 269.152C120.36 255.553 193.98 241.893 271.311 236.785C354.251 231.315 443.465 236.725 528.758 260.751C562.718 270.391 595.834 282.964 627.381 298.558C701.364 335.337 761.805 386.109 830.178 428.299C899.214 470.881 974.735 483.272 1052.52 467.828C1088.05 460.757 1111.36 444.679 1128.67 424.702C1154.94 394.42 1168.85 359.243 1194 332.194C1223.53 300.432 1255.16 285.381 1288.31 276.617C1375.26 253.83 1459.8 279.277 1498.1 205.989C1523.77 156.97 1496.84 89.3949 1561.74 73.4078C1647.55 52.283 1727.95 268.095 1810.74 352.322C1829.77 371.573 1845.64 376.862 1861.05 375.532C1908.04 371.452 1950.53 308.954 2036.82 326.362C2109.63 341.049 2106.34 513.916 2315.35 470.971" stroke="#4844FF" stroke-width="0.6913" stroke-miterlimit="10" stroke-linecap="round"/>
<path d="M-414.47 282.268C-295.157 312.369 -176.296 305.478 -65.8799 288.615C-28.421 282.903 8.49494 276.073 45.1696 269.212C118.097 255.552 191.295 241.801 268.173 236.482C350.631 230.801 439.272 235.908 524.172 259.511C557.952 268.971 590.917 281.361 622.374 296.714C696.025 332.889 756.496 382.875 824.688 424.279C893.603 466.136 967.858 475.958 1045.16 459.789C1080.29 452.445 1103.73 436.518 1121.43 417.056C1148.15 387.65 1163.33 354.437 1189.2 328.839C1219.42 298.92 1251.42 284.897 1284.69 276.526C1371.97 254.827 1454.76 277.674 1492.76 204.478C1518.22 155.519 1492.55 88.5785 1557.04 72.5309C1643.47 51.0132 1723.94 265.797 1807.09 350.478C1826.03 369.669 1841.9 375.169 1857.34 374.172C1904.72 371.21 1947.97 311.009 2034.35 327.782C2107.64 342.016 2107.34 509.564 2314.39 466.438" stroke="#4844FF" stroke-width="0.7092" stroke-miterlimit="10" stroke-linecap="round"/>
<path d="M-413.987 282.541C-295.277 312.551 -176.989 305.63 -67.1154 288.736C-29.8375 282.994 6.86733 276.164 43.3309 269.273C115.836 255.553 188.612 241.681 265.038 236.211C347.013 230.318 435.05 235.093 519.619 258.273C553.217 267.551 586.032 279.73 617.368 294.841C690.717 330.411 751.219 379.582 819.23 420.23C888.025 461.331 961.012 468.645 1037.86 451.751C1072.6 444.105 1096.19 428.39 1114.29 409.38C1141.46 380.821 1157.9 349.602 1184.53 325.455C1215.47 297.41 1247.77 284.354 1281.19 276.406C1368.81 255.795 1449.85 276.043 1487.52 202.907C1512.76 154.039 1488.36 87.7027 1552.45 71.5947C1639.52 49.7143 1720.05 263.41 1803.53 348.544C1822.38 367.644 1838.25 373.356 1853.69 372.752C1901.46 370.878 1945.5 313.004 2031.94 329.172C2105.74 342.984 2108.36 505.152 2313.48 461.875" stroke="#4844FF" stroke-width="0.7272" stroke-miterlimit="10" stroke-linecap="round"/>
<path d="M-413.474 282.813C-295.337 312.702 -177.652 305.781 -68.2918 288.827C-31.1949 283.085 5.29884 276.224 41.5513 269.304C113.634 255.523 185.988 241.56 261.961 235.879C343.454 229.804 430.888 234.247 515.125 257.004C548.573 266.13 581.206 278.098 612.452 292.967C685.469 327.964 746.001 376.288 813.831 416.18C882.535 456.556 954.226 461.301 1030.59 443.682C1064.97 435.764 1088.68 420.2 1107.17 401.674C1134.79 373.991 1152.47 344.767 1179.85 322.04C1211.46 295.838 1244.16 283.81 1277.69 276.255C1365.64 256.732 1444.9 274.381 1482.3 201.336C1507.33 152.528 1484.2 86.8263 1547.9 70.6578C1635.6 48.3846 1716.19 261.023 1800.01 346.61C1818.77 365.65 1834.3 370.395 1850.07 371.301C1899.2 374.082 1943.06 314.968 2029.52 330.502C2103.81 343.86 2109.39 500.71 2312.61 457.281" stroke="#4844FF" stroke-width="0.7451" stroke-miterlimit="10" stroke-linecap="round"/>
<path d="M-412.992 283.055C-295.428 312.853 -178.316 305.932 -69.5285 288.918C-32.6427 283.145 3.70024 276.285 39.7114 269.334C111.372 255.493 183.304 241.409 258.794 235.577C339.804 229.291 426.665 233.401 510.541 255.734C543.807 264.68 576.29 276.466 607.415 291.094C680.101 325.486 740.662 373.024 808.341 412.131C876.925 451.751 947.349 453.987 1023.23 435.643C1057.22 427.423 1081.05 412.07 1099.96 394.028C1128.04 367.191 1146.92 339.962 1175.12 318.686C1207.39 294.327 1240.48 283.296 1274.1 276.164C1362.38 257.729 1439.89 272.81 1476.96 199.794C1501.75 151.047 1479.95 85.9501 1543.22 69.7212C1631.59 47.055 1712.06 258.757 1796.39 344.676C1815 363.655 1830.59 368.582 1846.39 369.851C1895.88 373.901 1940.55 316.933 2027.08 331.862C2101.85 344.767 2110.38 496.298 2311.67 452.688" stroke="#4844FF" stroke-width="0.7631" stroke-miterlimit="10" stroke-linecap="round"/>
<path d="M-412.509 283.296C-295.518 312.973 -179.01 306.052 -70.7653 289.008C-34.0605 283.235 2.07132 276.314 37.8714 269.364C109.11 255.462 180.619 241.288 255.657 235.243C336.185 228.746 422.443 232.554 505.956 254.464C539.042 263.229 571.404 274.834 602.408 289.189C674.762 322.976 735.354 369.699 802.852 408.05C871.316 446.945 940.473 446.613 1015.9 427.543C1049.53 419.051 1073.48 403.849 1092.78 386.291C1121.31 360.33 1141.4 335.065 1170.41 315.24C1203.32 292.725 1236.83 282.691 1270.57 276.012C1359.19 258.695 1434.95 271.147 1471.68 198.222C1496.26 149.565 1475.72 85.0728 1538.61 68.7835C1627.61 45.7547 1708.14 256.368 1792.8 342.772C1811.32 361.66 1826.94 366.767 1842.71 368.43C1892.54 373.718 1938.05 318.897 2024.64 333.222C2099.92 345.673 2111.41 491.884 2310.74 448.093" stroke="#4844FF" stroke-width="0.781" stroke-miterlimit="10" stroke-linecap="round"/>
<path d="M-412.027 283.538C-295.609 313.124 -179.703 306.174 -72.0017 289.098C-35.4779 283.296 0.442823 276.375 36.0317 269.394C106.848 255.432 177.935 241.167 252.521 234.941C332.536 228.262 418.251 231.738 501.402 253.225C534.307 261.808 566.518 273.202 597.402 287.346C669.424 320.529 730.046 366.435 797.393 404C865.766 442.14 933.627 439.299 1008.57 419.474C1041.81 410.679 1065.88 395.69 1085.6 378.584C1114.59 353.47 1135.88 330.2 1165.68 311.825C1199.22 291.153 1233.15 282.147 1267.02 275.861C1355.96 259.632 1429.97 269.485 1466.4 196.621C1490.77 148.024 1471.5 84.1664 1533.99 67.8166C1623.63 44.3949 1704.22 253.981 1789.21 340.807C1807.64 359.635 1823.53 366.133 1839.06 366.979C1888.43 369.639 1935.54 320.861 2022.23 334.551C2097.99 346.549 2112.43 487.442 2309.86 443.5" stroke="#4844FF" stroke-width="0.799" stroke-miterlimit="10" stroke-linecap="round"/>
<path d="M-411.544 283.749C-295.7 313.245 -180.397 306.294 -73.2085 289.159C-36.8957 283.356 -1.156 276.405 34.2218 269.394C104.615 255.371 175.281 240.986 249.384 234.579C328.916 227.688 414.028 230.831 496.847 251.896C529.601 260.327 561.631 271.479 592.425 285.381C664.176 317.839 724.767 363.081 791.934 399.86C860.186 437.244 926.78 431.895 1001.28 411.344C1034.15 402.278 1058.34 387.439 1078.42 370.847C1107.83 346.58 1130.33 325.304 1160.97 308.38C1195.11 289.521 1229.5 281.543 1263.46 275.68C1352.73 260.539 1424.96 267.792 1461.1 195.019C1485.22 146.483 1467.25 83.2295 1529.35 66.8495C1619.62 43.0349 1700.27 251.563 1785.62 338.843C1803.96 357.58 1819.85 364.32 1835.38 365.498C1885.18 369.306 1933.04 322.765 2019.75 335.881C2096 347.396 2113.4 482.999 2308.9 438.876" stroke="#4844FF" stroke-width="0.8169" stroke-miterlimit="10" stroke-linecap="round"/>
<path d="M-411.061 283.992C-295.789 313.367 -181.06 306.416 -74.4442 289.22C-38.3124 283.417 -2.78379 276.436 32.3829 269.364C102.354 255.281 172.597 240.805 246.248 234.217C325.298 227.115 409.837 229.956 492.264 250.597C524.837 258.847 556.746 269.788 587.389 283.478C658.808 315.362 719.43 359.757 786.446 395.781C854.607 432.44 919.904 424.552 993.917 403.246C1026.43 393.907 1050.71 379.22 1071.22 363.111C1101.05 339.69 1124.72 320.378 1156.24 304.935C1190.95 287.89 1225.82 280.939 1259.9 275.499C1349.5 261.446 1419.99 266.1 1455.79 193.418C1479.71 144.973 1463 82.3236 1524.7 65.8529C1615.58 41.6455 1696.32 249.146 1782 336.849C1800.25 355.526 1816.14 362.477 1831.7 363.988C1881.92 368.944 1930.54 324.64 2017.31 337.151C2094.07 348.212 2114.39 478.467 2307.96 434.223" stroke="#4844FF" stroke-width="0.8349" stroke-miterlimit="10" stroke-linecap="round"/>
<path d="M-410.579 284.172C-295.88 313.457 -181.754 306.476 -75.681 289.25C-39.7301 283.417 -4.41268 276.436 30.5429 269.334C100.092 255.19 169.913 240.623 243.111 233.823C321.678 226.51 405.614 229.018 487.71 249.236C520.102 257.306 551.86 268.064 582.412 281.513C653.5 312.792 714.152 356.372 780.986 391.64C849.028 427.543 913.058 417.147 986.618 395.116C1018.74 385.505 1043.14 370.969 1064.07 355.344C1094.35 332.769 1119.14 315.421 1151.53 301.429C1186.82 286.197 1222.17 280.304 1256.37 275.257C1346.31 262.292 1415.04 264.377 1450.54 191.725C1474.25 143.34 1458.8 81.2955 1520.09 64.7946C1611.6 40.1641 1692.39 246.637 1778.41 334.793C1796.57 353.38 1812.46 360.542 1828.02 362.446C1878.66 368.581 1928.04 326.513 2014.87 338.42C2092.11 349.028 2115.42 473.963 2307.06 429.538" stroke="#4844FF" stroke-width="0.8528" stroke-miterlimit="10" stroke-linecap="round"/>
<path d="M-410.096 284.384C-296.001 313.548 -182.448 306.566 -76.9177 289.31C-41.178 283.477 -6.04148 276.466 28.703 269.334C97.8299 255.16 167.228 240.442 239.974 233.461C318.059 225.966 401.391 228.142 483.155 247.937C515.366 255.825 546.974 266.402 577.406 279.579C648.161 310.253 708.873 353.047 775.527 387.53C843.448 422.677 906.211 409.773 979.289 386.986C1011.05 377.073 1035.54 362.718 1056.89 347.607C1087.59 325.878 1113.53 310.495 1146.83 297.984C1182.63 284.535 1218.52 279.699 1252.81 275.106C1343.08 263.229 1410.07 262.715 1445.23 190.153C1468.73 141.859 1454.52 80.3888 1515.44 63.8577C1607.58 38.8343 1688.44 244.25 1774.82 332.889C1792.86 351.415 1808.78 358.789 1824.34 361.026C1875.44 368.309 1925.53 328.477 2012.39 339.78C2090.15 349.904 2116.38 469.551 2306.09 424.944" stroke="#4844FF" stroke-width="0.8708" stroke-miterlimit="10" stroke-linecap="round"/>
<path d="M-409.644 284.565C-296.122 313.639 -183.142 306.657 -78.1545 289.34C-42.5958 283.477 -7.64023 276.466 26.8629 269.304C95.5676 255.069 164.544 240.261 236.807 233.098C314.379 225.392 397.169 227.235 478.541 246.607C510.571 254.344 542.028 264.71 572.369 277.645C642.793 307.715 703.535 349.693 770.008 383.42C837.838 417.842 899.334 402.399 971.93 378.887C1003.33 368.702 1027.91 354.498 1049.68 339.871C1080.78 318.957 1107.89 305.539 1142.06 294.539C1178.41 282.843 1214.81 279.126 1249.22 274.925C1339.82 264.166 1405.03 261.023 1439.92 188.522C1463.18 140.288 1450.27 79.4521 1510.8 62.8605C1603.57 37.4443 1684.49 241.832 1771.2 330.895C1789.15 349.33 1805.07 356.946 1820.67 359.515C1872.18 368.007 1923 330.321 2009.95 341.08C2088.19 350.72 2117.38 465.078 2305.19 420.32" stroke="#4844FF" stroke-width="0.8888" stroke-miterlimit="10" stroke-linecap="round"/>
<path d="M-409.162 284.716C-296.212 313.699 -183.836 306.687 -79.3912 289.34C-44.0134 283.477 -9.26897 276.435 25.0231 269.243C93.2754 254.948 161.859 240.049 233.671 232.675C310.76 224.757 392.946 226.298 473.986 245.247C505.866 252.802 537.142 262.957 567.362 275.68C637.454 305.146 698.227 346.308 764.549 379.279C832.258 412.946 892.488 395.025 964.601 370.727C995.605 360.27 1020.28 346.217 1042.47 332.073C1073.99 312.006 1102.22 300.522 1137.33 291.032C1174.15 281.09 1211.13 278.46 1245.66 274.683C1336.6 265.012 1400.05 259.27 1434.62 186.859C1457.66 138.686 1446.02 78.4546 1506.16 61.8328C1599.56 35.9934 1680.54 239.354 1767.58 328.87C1785.44 347.244 1801.36 355.072 1816.96 357.973C1868.89 367.644 1920.46 332.164 2007.48 342.318C2086.19 351.506 2118.35 460.545 2304.22 415.605" stroke="#4844FF" stroke-width="0.9067" stroke-miterlimit="10" stroke-linecap="round"/>
<path d="M-408.709 284.867C-296.333 313.729 -184.56 306.717 -80.6581 289.31C-45.4914 283.417 -10.9279 276.375 23.153 269.152C90.983 254.797 159.145 239.777 230.504 232.252C307.11 224.152 388.723 225.331 469.402 243.857C501.1 251.231 532.255 261.204 562.355 273.655C632.146 302.517 692.918 342.862 759.059 375.078C826.678 407.99 885.611 387.56 957.241 362.506C987.884 351.778 1012.65 337.876 1035.27 324.246C1067.2 304.995 1096.52 295.445 1132.59 287.497C1169.9 279.276 1207.45 277.765 1242.07 274.411C1333.34 265.828 1395.05 257.487 1429.28 185.136C1452.11 137.054 1441.73 77.3967 1501.48 60.7145C1595.49 34.4822 1676.56 236.785 1763.96 326.754C1781.73 345.038 1797.65 353.107 1813.28 356.371C1865.66 367.251 1917.96 333.947 2005 343.497C2084.2 352.201 2119.31 455.951 2303.26 410.83" stroke="#4844FF" stroke-width="0.9247" stroke-miterlimit="10" stroke-linecap="round"/>
<path d="M-408.256 285.019C-296.452 313.79 -185.252 306.779 -81.9235 289.311C-46.9378 283.417 -12.5855 276.346 21.2843 269.092C88.6921 254.677 156.432 239.566 227.338 231.829C303.462 223.518 384.472 224.395 464.819 242.498C496.336 249.69 527.341 259.482 557.32 271.691C626.778 299.979 687.581 339.509 753.572 370.939C821.07 403.125 878.766 380.187 949.914 354.377C980.194 343.377 1005.05 329.626 1028.09 316.48C1060.42 298.075 1090.85 290.429 1127.86 284.022C1165.65 277.494 1203.77 277.162 1238.52 274.2C1330.11 266.705 1390.07 255.795 1424 183.505C1446.62 135.483 1437.51 76.4305 1496.87 59.718C1591.51 33.0626 1672.64 234.338 1760.38 324.76C1778.05 342.984 1793.97 351.295 1809.6 354.861C1862.41 366.95 1915.43 335.821 2002.56 344.797C2082.27 353.018 2120.34 451.479 2302.35 406.207" stroke="#4844FF" stroke-width="0.9426" stroke-miterlimit="10" stroke-linecap="round"/>
<path d="M-407.804 285.14C-296.573 313.82 -185.976 306.779 -83.1605 289.28C-48.3558 283.357 -14.2145 276.285 19.4441 269.002C86.4297 254.526 153.747 239.324 224.171 231.406C299.812 222.884 380.249 223.428 460.204 241.107C491.54 248.149 522.394 257.729 552.283 269.697C621.409 297.38 682.242 336.093 748.052 366.768C815.46 398.199 871.889 372.782 942.524 346.187C972.443 334.945 997.355 321.285 1020.85 308.652C1053.57 291.063 1085.12 285.291 1123.09 280.486C1161.34 275.65 1200.06 276.466 1234.93 273.928C1326.85 267.521 1385.03 254.012 1418.66 181.782C1441.04 133.821 1433.2 75.3726 1492.19 58.6299C1587.44 31.5816 1668.66 231.829 1756.73 322.705C1774.31 340.838 1790.26 349.391 1805.86 353.289C1859.09 366.587 1912.86 337.605 2000.06 346.006C2080.25 353.743 2121.27 446.885 2301.36 401.463" stroke="#4844FF" stroke-width="0.9606" stroke-miterlimit="10" stroke-linecap="round"/>
<path d="M-407.382 285.2C-296.724 313.76 -186.73 306.718 -84.4573 289.19C-49.8637 283.266 -15.9034 276.164 17.5442 268.851C84.1075 254.314 151.003 238.992 220.974 230.892C296.133 222.189 375.967 222.4 455.589 239.657C486.775 246.517 517.448 255.886 547.216 267.611C616.011 294.69 676.904 332.588 742.503 362.507C809.79 393.182 864.953 365.287 935.135 337.937C964.692 326.422 989.664 312.913 1013.61 300.795C1046.76 284.022 1082.44 286.591 1118.33 276.92C1153.98 267.309 1196.35 275.771 1231.34 273.656C1323.6 268.337 1380.03 252.229 1413.35 180.09C1435.52 132.219 1428.95 74.345 1487.55 57.5721C1583.43 30.1008 1664.74 229.321 1753.14 320.65C1770.6 338.692 1786.58 347.487 1802.21 351.718C1855.86 366.254 1910.39 339.387 1997.61 347.245C2078.29 354.498 2122.27 442.352 2300.42 396.778" stroke="#4844FF" stroke-width="0.9785" stroke-miterlimit="10" stroke-linecap="round"/>
<path d="M-406.959 285.261C-296.875 313.729 -187.454 306.657 -85.7542 289.099C-51.3415 283.145 -17.5622 276.043 15.6139 268.699C81.755 254.102 148.228 238.689 217.747 230.409C292.393 221.493 371.684 221.372 450.945 238.236C481.949 244.915 512.471 254.102 542.149 265.586C610.612 292.06 671.536 329.142 736.983 358.306C804.18 388.225 858.076 357.853 927.746 329.716C956.911 317.93 982.004 304.542 1006.37 292.937C1039.91 276.95 1076.41 281.362 1113.53 273.353C1150 265.496 1192.61 275.046 1227.69 273.353C1320.28 269.152 1374.96 250.415 1407.96 178.337C1429.91 130.527 1424.6 73.2568 1482.78 56.4235C1579.26 28.529 1660.67 226.722 1749.4 318.504C1766.77 336.486 1782.75 345.522 1798.38 350.086C1852.45 365.861 1907.71 341.14 1995.02 348.393C2076.18 355.163 2123.11 437.728 2299.37 391.973" stroke="#4844FF" stroke-width="0.9965" stroke-miterlimit="10" stroke-linecap="round"/>
<path d="M-406.537 285.291C-297.056 313.639 -188.208 306.597 -87.0513 288.948C-52.8195 282.994 -19.2514 275.832 13.7136 268.488C79.4325 253.83 145.483 238.296 214.55 229.834C288.713 220.708 367.401 220.284 446.3 236.695C477.124 243.192 507.495 252.198 537.052 263.411C605.183 289.28 666.137 325.546 731.403 353.954C798.479 383.148 851.139 350.297 920.326 321.375C949.129 309.317 974.283 296.08 999.074 284.958C1033 269.787 1070.25 275.983 1108.71 269.666C1145.95 263.562 1188.84 274.2 1224.04 272.93C1316.96 269.817 1369.86 248.481 1402.56 176.494C1424.27 128.774 1420.23 72.0783 1478.05 55.2147C1575.16 26.8972 1656.62 224.062 1745.69 316.298C1762.97 334.189 1778.95 343.467 1794.61 348.363C1849.14 365.378 1905.11 342.772 1992.49 349.451C2074.13 355.707 2124.05 433.013 2298.34 387.077" stroke="#4844FF" stroke-width="1.0144" stroke-miterlimit="10" stroke-linecap="round"/>
<path d="M-406.116 285.29C-297.207 313.547 -188.963 306.476 -88.3187 288.796C-54.2981 282.812 -20.9109 275.65 11.843 268.276C77.1396 253.558 142.768 237.933 211.352 229.29C285.033 219.982 363.118 219.196 441.685 235.213C472.327 241.56 502.578 250.354 532.014 261.325C599.844 286.62 660.798 322.04 725.913 349.692C792.869 378.131 844.292 342.802 912.966 313.094C941.407 300.794 966.621 287.648 991.865 277.07C1026.19 262.685 1064.22 270.603 1103.94 266.07C1141.97 261.718 1185.13 273.474 1220.45 272.597C1313.7 270.572 1364.86 246.667 1397.25 174.71C1418.75 127.051 1415.98 70.9595 1473.4 54.0657C1571.12 25.325 1652.67 221.493 1742.1 314.182C1759.29 332.013 1775.27 341.533 1790.93 346.731C1845.85 364.984 1902.58 344.494 1990.01 350.629C2072.17 356.402 2125.01 428.419 2297.38 382.332" stroke="#4844FF" stroke-width="1.0324" stroke-miterlimit="10" stroke-linecap="round"/>
<path d="M-405.724 285.23C-297.388 313.396 -189.747 306.294 -89.6458 288.585C-55.8061 282.601 -22.63 275.408 9.91273 268.004C74.7871 253.225 139.993 237.51 208.125 228.655C281.323 219.136 358.835 218.048 437.04 233.612C467.532 239.777 497.602 248.39 526.917 259.119C594.415 283.81 655.429 318.413 720.334 345.31C787.199 372.993 837.355 335.216 905.517 304.723C933.596 292.151 958.87 279.125 984.566 269.061C1019.25 255.492 1056.29 258.907 1099.11 262.352C1139.65 265.586 1181.36 272.597 1216.77 272.144C1310.36 271.207 1359.76 244.703 1391.82 172.836C1413.11 125.237 1411.6 69.7507 1468.64 52.8266C1566.96 23.6629 1648.6 218.803 1738.36 311.946C1755.46 329.686 1771.44 339.478 1787.13 344.978C1842.47 364.471 1899.96 346.096 1987.45 351.657C2070.09 356.915 2125.88 423.675 2296.35 377.406" stroke="#4844FF" stroke-width="1.0503" stroke-miterlimit="10" stroke-linecap="round"/>
<path d="M-405.331 285.14C-297.569 313.186 -190.5 306.114 -90.9719 288.344C-57.3132 282.329 -24.3482 275.137 7.98341 267.702C72.4355 252.863 137.219 237.027 204.899 227.991C277.615 218.26 354.523 216.839 432.366 232.011C462.677 237.995 492.596 246.396 521.821 256.883C588.988 280.969 650.032 314.757 714.785 340.899C781.53 367.826 830.449 327.571 898.128 296.292C925.876 283.478 951.18 270.543 977.329 260.993C1012.41 248.209 1050.56 253.438 1094.35 258.545C1135.34 263.35 1177.65 271.631 1213.18 271.601C1307.1 271.752 1354.75 242.649 1386.48 170.842C1407.56 123.334 1407.29 68.3915 1463.96 51.4372C1562.92 21.8504 1644.62 215.963 1734.71 309.559C1751.72 327.239 1767.7 337.242 1783.39 343.105C1839.15 363.867 1897.36 347.578 1984.95 352.594C2068.07 357.369 2126.82 418.84 2295.36 372.389" stroke="#4844FF" stroke-width="1.0683" stroke-miterlimit="10" stroke-linecap="round"/>
<path d="M-404.969 284.988C-297.78 312.943 -191.315 305.841 -92.3296 288.041C-58.8821 282.027 -26.098 274.804 6.02246 267.339C70.0524 252.44 134.414 236.513 201.641 227.296C273.844 217.383 350.21 215.63 427.691 230.348C457.821 236.15 487.589 244.371 516.693 254.616C583.528 278.128 644.602 311.07 709.175 336.456C775.829 362.627 823.512 319.924 890.648 287.829C918.034 274.743 943.398 261.899 970 252.923C1005.47 240.925 1044.74 247.937 1089.46 254.767C1130.93 261.113 1173.82 270.724 1209.47 271.117C1303.72 272.386 1349.59 240.653 1381.05 168.938C1401.89 121.49 1402.92 67.1518 1459.2 50.1673C1558.75 20.1272 1640.73 213.122 1731 307.292C1747.95 324.851 1763.87 335.156 1779.59 341.321C1835.78 363.353 1894.74 349.118 1982.38 353.591C2065.99 357.852 2127.73 414.034 2294.3 367.463" stroke="#4844FF" stroke-width="1.0863" stroke-miterlimit="10" stroke-linecap="round"/>
<path d="M-404.608 284.777C-297.992 312.641 -192.13 305.509 -93.657 287.648C-60.3904 281.634 -27.8175 274.381 4.09184 266.886C67.6995 251.926 131.639 235.909 198.383 226.479C270.104 216.355 345.866 214.27 423.016 228.595C452.965 234.246 482.582 242.255 511.596 252.258C578.099 275.166 639.203 307.292 703.625 331.922C770.158 357.339 816.605 312.188 883.259 279.307C910.282 265.979 935.707 253.226 962.761 244.763C998.621 233.551 1039.01 242.316 1084.7 250.898C1126.65 258.786 1170.11 269.696 1205.85 270.512C1300.43 272.869 1344.56 238.538 1375.68 166.883C1396.31 119.495 1398.57 65.7616 1454.49 48.7469C1554.65 18.2837 1636.72 210.251 1727.32 304.874C1744.18 322.372 1760.1 332.92 1775.85 339.387C1832.43 362.688 1892.14 350.539 1979.85 354.467C2063.94 358.215 2128.63 409.138 2293.3 362.386" stroke="#4844FF" stroke-width="1.1042" stroke-miterlimit="10" stroke-linecap="round"/>
<path d="M-404.305 284.475C-298.262 312.219 -192.974 305.086 -95.0739 287.195C-61.9883 281.151 -29.5964 273.898 2.07174 266.373C65.2572 251.352 128.774 235.214 195.066 225.634C266.304 215.298 341.494 212.911 418.251 226.782C448.049 232.252 477.516 240.08 506.379 249.811C572.55 272.115 633.685 303.424 697.926 327.269C764.368 351.93 809.578 304.331 875.689 270.634C902.351 257.034 927.836 244.402 955.312 236.453C991.534 225.997 1033.09 236.544 1079.72 246.88C1122.19 256.309 1166.19 268.548 1202.05 269.757C1296.97 273.203 1339.34 236.302 1370.16 164.707C1390.58 117.411 1394.11 64.221 1449.64 47.2063C1550.4 16.2897 1632.56 207.29 1723.49 302.366C1740.23 319.774 1756.18 330.593 1771.93 337.393C1828.9 361.993 1889.37 351.899 1977.17 355.254C2061.73 358.488 2129.38 404.152 2292.13 357.249" stroke="#4844FF" stroke-width="1.1222" stroke-miterlimit="10" stroke-linecap="round"/>
<path d="M-404.004 284.081C-298.565 311.734 -193.849 304.602 -96.4919 286.65C-63.6174 280.606 -31.4064 273.323 0.0505318 265.767C62.7835 250.687 125.909 234.458 191.748 224.666C262.504 214.149 337.09 211.399 413.515 224.878C443.132 230.166 472.448 237.843 501.221 247.302C567.06 269.122 628.255 299.494 692.315 322.584C758.637 346.489 802.641 296.442 868.239 261.959C894.539 248.118 920.084 235.546 948.012 228.172C984.627 218.501 1027.33 230.771 1074.87 242.89C1117.84 253.83 1162.39 267.399 1198.37 269.031C1293.62 273.564 1334.24 234.065 1364.73 162.531C1384.94 115.294 1389.71 62.709 1444.84 45.6641C1546.21 14.3244 1628.45 204.297 1719.75 299.827C1736.4 317.174 1752.35 328.235 1768.13 335.337C1825.49 361.207 1886.75 353.168 1974.6 355.978C2059.62 358.698 2130.26 399.105 2291.07 352.019" stroke="#4844FF" stroke-width="1.1401" stroke-miterlimit="10" stroke-linecap="round"/>
<path d="M-403.733 283.567C-298.866 311.099 -194.754 303.967 -97.9399 285.985C-65.2463 279.911 -33.2465 272.627 -2.00063 265.042C60.3101 249.901 123.013 233.581 188.37 223.608C258.643 212.879 332.626 209.827 408.72 222.852C438.156 227.96 467.321 235.455 495.973 244.642C561.48 265.888 622.706 295.414 686.585 317.748C752.816 340.898 795.553 288.433 860.639 253.104C886.606 239.021 912.182 226.509 940.563 219.679C977.539 210.764 1021.45 224.817 1069.89 238.689C1113.38 251.17 1158.47 266.039 1194.57 268.094C1290.15 273.715 1328.99 231.617 1359.18 160.173C1379.15 112.997 1385.21 60.9862 1439.95 43.911C1541.92 12.118 1624.26 201.093 1715.89 297.076C1732.45 314.333 1748.37 325.636 1764.17 333.07C1821.93 360.209 1883.94 354.255 1971.86 356.522C2057.36 358.728 2130.98 393.876 2289.87 346.609" stroke="#4844FF" stroke-width="1.1581" stroke-miterlimit="10" stroke-linecap="round"/>
<path d="M-403.521 282.903C-299.228 310.344 -195.688 303.182 -99.417 285.17C-66.9044 279.095 -35.1157 271.781 -4.08092 264.166C57.8076 248.964 120.088 232.524 184.993 222.369C254.783 211.429 328.193 208.044 403.925 220.677C433.18 225.633 462.194 232.917 490.756 241.862C555.932 262.503 617.187 291.214 680.915 312.792C747.026 335.186 788.557 280.274 853.129 244.159C878.735 229.834 904.371 217.383 933.204 211.097C970.573 202.967 1015.66 218.743 1064.97 234.397C1109.01 248.39 1154.61 264.619 1190.8 267.067C1286.71 273.776 1323.81 229.078 1353.7 157.695C1373.45 110.61 1380.75 59.1732 1435.13 42.0678C1537.7 9.82149 1620.13 197.829 1712.09 294.236C1728.56 311.432 1744.48 322.977 1760.28 330.713C1818.4 359.152 1881.2 355.223 1969.2 356.946C2055.19 358.638 2131.77 388.527 2288.72 341.11" stroke="#4844FF" stroke-width="1.176" stroke-miterlimit="10" stroke-linecap="round"/>
<path d="M-403.371 282.057C-299.65 309.407 -196.714 302.245 -100.986 284.142C-68.6842 278.037 -37.0764 270.724 -6.25281 263.078C55.2135 247.816 117.072 231.285 181.524 220.949C250.802 209.827 323.638 206.11 399.008 218.289C428.113 223.064 456.946 230.167 485.387 238.87C550.261 258.907 611.517 286.802 675.064 307.624C741.084 329.263 781.408 271.933 845.408 234.972C870.652 220.375 896.349 208.014 925.634 202.302C963.394 194.928 1009.69 212.457 1059.88 229.895C1104.48 245.398 1150.57 262.957 1186.88 265.858C1283.09 273.685 1318.47 226.359 1348.03 155.066C1367.57 108.041 1376.11 57.1787 1430.12 40.0733C1533.27 7.37369 1615.85 194.384 1708.14 291.244C1724.51 308.35 1740.44 320.166 1756.27 328.235C1814.78 357.973 1878.33 356.069 1966.43 357.278C2052.9 358.427 2132.43 383.087 2287.45 335.488" stroke="#4844FF" stroke-width="1.194" stroke-miterlimit="10" stroke-linecap="round"/>
<path d="M-403.28 280.999C-300.133 308.228 -197.8 301.066 -102.614 282.933C-70.4939 276.828 -39.0972 269.484 -8.48473 261.808C52.5593 246.486 113.995 229.864 177.995 219.317C246.79 207.984 319.054 203.964 394.062 215.72C422.986 220.314 451.668 227.235 480.018 235.667C544.561 255.099 605.877 282.177 669.243 302.245C735.143 323.128 774.26 263.38 837.717 225.573C862.629 210.734 888.356 198.434 918.064 193.266C956.186 186.647 1003.72 205.898 1054.78 225.149C1099.96 242.164 1146.53 261.083 1182.96 264.377C1279.5 273.292 1313.13 223.397 1342.39 152.165C1361.69 105.231 1371.52 54.9421 1425.15 37.8065C1528.9 4.65349 1611.56 190.667 1704.19 288.01C1720.47 305.055 1736.37 317.113 1752.23 325.485C1811.1 356.522 1875.44 356.673 1963.59 357.308C2050.52 357.943 2133.03 377.315 2286.16 329.565" stroke="#4844FF" stroke-width="1.2119" stroke-miterlimit="10" stroke-linecap="round"/>
<path d="M-403.19 279.881C-300.616 307.02 -198.855 299.827 -104.243 281.664C-72.3037 275.529 -41.1181 268.185 -10.7168 260.479C49.9051 245.096 110.919 228.353 174.436 217.625C242.749 206.08 314.409 201.728 389.085 213.091C417.828 217.504 446.39 224.213 474.589 232.433C538.8 251.261 600.146 277.524 663.331 296.835C729.141 316.963 767.052 254.797 829.966 216.174C854.516 201.093 880.303 188.854 910.463 184.23C948.978 178.337 997.716 199.371 1049.62 220.405C1095.4 238.931 1142.42 259.179 1178.95 262.896C1275.82 272.9 1307.67 220.405 1336.63 149.233C1355.72 102.36 1366.79 52.6455 1420.05 35.4797C1524.37 1.87336 1607.16 186.889 1700.11 284.686C1716.31 301.64 1732.21 313.971 1748.1 322.644C1807.33 354.981 1872.75 358.155 1960.7 357.278C2047.8 356.402 2133.61 371.512 2284.77 323.611" stroke="#4844FF" stroke-width="1.2299" stroke-miterlimit="10" stroke-linecap="round"/>
<path d="M-403.341 278.037C-301.339 305.086 -200.182 297.863 -106.083 279.669C-74.3544 273.534 -43.3196 266.13 -13.1595 258.424C47.04 242.98 107.632 226.147 170.696 215.237C238.527 203.511 309.614 198.827 383.898 209.737C412.46 213.998 440.871 220.496 468.98 228.474C532.859 246.728 594.235 272.023 657.269 290.7C722.958 309.951 759.663 245.489 822.034 206.02C846.253 190.697 872.07 178.518 902.682 174.468C941.589 169.331 991.594 192.118 1044.31 214.935C1090.7 235.002 1138.17 256.55 1174.82 260.69C1272.02 271.782 1302.12 216.688 1330.74 145.607C1349.62 98.7938 1361.93 49.6838 1414.83 32.4878C1519.76 -1.60206 1602.64 182.477 1695.95 280.697C1712.03 297.591 1727.92 310.163 1743.85 319.139C1803.44 352.775 1869.62 357.852 1957.68 356.553C2045.3 355.253 2134.03 365.015 2283.26 316.932" stroke="#4844FF" stroke-width="1.2478" stroke-miterlimit="10" stroke-linecap="round"/>
<path d="M-403.672 275.529C-302.244 302.457 -201.69 295.264 -108.133 277.01C-76.5857 270.845 -45.7621 263.441 -15.8131 255.704C43.9642 240.2 104.134 223.276 166.746 212.155C234.093 200.217 304.578 195.201 378.53 205.718C406.941 209.798 435.171 216.114 463.159 223.82C526.707 241.47 588.113 265.949 650.966 283.871C716.565 302.366 752.063 235.486 813.891 195.201C837.778 179.637 863.625 167.488 894.69 164.012C933.959 159.63 985.231 184.17 1038.8 208.77C1085.78 230.348 1133.71 253.256 1170.47 257.789C1268.01 269.969 1296.36 212.276 1324.68 141.255C1343.35 94.5329 1356.92 45.9669 1409.43 28.7709C1514.93 -5.77227 1597.93 177.31 1691.58 275.983C1707.57 292.786 1723.43 305.63 1739.38 314.938C1799.31 349.874 1866.03 356.1 1954.46 355.133C2042.79 354.166 2134.24 357.823 2281.57 309.559" stroke="#4844FF" stroke-width="1.2658" stroke-miterlimit="10" stroke-linecap="round"/>
<path d="M-404.034 272.93C-303.209 299.767 -203.228 292.544 -110.215 274.23C-78.848 268.064 -48.2355 260.63 -18.4976 252.833C40.8574 237.269 100.605 220.224 162.765 208.951C229.599 196.802 299.511 191.483 373.131 201.547C401.361 205.445 429.44 211.58 457.338 219.045C520.584 236.09 581.99 259.753 644.693 276.919C710.17 294.69 744.493 225.361 805.748 184.23C829.273 168.424 855.18 156.305 886.698 153.404C926.358 149.747 978.897 176.07 1033.25 202.454C1080.87 225.573 1129.21 249.78 1166.07 254.737C1263.94 268.004 1290.51 207.712 1318.53 136.782C1336.96 90.1203 1351.8 42.1285 1403.94 24.9325C1510.05 -10.0942 1593.14 172.02 1687.12 271.147C1703.01 287.859 1718.84 300.976 1734.86 310.586C1795.15 346.822 1862.65 355.072 1951.14 353.591C2039.96 352.11 2134.36 350.509 2279.76 302.094" stroke="#4844FF" stroke-width="1.2838" stroke-miterlimit="10" stroke-linecap="round"/>
<path d="M-404.427 270.361C-304.175 297.077 -204.767 289.854 -112.326 271.509C-81.1708 265.314 -50.7393 257.879 -21.2126 250.052C37.7202 234.427 97.015 217.292 158.723 205.808C225.075 193.477 294.413 187.796 367.642 197.467C395.69 201.184 423.619 207.137 451.396 214.36C514.31 230.801 575.746 253.648 638.268 270.059C703.625 287.073 736.771 215.328 797.483 173.38C820.676 157.332 846.614 145.274 878.584 142.947C918.636 140.046 972.472 168.122 1027.6 196.258C1075.86 220.888 1124.63 246.425 1161.61 251.835C1259.81 266.22 1284.63 203.33 1312.32 132.43C1330.53 85.8285 1346.61 38.411 1398.36 21.1847C1505.04 -14.2953 1588.25 166.822 1682.59 266.432C1698.4 283.084 1714.23 296.442 1730.24 306.355C1790.87 343.89 1859.18 354.165 1947.76 352.14C2037.03 350.115 2134.45 343.285 2277.92 294.689" stroke="#4844FF" stroke-width="1.3017" stroke-miterlimit="10" stroke-linecap="round"/>
<path d="M-404.758 267.793C-305.079 294.418 -206.274 287.195 -114.346 268.79C-83.3719 262.594 -53.1515 255.13 -23.8358 247.272C34.6747 231.587 93.5473 214.331 154.802 202.695C220.672 190.154 289.407 184.17 362.304 193.387C390.172 196.953 417.979 202.665 445.636 209.646C508.218 225.482 569.715 247.544 632.056 263.169C697.322 279.428 729.292 205.295 789.401 162.471C812.262 146.181 838.23 134.153 870.622 132.4C911.067 130.224 966.169 160.083 1022.09 190.002C1071.01 216.174 1120.17 243.041 1157.26 248.844C1255.8 264.317 1278.87 198.827 1306.25 128.018C1324.26 81.5074 1341.51 34.5432 1392.96 17.4076C1500.09 -18.7977 1583.55 161.624 1678.22 261.658C1693.93 278.219 1709.74 291.849 1725.81 302.064C1786.77 340.898 1855.89 353.198 1944.56 350.66C2034.32 348.091 2134.69 336.002 2276.23 287.285" stroke="#4844FF" stroke-width="1.3197" stroke-miterlimit="10" stroke-linecap="round"/>
<path d="M-405.15 265.224C-306.044 291.758 -207.843 284.505 -116.458 266.07C-85.6643 259.874 -55.655 252.379 -26.5505 244.492C31.5379 228.746 89.9881 211.399 150.791 199.552C216.178 186.799 284.34 180.482 356.875 189.307C384.592 192.692 412.219 198.223 439.755 204.962C502.005 220.224 563.532 241.439 625.692 256.308C690.838 271.812 721.631 195.261 781.167 151.591C803.697 135.06 829.695 123.062 862.539 121.883C903.376 120.432 959.805 152.104 1016.48 183.777C1066.06 211.49 1115.61 239.656 1152.83 245.882C1251.69 262.443 1273.02 194.354 1300.07 123.606C1317.87 77.1552 1336.38 30.7955 1387.45 13.6297C1495.18 -22.9686 1578.72 156.396 1673.72 256.882C1689.35 273.383 1705.12 287.225 1721.23 297.802C1782.48 337.936 1852.39 352.11 1941.18 349.179C2031.33 345.945 2134.75 328.749 2274.36 279.851" stroke="#4844FF" stroke-width="1.3376" stroke-miterlimit="10" stroke-linecap="round"/>
<path d="M-405.512 262.624C-306.979 289.038 -209.351 281.784 -118.539 263.319C-87.9565 257.094 -58.098 249.599 -29.2348 241.681C28.4313 225.875 86.4594 208.437 146.81 196.409C211.714 183.474 279.273 176.825 351.476 185.197C379.012 188.4 406.488 193.749 433.934 200.217C495.853 214.874 557.409 235.274 619.418 249.387C684.474 264.165 714.182 185.287 773.054 140.68C795.282 123.968 821.28 111.94 854.577 111.366C895.806 110.64 953.532 144.095 1010.99 177.551C1061.23 206.805 1111.18 236.301 1148.49 242.92C1247.68 260.569 1267.23 189.881 1294.01 119.223C1311.56 72.8633 1331.38 27.108 1382.05 9.88176C1490.41 -27.1396 1574.05 151.197 1669.38 252.137C1684.88 268.547 1700.66 282.661 1716.82 293.541C1778.41 334.974 1849.17 351.233 1938.02 347.698C2028.65 343.98 2135.02 321.495 2272.73 272.416" stroke="#4844FF" stroke-width="1.3556" stroke-miterlimit="10" stroke-linecap="round"/>
<path d="M-405.874 260.025C-274.919 295.203 -145.653 270.361 -31.9189 238.87C86.8817 205.959 207.432 165.704 346.047 181.087C435.08 190.969 523.811 223.215 613.055 242.497C702.299 261.778 722.657 100.849 846.494 100.849C924.548 100.849 1063.8 224.878 1144.02 239.958C1308.85 270.996 1249.52 49.7139 1376.5 6.10428C1503.05 -37.3542 1595.52 208.709 1712.21 289.28C1837.52 375.804 2002.59 362.325 2270.87 265.042" stroke="#4844FF" stroke-width="1.3735" stroke-miterlimit="10" stroke-linecap="round"/>
</g>
</svg>
