<svg width="266" height="608" viewBox="0 0 266 608" fill="none" xmlns="http://www.w3.org/2000/svg">
<path d="M238.647 29.3499C222.689 -12.1704 143.74 -32.674 156.768 49.9967C158.904 63.5518 159.119 86.8927 156.768 115.303C154.615 141.329 112.452 155.57 99.51 189.198C79.2126 241.936 155.103 278.696 143.026 306.42C127.209 342.731 78.7754 358.486 51.9857 378.351C26.7661 397.053 10.7019 427.061 4.53388 457.911C-6.28717 512.036 13.3504 568.756 67.4454 571.578C94.5251 572.991 130.24 560.897 175.091 528.209C195.144 513.594 212.826 501.55 228.542 491.811C268.99 466.745 258.115 526.036 306.212 528.209C333.618 529.447 362.241 478.261 383.909 505.564C399.316 524.978 416.997 548.534 442.246 572.752C486.588 615.282 542.028 621.544 549.87 560.845C553.572 532.191 546.667 488.616 522.98 426.89C507.822 387.389 545.526 388.782 549.87 338.163C554.214 287.545 518.691 264.201 544.406 243.251L544.921 242.831C564.522 226.865 585.427 209.836 596.843 177.128C606.678 148.953 605.738 121.048 596.843 99.6056C587.324 76.6576 568.693 61.112 544.406 60.5606C520.037 60.0073 489.974 74.5496 457.706 111.856C436.431 136.453 422.024 79.2199 383.909 85.0705C345.794 90.9211 340.497 146.144 317.664 130.127C278.001 102.305 257.337 77.9775 238.647 29.3499Z" stroke="white" stroke-width="3"/>
</svg>
