<svg width="1440" height="1575" viewBox="0 0 1440 1575" fill="none" xmlns="http://www.w3.org/2000/svg">
<g opacity="0.1">
<path d="M2405.38 478.314C1965.71 605.101 2044.08 682.197 1870.99 691.079C1697.15 700.009 1603.93 628.406 1446.53 676.532C1342.14 708.436 1244.18 764.612 1128.18 755.266C1017.29 746.337 929.53 679.671 822.303 655.279C680.262 622.961 515.81 680.916 473.652 778.152C450.473 831.644 456.39 897.852 395.695 933.164C330.241 971.248 224.81 948.453 154.907 909.217C84.9953 869.95 31.2923 816.389 -45.1361 783.915C-163.595 733.616 -326.564 748.749 -413.627 818.124C-500.681 887.529 -502.265 1003.58 -417.189 1080.5C-364.695 1127.97 -287.447 1158.63 -226.667 1201.05C-166.758 1242.88 -122.707 1307.82 -158.651 1357.96" stroke="#4844FF" stroke-width="0.6868" stroke-miterlimit="10" stroke-linecap="round"/>
<path d="M2405.24 479.796C2155.08 551.237 2072.46 607.407 2014.77 644.206C1972.84 671.127 1944.48 687.36 1871.39 691.433C1739.95 698.811 1654.46 660.284 1551.87 662.687C1519.85 663.477 1486.18 668.192 1448.93 679.532C1344.59 711.255 1246.41 766.453 1130.65 756.873C1126.37 756.523 1122.16 756.086 1117.93 755.555C1013.19 742.651 928.215 680.45 825.455 656.824C739.12 636.94 644.309 649.948 573.662 685.43C527.924 708.382 493.077 740.75 476.94 779.121C463.354 811.332 460.171 848.105 446.77 880.029C437.845 901.42 424.324 920.542 400.42 934.828C335.36 973.703 230.371 951.52 160.54 913.47C127.216 895.33 97.6655 874.131 67.9037 853.831C35.2551 831.509 2.54546 809.909 -36.5984 793.871C-61.5158 783.713 -88.5941 776.52 -116.995 771.951C-219.799 755.409 -334.898 773.022 -403.741 824.845C-418.218 835.727 -430.409 847.933 -440.258 861.076C-490.417 927.456 -479.698 1021.18 -412.211 1083.86C-361.904 1130.59 -286.435 1158.54 -228.184 1199.14C-170.26 1239.53 -128.26 1302.91 -165.248 1352.92" stroke="#4844FF" stroke-width="0.6823" stroke-miterlimit="10" stroke-linecap="round"/>
<path d="M2405.18 481.353C2157.22 551.462 2073.56 607.26 2014.82 644.493C1972.78 671.144 1944.33 687.537 1871.89 691.893C1741.58 699.82 1656.27 662.749 1554.06 665.678C1522.12 666.614 1488.52 671.444 1451.43 682.669C1347.14 714.211 1248.75 768.43 1133.24 758.576C1128.99 758.218 1124.75 757.758 1120.55 757.249C1016.06 744.142 931.18 682.281 828.703 658.474C742.358 638.324 647.26 650.678 576.353 686.067C530.34 708.997 496.032 741.612 480.293 780.205C467.039 812.522 464.117 849.388 450.946 881.413C442.136 902.973 428.724 922.13 405.2 936.575C340.566 976.234 235.949 954.648 166.23 917.806C132.942 900.258 103.449 879.848 74.1616 860.619C41.9516 839.478 10.3344 819.006 -27.9337 803.924C-52.2981 794.412 -78.9343 787.83 -107.308 783.588C-209.281 768.316 -324.326 782.495 -393.738 831.632C-408.334 841.979 -420.575 853.662 -430.667 866.305C-481.655 930.376 -471.093 1026.12 -407.084 1087.29C-359.004 1133.24 -285.305 1158.52 -229.521 1197.28C-173.622 1236.2 -133.634 1298.05 -171.624 1347.94" stroke="#4844FF" stroke-width="0.6778" stroke-miterlimit="10" stroke-linecap="round"/>
<path d="M2405.23 483.017C2159.46 551.825 2074.84 607.295 2014.99 644.878C1972.93 671.303 1944.27 687.789 1872.52 692.45C1743.3 700.934 1658.19 665.35 1556.38 668.766C1524.53 669.879 1491 674.754 1454.03 685.912C1349.82 717.264 1251.18 770.514 1135.94 760.385C1131.68 759.996 1127.47 759.559 1123.27 759.019C1019.01 745.708 934.235 684.188 832.04 660.199C745.655 639.793 650.309 651.514 579.141 686.81C532.854 709.718 499.116 742.572 483.744 781.395C470.83 813.849 468.16 850.777 455.219 882.904C446.564 904.654 433.263 923.846 410.088 938.46C345.856 978.941 241.633 957.913 172.035 922.31C138.783 905.355 109.34 885.702 80.5038 867.583C48.7634 847.615 18.2209 828.209 -19.2156 814.163C-43.005 805.257 -69.2118 799.356 -97.5985 795.42C-198.748 781.387 -313.761 792.171 -383.702 838.645C-398.397 848.417 -410.779 859.604 -421.045 871.761C-472.958 933.415 -462.455 1031.29 -401.956 1090.95C-356.103 1136.13 -284.143 1158.73 -230.879 1195.69C-177.005 1233.15 -138.998 1293.45 -178.062 1343.21" stroke="#4844FF" stroke-width="0.6733" stroke-miterlimit="10" stroke-linecap="round"/>
<path d="M2405.4 484.778C2161.86 552.245 2076.21 607.406 2015.27 645.369C1973.21 671.591 1944.34 688.17 1873.21 693.123C1745.13 702.187 1660.2 668.058 1558.76 671.938C1526.95 673.206 1493.52 678.156 1456.71 689.2C1352.55 720.37 1253.7 772.642 1138.72 762.27C1134.46 761.881 1130.24 761.412 1126.07 760.864C1022.03 747.358 937.356 686.21 835.506 662.022C749.112 641.35 653.509 652.407 582.049 687.619C535.498 710.536 502.29 743.607 487.356 782.673C474.772 815.234 472.262 852.25 459.63 884.523C451.05 906.419 437.908 925.7 415.114 940.473C351.276 981.746 247.495 961.328 177.969 926.911C144.753 910.55 115.399 891.675 86.9667 874.614C55.6959 855.819 26.206 837.519 -10.3458 824.459C-33.5912 816.168 -59.3467 810.909 -87.7154 807.269C-188.011 794.467 -302.993 801.857 -373.463 845.666C-388.277 854.903 -400.748 865.546 -411.209 877.256C-464.07 936.534 -453.645 1036.47 -396.623 1094.61C-353.029 1139.04 -282.808 1158.95 -232.011 1194.07C-180.131 1230.05 -144.167 1288.83 -184.273 1338.46" stroke="#4844FF" stroke-width="0.6688" stroke-miterlimit="10" stroke-linecap="round"/>
<path d="M2405.69 486.637C2164.35 552.771 2077.75 607.636 2015.7 645.949C1973.61 671.945 1944.57 688.608 1874.1 693.875C1747.11 703.496 1662.37 670.855 1561.34 675.222C1529.62 676.667 1496.26 681.661 1459.57 692.638C1355.46 723.626 1256.39 774.921 1141.63 764.284C1137.41 763.886 1133.19 763.417 1129.02 762.868C1025.22 749.159 940.645 688.352 839.077 663.982C752.643 643.054 656.784 653.447 585.063 688.566C538.237 711.461 505.569 744.78 491.033 784.067C478.759 816.774 476.5 853.852 464.129 886.218C455.695 908.273 442.672 927.62 420.218 942.53C356.783 984.627 253.397 964.766 183.991 931.588C150.802 915.789 121.516 897.732 93.5568 881.742C62.7247 864.129 34.3492 846.917 -1.3798 834.862C-24.0413 827.208 -49.3543 822.559 -77.7579 819.265C-177.199 807.693 -292.181 811.698 -363.179 852.843C-378.092 861.504 -390.705 871.652 -401.338 882.875C-455.148 939.777 -444.83 1041.79 -391.216 1098.43C-349.88 1142.09 -281.359 1159.34 -233.1 1192.6C-183.235 1227.16 -149.292 1284.36 -190.441 1333.85" stroke="#4844FF" stroke-width="0.6643" stroke-miterlimit="10" stroke-linecap="round"/>
<path d="M2406.12 488.593C2167 553.386 2079.41 607.963 2016.23 646.635C1974.11 672.405 1944.87 689.192 1875.08 694.733C1749.23 704.934 1664.67 673.749 1564.02 678.611C1532.38 680.233 1499.08 685.311 1462.55 696.174C1358.52 726.972 1259.21 777.297 1144.71 766.385C1140.48 765.987 1136.29 765.479 1132.12 764.93C1028.53 751.026 944.084 690.551 842.83 665.991C756.387 644.797 660.239 654.536 588.266 689.592C541.167 712.465 509.038 746.032 494.899 785.54C482.956 818.353 480.928 855.533 468.786 888.001C460.467 910.224 447.595 929.629 425.49 944.707C362.489 987.618 259.496 968.315 190.171 936.354C157.019 921.147 127.821 903.87 100.275 888.968C69.9121 872.527 42.5893 856.422 7.74491 845.353C-14.3726 838.314 -39.2254 834.338 -67.611 831.34C-166.207 820.967 -281.149 821.609 -352.716 860.069C-367.717 868.185 -380.481 877.807 -391.287 888.543C-446.084 943.046 -435.884 1047.11 -385.66 1102.3C-346.622 1145.18 -279.8 1159.76 -234.008 1191.19C-186.168 1224.28 -154.236 1279.95 -196.397 1329.29" stroke="#4844FF" stroke-width="0.6598" stroke-miterlimit="10" stroke-linecap="round"/>
<path d="M2406.65 490.685C2169.73 554.178 2081.18 608.428 2016.9 647.449C1974.79 673.016 1945.33 689.864 1876.18 695.76C1751.42 706.518 1667.06 676.819 1566.81 682.168C1535.21 683.945 1502.03 689.09 1465.62 699.886C1361.64 730.502 1262.09 779.859 1147.87 768.663C1143.64 768.266 1139.45 767.757 1135.3 767.169C1031.96 753.061 947.607 692.926 846.644 668.216C760.161 646.766 663.756 655.84 591.523 690.804C544.119 713.664 512.701 747.496 498.819 787.199C487.318 820.153 485.44 857.391 473.528 889.96C465.355 912.343 452.58 931.854 430.846 947.06C368.257 990.825 265.649 972.049 196.467 941.287C163.35 926.673 134.212 910.183 107.099 896.331C77.215 881.093 50.9358 866.063 16.9452 855.99C-4.61938 849.597 -28.9987 846.223 -57.4193 843.57C-155.14 834.387 -270.102 831.684 -342.198 867.479C-357.328 875.03 -370.172 884.138 -381.151 894.387C-436.897 946.515 -426.853 1052.6 -380.027 1106.32C-343.327 1148.39 -278.059 1160.23 -234.862 1189.96C-188.972 1221.49 -159.096 1275.71 -202.33 1324.92" stroke="#4844FF" stroke-width="0.6553" stroke-miterlimit="10" stroke-linecap="round"/>
<path d="M2407.35 492.868C2172.62 555.028 2083.12 609.012 2017.73 648.352C1975.59 673.724 1945.93 690.666 1877.46 696.835C1753.83 708.142 1669.66 679.93 1569.78 685.744C1538.26 687.698 1505.16 692.887 1468.89 703.576C1364.99 734.003 1265.19 782.39 1151.24 770.952C1147.03 770.514 1142.85 770.036 1138.7 769.448C1035.57 755.176 951.326 695.515 850.694 670.442C764.175 648.868 667.54 657.137 595.014 692.017C547.337 714.854 516.458 748.934 503.005 788.85C491.845 821.941 490.187 859.249 478.545 891.943C470.487 914.494 457.862 934.062 436.469 949.406C374.283 993.994 272.077 975.806 203.007 946.252C169.917 932.2 140.877 916.52 114.207 903.747C84.7926 889.682 59.5661 875.758 26.4512 866.641C5.43068 860.863 -18.4974 858.131 -46.8999 855.774C-143.744 847.781 -258.698 841.724 -331.322 874.856C-346.55 881.831 -359.536 890.443 -370.679 900.237C-427.403 949.997 -417.565 1058.05 -374.019 1110.36C-339.687 1151.64 -276.017 1160.82 -235.318 1188.71C-191.422 1218.78 -163.589 1271.47 -207.866 1320.54" stroke="#4844FF" stroke-width="0.6509" stroke-miterlimit="10" stroke-linecap="round"/>
<path d="M2408.13 495.155C2175.63 555.974 2085.15 609.671 2018.62 649.369C1976.5 674.538 1946.62 691.573 1878.8 698.026C1756.28 709.921 1672.24 682.979 1572.81 689.465C1541.36 691.503 1508.34 696.869 1472.21 707.452C1368.35 737.697 1268.34 785.107 1154.61 773.403C1150.41 772.965 1146.25 772.448 1142.1 771.859C1039.22 757.384 955.044 698.104 854.716 672.809C768.167 651.009 671.274 658.615 598.488 693.402C550.537 716.217 520.228 750.536 507.151 790.712C496.322 823.91 494.894 861.32 483.482 894.115C475.579 916.856 463.073 936.491 442.02 951.972C380.277 997.405 278.491 979.633 209.467 951.406C176.435 937.908 147.462 923.046 121.195 911.331C92.2816 898.43 68.0768 885.621 35.8156 877.499C15.348 872.368 -8.10659 870.237 -36.5441 868.225C-132.512 861.423 -247.487 852.02 -320.641 882.488C-335.988 888.928 -349.094 897.005 -360.41 906.311C-418.113 953.704 -408.498 1063.66 -368.245 1114.64C-336.282 1155.12 -274.209 1161.65 -236.039 1187.71C-194.137 1216.3 -168.346 1267.47 -213.635 1316.4" stroke="#4844FF" stroke-width="0.6464" stroke-miterlimit="10" stroke-linecap="round"/>
<path d="M2409.05 497.54C2178.75 557.027 2087.31 610.427 2019.67 650.475C1977.52 675.419 1947.44 692.546 1880.27 699.313C1758.88 711.757 1674.99 686.28 1575.98 693.284C1544.58 695.508 1511.67 700.909 1475.68 711.417C1371.87 741.449 1271.65 787.912 1158.18 775.933C1153.98 775.496 1149.81 774.978 1145.67 774.39C1043 759.72 958.952 700.771 858.938 675.287C772.348 653.23 675.199 660.172 602.152 694.866C553.926 717.659 524.188 752.217 511.477 792.623C500.989 825.958 499.782 863.439 488.631 896.327C480.873 919.227 468.457 938.938 447.783 954.578C386.452 1000.86 285.082 983.61 216.148 956.632C183.143 943.695 154.268 929.643 128.413 919.017C99.9781 907.319 76.8171 895.585 45.4405 888.45C25.517 883.934 2.54454 882.436 -25.897 880.761C-120.998 875.117 -235.986 862.4 -309.677 890.173C-325.122 896.038 -338.37 903.619 -349.859 912.439C-408.541 957.465 -399.188 1069.31 -362.197 1118.94C-332.651 1158.57 -272.128 1162.49 -236.446 1186.76C-196.539 1213.87 -172.751 1263.53 -219.113 1312.34" stroke="#4844FF" stroke-width="0.6419" stroke-miterlimit="10" stroke-linecap="round"/>
<path d="M2410.09 499.992C2181.98 558.178 2089.59 611.282 2020.82 651.657C1978.67 676.397 1948.38 693.617 1881.86 700.667C1761.57 713.669 1677.89 689.638 1579.26 697.138C1547.93 699.508 1515.08 704.993 1479.23 715.395C1375.49 745.237 1275.04 790.731 1161.83 778.509C1157.65 778.062 1153.48 777.514 1149.34 776.926C1046.91 762.052 962.94 703.484 863.239 677.809C776.649 655.518 679.203 661.774 605.895 696.375C557.396 719.146 528.206 753.982 515.884 794.579C505.736 828.051 504.781 865.594 493.859 898.584C486.217 921.652 473.959 941.451 453.618 957.197C392.707 1004.37 291.713 987.61 222.891 961.84C189.922 949.496 161.136 936.223 135.725 926.676C107.759 916.151 85.6504 905.524 55.1275 899.384C35.7569 895.514 13.2578 894.617 -15.1966 893.248C-109.4 888.755 -224.4 872.723 -298.62 897.833C-314.185 903.162 -327.522 910.199 -339.214 918.541C-398.876 961.199 -389.834 1074.87 -356.016 1123.24C-328.928 1162 -269.944 1163.34 -236.761 1185.78C-198.847 1211.42 -177.102 1259.55 -224.507 1308.22" stroke="#4844FF" stroke-width="0.6374" stroke-miterlimit="10" stroke-linecap="round"/>
<path d="M2409.33 499.571C2183.45 556.416 2090.08 609.232 2020.19 649.957C1978.03 674.533 1947.55 691.776 1881.69 699.14C1762.53 712.721 1679.01 690.156 1580.78 698.142C1549.54 700.689 1516.78 706.249 1481.06 716.545C1377.38 746.206 1276.7 790.721 1163.75 778.225C1159.57 777.747 1155.41 777.23 1151.28 776.602C1049.07 761.534 965.227 703.297 865.839 677.432C779.209 654.884 681.537 660.468 607.947 695.016C559.182 717.796 530.553 752.84 518.629 793.658C508.812 827.236 508.087 864.881 497.404 898.003C489.908 921.231 477.779 941.127 457.777 957.01C397.309 1005.03 296.7 988.795 227.959 964.242C195.017 952.46 166.329 939.997 141.321 931.507C113.865 922.177 92.7692 912.634 63.1001 907.49C44.2736 904.234 22.2566 903.971 -6.23275 902.946C-99.5376 899.604 -214.582 880.267 -289.33 902.712C-304.993 907.466 -318.472 914.007 -330.337 921.863C-391.017 962.132 -382.266 1077.6 -351.634 1124.76C-327.002 1162.65 -269.497 1161.4 -238.843 1182.02C-202.923 1206.18 -183.221 1252.79 -231.668 1301.32" stroke="#4844FF" stroke-width="0.6329" stroke-miterlimit="10" stroke-linecap="round"/>
<path d="M2409.84 498.89C2186.15 554.402 2091.83 606.953 2020.84 647.997C1978.68 672.37 1947.96 689.714 1882.76 697.361C1764.69 711.5 1681.38 690.381 1583.54 698.894C1552.34 701.596 1519.7 707.223 1484.1 717.452C1380.46 746.931 1279.58 790.469 1166.85 777.707C1162.67 777.229 1158.53 776.672 1154.41 776.075C1052.44 760.804 968.704 702.939 869.59 676.861C782.92 654.057 684.991 658.976 611.14 693.431C562.101 716.189 534.012 751.481 522.485 792.521C513.009 826.236 512.536 863.942 502.083 897.167C494.702 920.563 482.731 940.547 463.07 956.568C403.054 1005.46 302.79 989.733 234.169 966.418C201.264 955.23 172.674 943.577 148.1 936.136C121.144 927.969 101.03 919.519 72.2855 915.384C54.0031 912.743 32.4685 913.112 3.9751 912.424C-88.4406 910.201 -203.488 887.581 -278.796 907.371C-294.588 911.559 -308.178 917.595 -320.207 924.995C-381.897 962.905 -373.524 1080.09 -345.976 1126.06C-323.851 1163.03 -267.816 1159.21 -239.681 1178.03C-205.764 1200.7 -188.064 1245.8 -237.555 1294.19" stroke="#4844FF" stroke-width="0.6284" stroke-miterlimit="10" stroke-linecap="round"/>
<path d="M2411.83 497.916C2190.34 552.097 2095.11 604.373 2022.94 645.754C1980.79 669.922 1949.86 687.36 1885.31 695.29C1768.38 710.009 1685.22 690.355 1587.78 699.323C1556.66 702.202 1524.07 707.882 1488.65 718.027C1385.09 747.316 1283.96 789.885 1171.49 776.848C1167.34 776.362 1163.2 775.805 1159.07 775.177C1057.31 759.71 973.672 702.187 874.912 675.94C788.242 652.902 690.025 657.166 615.904 691.498C566.592 714.233 539.072 749.764 527.913 791.034C518.768 824.855 518.533 862.694 508.301 895.989C501.075 919.576 489.224 939.627 469.894 955.753C410.298 1005.53 310.442 990.29 241.902 968.192C209.032 957.597 180.532 946.722 156.37 940.37C129.892 933.407 110.822 926.032 82.9313 922.892C65.2017 920.898 44.1315 921.838 15.6121 921.526C-75.9144 920.423 -191.006 894.496 -266.842 911.623C-282.723 915.266 -296.464 920.776 -308.666 927.689C-371.397 963.25 -363.397 1082.05 -338.93 1126.96C-319.319 1162.97 -264.735 1156.65 -239.09 1173.67C-207.167 1194.86 -191.51 1238.44 -242.043 1286.7" stroke="#4844FF" stroke-width="0.6239" stroke-miterlimit="10" stroke-linecap="round"/>
<path d="M2413.88 496.995C2194.62 549.866 2098.4 601.855 2025.12 643.554C1982.98 667.519 1951.8 685.027 1887.94 693.263C1772.1 708.539 1689.13 690.341 1592.1 699.827C1561.06 702.852 1528.57 708.638 1493.24 718.655C1389.73 747.762 1288.39 789.353 1176.18 776.073C1172.03 775.587 1167.89 775.03 1163.79 774.362C1062.27 758.692 978.738 701.54 880.251 675.081C793.541 651.786 695.067 655.387 620.694 689.656C571.108 712.37 544.128 748.149 533.375 789.67C524.571 823.629 524.557 861.538 514.586 894.927C507.505 918.672 495.782 938.82 476.793 955.084C417.649 1005.74 318.137 991.002 249.718 970.143C216.876 960.11 188.504 950.036 164.714 944.75C138.777 938.973 120.658 932.7 93.683 930.538C76.4975 929.159 55.9097 930.731 27.3774 930.725C-63.2599 930.741 -178.355 901.531 -254.721 915.994C-270.73 919.071 -284.613 924.085 -296.957 930.503C-360.737 963.683 -353.129 1084.04 -331.715 1127.97C-314.637 1162.97 -261.487 1154.21 -238.371 1169.41C-208.42 1189.09 -194.827 1231.18 -246.403 1279.3" stroke="#4844FF" stroke-width="0.6194" stroke-miterlimit="10" stroke-linecap="round"/>
<path d="M2415.95 496.168C2198.89 547.706 2101.75 599.421 2027.29 641.457C1985.17 665.249 1953.78 682.819 1890.53 691.347C1775.83 707.171 1693.04 690.46 1596.39 700.442C1565.41 703.653 1532.99 709.483 1497.84 719.416C1394.41 748.333 1292.82 788.955 1180.87 775.401C1176.71 774.883 1172.6 774.317 1168.51 773.68C1067.2 757.816 983.8 700.995 885.627 674.346C798.876 650.794 700.176 653.723 625.512 687.908C575.652 710.599 549.242 746.617 538.887 788.36C530.445 822.416 530.661 860.427 520.919 893.917C513.954 917.831 502.39 938.068 483.741 954.469C425.057 1006.03 325.882 991.767 257.605 972.107C224.799 962.667 196.557 953.394 173.17 949.166C147.743 944.583 130.606 939.403 104.506 938.197C87.8337 937.442 67.7589 939.638 39.1917 939.977C-50.5344 941.072 -165.753 908.513 -242.581 920.427C-258.688 922.928 -272.713 927.448 -285.229 933.378C-350.06 964.177 -332.917 1085.59 -324.451 1129.05C-302.579 1161.39 -258.199 1151.8 -237.571 1165.2C-209.584 1183.39 -198.034 1223.95 -250.683 1271.94" stroke="#4844FF" stroke-width="0.6149" stroke-miterlimit="10" stroke-linecap="round"/>
<path d="M2418.12 495.446C2203.25 545.653 2105.17 597.102 2029.6 639.456C1987.49 663.045 1955.85 680.686 1893.29 689.519C1779.69 705.932 1697.07 690.646 1600.84 701.145C1569.93 704.502 1537.61 710.407 1502.57 720.274C1399.18 749.01 1297.39 788.653 1185.66 774.834C1181.53 774.307 1177.42 773.741 1173.32 773.074C1072.26 757.036 988.929 700.566 891.069 673.726C804.287 649.949 705.321 652.182 630.405 686.306C580.271 708.975 554.4 745.24 544.443 787.204C536.341 821.398 536.778 859.48 527.275 893.102C520.465 917.206 509.02 937.51 490.703 954.017C432.47 1006.45 333.671 992.687 265.475 974.244C232.697 965.365 204.583 956.894 181.569 953.732C156.642 950.313 140.487 946.225 115.311 946.028C99.1831 945.888 79.5817 948.686 51.0192 949.392C-37.8354 951.545 -153.04 915.764 -230.436 924.993C-246.672 926.928 -260.808 930.942 -273.497 936.386C-339.369 964.836 -321.764 1088.09 -317.223 1130.23C-297.255 1161.64 -254.906 1149.51 -236.829 1161.13C-210.822 1177.78 -201.328 1216.89 -254.989 1264.73" stroke="#4844FF" stroke-width="0.6105" stroke-miterlimit="10" stroke-linecap="round"/>
<path d="M2420.4 494.893C2207.76 543.759 2108.73 594.943 2032.02 637.624C1989.92 661.041 1958.07 678.744 1896.16 687.86C1783.68 704.821 1701.26 691.021 1605.43 701.977C1574.6 705.51 1542.32 711.469 1507.46 721.22C1404.12 749.775 1302.11 788.441 1190.65 774.378C1186.52 773.851 1182.4 773.254 1178.34 772.609C1077.52 756.368 994.287 700.238 896.741 673.208C809.95 649.165 710.696 650.744 635.519 684.774C585.111 707.421 559.81 743.926 550.22 786.12C542.45 820.419 543.148 858.594 533.875 892.319C527.21 916.582 515.903 937.013 497.917 953.627C440.145 1006.97 341.682 993.677 273.607 976.474C240.833 968.197 212.871 960.486 190.238 958.421C165.851 956.189 150.647 953.203 126.356 953.993C110.75 954.507 91.6441 957.867 63.0776 958.909C-24.8657 962.142 -140.105 923.087 -218.052 929.691C-234.377 931.082 -248.672 934.539 -261.517 939.558C-328.478 965.605 -310.372 1090.73 -309.737 1131.6C-291.683 1162.06 -251.395 1147.4 -235.808 1157.22C-211.742 1172.34 -204.344 1209.97 -259.038 1257.71" stroke="#4844FF" stroke-width="0.606" stroke-miterlimit="10" stroke-linecap="round"/>
<path d="M2424.52 497.234C2214.08 544.798 2114.1 595.717 2036.24 638.695C1994.16 661.939 1962.08 679.673 1900.83 689.103C1789.45 706.622 1707.22 694.309 1611.8 705.751C1581.01 709.44 1548.86 715.496 1514.1 725.15C1410.84 753.514 1308.56 791.219 1197.38 776.873C1193.25 776.347 1189.17 775.741 1185.09 775.064C1084.49 758.629 1001.39 702.831 904.121 675.62C817.29 651.32 717.81 652.226 642.342 686.172C591.66 708.797 566.898 745.55 557.706 787.965C550.267 822.37 551.234 860.669 542.182 894.465C535.633 918.896 524.485 939.416 506.83 956.135C449.558 1010.41 351.392 997.567 283.429 981.571C250.682 973.856 222.857 966.977 200.628 965.97C176.772 964.892 162.528 963.039 139.153 964.807C124.06 965.945 105.498 969.921 76.8658 971.317C-10.1752 975.598 -125.462 933.339 -203.907 937.27C-220.361 938.095 -234.798 941.056 -247.754 945.571C-315.795 969.246 -297.157 1096.23 -300.438 1135.81C-284.289 1165.34 -246.071 1148.12 -233.004 1156.15C-210.888 1169.72 -205.567 1205.94 -261.314 1253.5" stroke="#4844FF" stroke-width="0.6015" stroke-miterlimit="10" stroke-linecap="round"/>
<path d="M2428.67 499.596C2220.46 545.819 2119.54 596.473 2040.53 639.778C1998.46 662.819 1966.14 680.654 1905.54 690.368C1795.3 708.466 1713.24 697.578 1618.2 709.547C1587.5 713.412 1555.43 719.513 1520.81 729.091C1417.61 757.274 1315.11 794.002 1204.19 779.381C1200.09 778.846 1195.96 778.218 1191.89 777.541C1091.53 760.902 1008.53 705.476 911.58 678.075C824.678 653.527 724.941 653.769 649.212 687.623C598.265 710.257 574.034 747.226 565.27 789.853C558.141 824.405 559.36 862.766 550.538 896.663C544.143 921.284 533.154 941.893 515.8 958.727C458.989 1013.91 361.19 1001.53 293.316 986.782C260.606 979.661 232.932 973.543 211.044 973.611C187.72 973.688 174.435 972.968 151.945 975.722C137.374 977.515 119.307 982.053 90.6799 983.816C4.53244 989.115 -110.763 943.674 -189.767 944.951C-206.319 945.2 -220.46 948.378 -234.027 951.694C-305.583 969.17 -284.009 1101.85 -291.214 1140.11C-276.979 1168.67 -240.792 1148.92 -230.245 1155.15C-210.034 1167.1 -206.814 1201.93 -263.603 1249.37" stroke="#4844FF" stroke-width="0.597" stroke-miterlimit="10" stroke-linecap="round"/>
<path d="M2432.8 501.968C2226.77 546.859 2124.95 597.269 2044.75 640.88C2002.7 663.747 1970.1 681.53 1910.22 691.642C1800.99 710.121 1719.21 700.897 1624.57 713.321C1593.94 717.332 1561.93 723.517 1527.46 733.02C1424.3 761.022 1321.59 796.771 1210.89 781.885C1206.78 781.319 1202.7 780.713 1198.62 780.036C1098.48 763.203 1015.57 708.117 918.937 680.525C832.066 655.734 732.041 655.322 656.051 689.082C604.831 711.694 581.169 748.902 572.782 791.791C565.983 826.449 567.464 864.902 558.88 898.932C552.631 923.713 541.77 944.419 524.756 961.39C468.446 1017.5 370.943 1005.57 303.181 992.034C270.507 985.505 242.954 980.157 221.446 981.323C198.654 982.555 186.298 982.976 164.754 986.7C150.696 989.117 133.134 994.247 104.481 996.386C19.2267 1002.7 -96.0764 954.081 -175.65 952.671C-192.321 952.385 -206.613 955.037 -220.322 957.857C-292.879 972.771 -270.884 1107.5 -282.004 1144.47C-269.674 1172.11 -235.566 1149.77 -227.521 1154.27C-209.141 1164.49 -208.126 1198.05 -265.958 1245.35" stroke="#4844FF" stroke-width="0.5925" stroke-miterlimit="10" stroke-linecap="round"/>
<path d="M2436.94 504.299C2233.11 547.858 2130.37 597.994 2049.04 641.933C2007 664.628 1974.18 682.441 1914.95 692.867C1806.82 711.904 1725.23 704.166 1630.99 717.077C1600.42 721.275 1568.53 727.526 1534.19 736.892C1431.1 764.672 1328.15 799.483 1217.72 784.354C1213.61 783.788 1209.55 783.142 1205.47 782.465C1105.57 765.428 1022.77 710.683 926.441 682.901C839.53 657.853 739.248 656.777 662.998 690.445C611.503 713.035 588.381 750.49 580.391 793.6C573.933 828.395 575.643 866.951 567.28 901.051C561.147 926 550.454 946.825 533.763 963.872C477.952 1020.91 380.755 1009.47 313.096 997.105C280.449 991.138 253.046 986.551 231.929 988.845C209.668 991.232 198.251 992.826 177.613 997.496C164.077 1000.57 147.041 1006.25 118.353 1008.74C33.9923 1016.07 -81.3497 964.275 -161.421 960.193C-178.19 959.331 -193.071 960.744 -206.497 963.852C-277.908 980.314 -257.638 1112.99 -272.642 1148.66C-262.226 1175.34 -230.197 1150.42 -224.624 1153.18C-207.952 1161.41 -209.266 1193.96 -268.14 1241.11" stroke="#4844FF" stroke-width="0.588" stroke-miterlimit="10" stroke-linecap="round"/>
<path d="M2441.06 506.64C2239.46 548.889 2135.78 598.759 2053.28 642.963C2011.26 665.486 1978.19 683.37 1919.61 694.079C1812.6 713.664 1731.21 707.414 1637.35 720.82C1606.85 725.164 1575.02 731.499 1540.82 740.79C1437.78 768.388 1334.62 802.222 1224.45 786.818C1220.37 786.243 1216.27 785.606 1212.22 784.89C1112.53 767.657 1029.85 713.244 933.82 685.312C846.9 659.999 746.361 658.259 669.827 691.873C618.059 714.441 595.476 752.145 587.884 795.476C581.758 830.377 583.728 869.025 575.595 903.227C569.617 928.367 559.083 949.28 542.692 966.442C487.382 1024.41 390.481 1013.42 322.943 1002.29C290.332 996.92 263.08 993.095 242.305 996.464C220.575 1000.01 209.206 1001.42 190.387 1008.35C177.988 1012.94 160.832 1018.32 132.118 1021.18C48.6199 1029.54 -66.6995 974.558 -147.33 967.82C-164.189 966.415 -179.26 967.279 -192.819 969.922C-265.359 983.959 -244.539 1118.56 -263.468 1152.9C-254.988 1178.66 -225.267 1151.75 -221.945 1152.14C-208.338 1160.41 -210.592 1189.91 -270.54 1236.94" stroke="#4844FF" stroke-width="0.5835" stroke-miterlimit="10" stroke-linecap="round"/>
<path d="M2445.2 508.971C2245.8 549.888 2141.21 599.515 2057.53 644.025C2015.56 666.366 1982.24 684.321 1924.32 695.344C1818.41 715.487 1737.2 710.692 1643.75 724.616C1613.34 729.137 1581.59 735.516 1547.53 744.732C1444.57 772.14 1341.16 804.973 1231.25 789.326C1227.17 788.751 1223.11 788.106 1219.06 787.389C1119.61 769.953 1037.04 715.912 941.311 687.758C854.35 662.188 753.554 659.785 676.76 693.306C624.718 715.852 602.705 753.794 595.511 797.347C589.716 832.354 591.947 871.095 584.044 905.399C578.211 930.698 567.806 951.709 551.755 969.008C496.954 1027.94 400.372 1017.36 332.915 1007.45C300.339 1002.67 273.199 999.581 252.845 1004.07C231.637 1008.74 222.126 1012.67 203.302 1019.23C190.811 1023.61 174.757 1030.39 146.056 1033.65C63.4425 1042.99 -51.8761 984.858 -133.066 975.466C-150.054 973.493 -165.236 973.853 -178.967 976.009C-252.637 987.622 -231.267 1124.14 -254.111 1157.2C-247.545 1181.99 -219.868 1152.62 -219.044 1151.17C-207.431 1157.97 -211.728 1185.95 -272.688 1232.83" stroke="#4844FF" stroke-width="0.579" stroke-miterlimit="10" stroke-linecap="round"/>
<path d="M2449.32 511.312C2252.11 550.897 2146.61 600.28 2061.78 645.087C2019.83 667.255 1986.25 685.25 1929.02 696.579C1824.25 717.301 1743.22 713.962 1650.14 728.351C1619.78 733.057 1588.12 739.511 1554.19 748.59C1451.28 775.817 1347.65 807.672 1237.98 791.791C1233.89 791.185 1229.86 790.53 1225.81 789.814C1126.58 772.214 1044.1 718.483 948.682 690.139C861.682 664.312 760.629 661.245 683.574 694.673C631.258 717.197 609.784 755.387 602.988 799.16C597.533 834.305 599.994 873.148 592.321 907.554C586.634 933.012 576.397 954.142 560.638 971.525C506.368 1031.37 410.051 1021.25 342.706 1012.55C310.127 1008.34 283.899 1007.28 263.173 1011.64C241.718 1016.14 233.955 1022.55 216.007 1030.07C204.037 1035.11 188.509 1042.44 159.774 1046.04C78.0362 1056.34 -37.3034 995.097 -119.031 983.01C-136.108 980.493 -151.481 980.304 -165.345 981.995C-240.184 991.161 -218.224 1129.62 -244.953 1161.38C-240.291 1185.25 -214.707 1153.35 -216.35 1150.07C-206.762 1155.4 -213.07 1181.84 -275.073 1228.59" stroke="#4844FF" stroke-width="0.5745" stroke-miterlimit="10" stroke-linecap="round"/>
<path d="M2453.43 513.622C2258.44 551.866 2152.01 601.015 2065.99 646.126C2024.06 668.122 1990.26 686.179 1933.66 697.8C1829.98 719.079 1749.14 717.227 1656.47 732.103C1626.18 736.955 1594.61 743.485 1560.83 752.488C1457.96 779.534 1354.12 810.411 1244.71 794.255C1240.62 793.649 1236.58 792.995 1232.56 792.238C1133.57 774.435 1051.19 721.044 956.062 692.55C869.053 666.458 767.721 662.766 690.405 696.102C637.815 718.604 616.881 757.042 610.491 801.067C605.368 836.318 608.09 875.254 600.646 909.761C595.114 935.41 585.005 956.638 569.577 974.127C515.816 1034.94 419.787 1025.24 352.594 1017.77C320.051 1014.15 293.204 1012.55 273.589 1019.28C253.427 1026.19 245.841 1032.52 228.83 1040.98C217.382 1046.67 202.341 1054.53 173.588 1058.54C92.7353 1069.83 -22.6036 1005.43 -104.86 990.682C-122.065 987.599 -137.589 986.883 -151.587 988.11C-227.595 994.829 -205.023 1135.2 -235.698 1165.66C-232.95 1188.57 -209.418 1154.18 -213.59 1149.08C-206.027 1152.94 -214.316 1177.84 -277.384 1224.49" stroke="#4844FF" stroke-width="0.5701" stroke-miterlimit="10" stroke-linecap="round"/>
<path d="M2457.57 515.953C2264.79 552.896 2157.45 601.802 2070.27 647.179C2028.36 669.002 1994.31 687.099 1938.39 699.025C1835.83 720.853 1755.16 720.497 1662.9 735.859C1632.69 740.888 1601.2 747.462 1567.53 756.399C1464.75 783.254 1360.66 813.163 1251.5 796.732C1247.45 796.118 1243.4 795.432 1239.38 794.707C1140.61 776.709 1058.35 723.65 963.543 694.965C876.493 668.616 774.935 664.252 697.328 697.504C644.473 720.014 624.069 758.669 618.077 802.916C613.285 838.273 616.268 877.302 609.054 911.911C603.668 937.719 593.727 959.066 578.6 976.67C525.379 1038.43 429.616 1029.19 362.525 1022.9C330.018 1019.87 303.274 1018.99 284.089 1026.86C264.449 1034.9 257.85 1042.45 241.706 1051.84C230.811 1058.17 216.225 1066.57 187.486 1070.98C107.5 1083.2 -7.82037 1015.71 -90.6368 998.305C-107.94 994.647 -123.614 993.404 -137.767 994.206C-214.922 998.439 -191.782 1140.79 -226.373 1169.96C-225.53 1191.94 -204.091 1155.04 -210.72 1148.12C-205.174 1150.55 -215.483 1173.88 -279.593 1220.4" stroke="#4844FF" stroke-width="0.5656" stroke-miterlimit="10" stroke-linecap="round"/>
<path d="M2461.68 518.263C2271.09 553.873 2162.85 602.536 2074.51 648.21C2032.65 669.852 1998.35 688.02 1943.08 700.228C1841.63 722.645 1761.17 723.736 1669.27 739.563C1639.12 744.747 1607.71 751.396 1574.22 760.249C1471.48 786.922 1367.19 815.853 1258.28 799.148C1254.23 798.533 1250.18 797.848 1246.18 797.083C1147.65 778.881 1065.49 726.163 970.968 697.297C883.909 670.682 782.063 665.664 704.195 698.823C651.066 721.311 631.232 760.204 625.638 804.672C621.186 840.166 624.43 879.288 617.406 913.977C612.144 939.984 602.402 961.442 587.558 979.099C534.886 1041.84 439.401 1032.99 372.4 1027.95C339.92 1025.48 313.296 1025.37 294.493 1034.34C275.345 1043.51 269.723 1052.26 254.516 1062.58C244.152 1069.6 230.084 1078.52 201.288 1083.32C122.178 1096.49 6.83602 1025.89 -76.5091 1005.82C-93.932 1001.63 -109.766 999.829 -124.052 1000.17C-202.385 1001.92 -178.646 1146.24 -217.121 1174.12C-218.193 1195.14 -198.806 1155.74 -207.964 1147C-204.412 1147.96 -216.764 1169.76 -281.886 1216.13" stroke="#4844FF" stroke-width="0.5611" stroke-miterlimit="10" stroke-linecap="round"/>
<path d="M2465.79 520.604C2277.43 554.873 2168.29 603.323 2078.73 649.281C2036.89 670.781 2002.33 688.958 1947.72 701.48C1847.4 724.446 1767.1 727.032 1675.61 743.346C1645.54 748.707 1614.22 755.431 1580.86 764.147C1478.17 790.639 1373.66 818.592 1264.99 801.652C1260.92 801.007 1256.91 800.312 1252.92 799.578C1154.6 781.182 1072.57 728.795 978.356 699.739C891.257 672.868 789.155 667.185 711.035 700.282C657.632 722.748 638.337 761.89 633.141 806.579C628.99 842.188 632.494 881.403 625.731 916.185C620.615 942.351 611.041 963.928 596.497 981.7C544.405 1045.42 449.137 1036.97 382.248 1033.14C349.804 1031.27 323.283 1031.86 304.878 1041.99C286.244 1052.25 281.617 1062.26 267.278 1073.5C257.444 1081.21 243.845 1090.6 215.062 1095.8C136.788 1109.9 21.496 1036.21 -62.4177 1013.45C-79.9384 1008.68 -95.9544 1006.36 -110.373 1006.24C-189.853 1005.5 -165.547 1151.81 -207.937 1178.39C-210.913 1198.48 -193.619 1156.56 -205.245 1145.98C-203.717 1145.48 -218.072 1165.78 -284.245 1211.98" stroke="#4844FF" stroke-width="0.5566" stroke-miterlimit="10" stroke-linecap="round"/>
<path d="M2469.9 522.913C2283.73 555.851 2173.68 604.057 2082.98 650.311C2041.16 671.639 2006.38 689.878 1952.41 702.684C1853.2 726.237 1773.11 730.271 1682 747.08C1652.01 752.618 1620.74 759.395 1587.52 768.036C1484.91 794.338 1380.16 821.322 1271.74 804.108C1267.71 803.453 1263.7 802.759 1259.7 801.994C1161.62 783.394 1079.66 731.357 985.768 702.141C898.66 675.005 796.269 668.667 717.889 701.671C664.211 724.115 645.456 763.505 640.658 808.415C636.838 844.13 640.612 883.469 634.048 918.361C629.087 944.717 619.641 966.392 605.428 984.271C553.885 1048.97 458.874 1040.95 392.088 1038.3C359.68 1037.02 333.261 1038.32 315.286 1049.6C297.134 1060.96 293.534 1072.22 280.092 1084.38C270.812 1092.73 257.668 1102.67 228.869 1108.27C151.461 1123.29 36.1963 1046.54 -48.255 1021.09C-65.8956 1015.79 -82.0402 1012.9 -96.6228 1012.32C-177.289 1009.08 -152.376 1157.39 -198.69 1182.65C-203.581 1201.78 -188.33 1157.39 -202.493 1144.96C-202.99 1142.99 -219.326 1161.75 -286.573 1207.82" stroke="#4844FF" stroke-width="0.5521" stroke-miterlimit="10" stroke-linecap="round"/>
<path d="M2474 525.192C2290.03 556.828 2179.08 604.791 2087.18 651.32C2045.4 672.466 2010.35 690.784 1957.07 703.865C1858.95 727.976 1779.05 733.496 1688.34 750.761C1658.39 756.454 1627.24 763.298 1594.17 771.863C1491.61 797.984 1386.61 823.998 1278.48 806.501C1274.45 805.847 1270.43 805.121 1266.43 804.356C1168.56 785.562 1086.73 733.857 993.151 704.45C906.003 677.057 803.386 670.047 724.714 702.967C670.763 725.389 652.547 765.026 648.147 810.158C644.667 846.01 648.693 885.411 642.359 920.405C637.544 946.92 628.265 968.715 614.345 986.677C563.381 1052.35 468.587 1044.74 401.922 1043.32C369.519 1042.65 343.202 1044.65 325.648 1057.05C307.988 1069.55 305.445 1082.04 292.822 1095.08C284.072 1104.12 271.406 1114.55 242.62 1120.55C166.04 1136.48 50.8026 1056.67 -34.1774 1028.55C-51.9159 1022.68 -68.2423 1019.27 -82.9183 1018.25C-164.741 1012.49 -139.251 1162.81 -189.449 1186.77C-196.244 1204.97 -185.218 1159.39 -199.708 1143.83C-202.698 1140.63 -220.578 1157.61 -288.836 1203.54" stroke="#4844FF" stroke-width="0.5476" stroke-miterlimit="10" stroke-linecap="round"/>
<path d="M2478.1 527.501C2296.36 557.796 2184.51 605.547 2091.42 652.35C2049.67 673.355 2014.38 691.673 1961.73 705.076C1864.74 729.736 1785.03 736.743 1694.69 754.504C1664.83 760.374 1633.74 767.302 1600.8 775.73C1498.32 801.66 1393.07 826.705 1285.21 808.965C1281.17 808.31 1277.18 807.576 1273.19 806.811C1175.56 787.813 1093.83 736.449 1000.53 706.861C913.343 679.212 810.478 671.569 731.545 704.396C677.289 726.804 659.635 766.649 655.681 812.055C652.533 848.014 656.828 887.538 650.715 922.603C646.054 949.309 636.944 971.223 623.315 989.269C572.931 1055.92 478.354 1048.71 411.801 1048.5C379.425 1048.39 353.22 1051.14 336.065 1064.7C318.888 1078.3 317.371 1092.04 305.645 1105.98C297.457 1115.7 285.238 1126.64 256.457 1133.01C180.704 1149.84 65.4585 1067.08 -20.0151 1036.2C-37.8645 1029.81 -54.3286 1025.81 -69.1685 1024.33C-152.156 1016.02 -126.049 1168.38 -180.194 1191.06C-188.934 1208.31 -179.108 1159.81 -196.948 1142.84C-201.861 1138.18 -221.854 1153.62 -291.155 1199.41" stroke="#4844FF" stroke-width="0.5431" stroke-miterlimit="10" stroke-linecap="round"/>
<path d="M2482.2 529.78C2302.66 558.743 2189.91 606.282 2095.65 653.35C2053.95 674.173 2018.41 692.562 1966.41 706.249C1870.52 731.497 1791 739.96 1701.07 758.207C1671.29 764.254 1640.28 771.226 1607.48 779.579C1505.05 805.328 1399.59 829.395 1291.96 811.39C1287.95 810.726 1283.93 810.001 1279.96 809.196C1182.59 790.025 1100.94 738.971 1007.96 709.224C920.767 681.308 817.614 673.011 738.42 705.745C683.891 728.131 666.806 768.215 663.219 813.851C660.371 849.925 664.958 889.533 659.044 924.709C654.529 951.574 645.587 973.607 632.259 991.769C582.495 1059.41 488.135 1052.62 421.662 1053.62C389.322 1054.1 363.188 1057.56 346.494 1072.27C329.769 1086.98 329.34 1101.95 318.45 1116.83C310.825 1127.22 299.043 1138.64 270.254 1145.45C195.328 1163.18 80.1407 1077.36 -5.8705 1043.77C-23.8178 1036.82 -40.4637 1032.3 -55.4367 1030.35C-139.588 1019.5 -112.905 1173.87 -170.935 1195.25C-181.589 1211.53 -173.449 1160.3 -194.153 1141.73C-200.998 1135.58 -223.065 1149.51 -293.44 1195.17" stroke="#4844FF" stroke-width="0.5386" stroke-miterlimit="10" stroke-linecap="round"/>
<path d="M2486.29 532.028C2308.97 559.65 2195.33 606.976 2099.85 654.328C2058.18 675.01 2022.38 693.438 1971.06 707.399C1876.3 733.196 1796.97 743.146 1707.41 761.889C1677.68 768.091 1646.78 775.129 1614.1 783.415C1511.71 808.952 1406.05 832.072 1298.67 813.792C1294.65 813.098 1290.66 812.363 1286.69 811.558C1189.53 792.193 1108.01 741.47 1015.32 711.542C928.113 683.361 824.672 674.409 745.249 707.041C690.445 729.406 673.9 769.737 670.71 815.595C668.203 851.805 673.051 891.507 667.366 926.784C663.007 953.839 654.263 975.983 641.187 994.206C592.011 1062.85 497.859 1056.43 431.499 1058.65C399.195 1059.72 373.132 1063.9 356.859 1079.72C340.617 1095.53 341.254 1111.77 331.222 1127.55C324.158 1138.62 313.966 1152.67 284.048 1157.75C206.965 1170.88 94.7894 1087.51 8.24947 1051.26C-9.82659 1043.74 -26.601 1038.65 -41.7291 1036.28C-127.015 1022.87 -99.7773 1179.29 -161.722 1199.38C-174.281 1214.74 -168.004 1160.86 -191.427 1140.62C-200.235 1132.99 -224.375 1145.4 -295.784 1190.95" stroke="#4844FF" stroke-width="0.5342" stroke-miterlimit="10" stroke-linecap="round"/>
<path d="M2490.36 534.315C2315.24 560.636 2200.73 607.742 2104.05 655.337C2062.43 675.837 2026.37 694.306 1975.68 708.59C1882.02 734.975 1802.88 746.411 1713.72 765.579C1684.07 771.958 1653.23 779.08 1620.72 787.252C1518.41 812.598 1412.5 834.749 1305.37 816.195C1301.36 815.5 1297.4 814.757 1293.43 813.952C1196.51 794.383 1115.09 744.001 1022.71 713.883C935.465 685.445 831.799 675.82 752.092 708.4C697.024 730.773 681.009 771.321 678.217 817.4C676.041 853.716 681.15 893.511 675.695 928.89C671.481 956.104 662.906 978.368 650.13 996.706C601.574 1066.35 507.608 1060.35 441.35 1063.74C409.083 1065.4 383.092 1070.3 367.248 1087.27C351.458 1104.19 353.183 1121.66 343.988 1138.37C337.516 1150.11 327.744 1164.58 297.804 1170.17C221.54 1184.4 109.431 1097.76 22.3315 1058.86C4.16648 1050.79 -12.7985 1045.16 -28.0597 1042.32C-114.51 1026.36 -86.6872 1184.83 -152.547 1203.62C-167.02 1218.02 -162.659 1161.54 -188.716 1139.58C-199.518 1130.47 -225.701 1141.35 -298.122 1186.76" stroke="#4844FF" stroke-width="0.5297" stroke-miterlimit="10" stroke-linecap="round"/>
<path d="M2494.44 536.532C2321.51 561.521 2206.1 608.414 2108.23 656.283C2066.64 676.642 2030.33 695.151 1980.31 709.709C1887.79 736.674 1808.84 749.566 1720.05 769.229C1690.48 775.785 1659.73 782.952 1627.32 791.026C1525.05 816.19 1418.94 837.364 1312.07 818.566C1308.09 817.863 1304.09 817.098 1300.15 816.284C1203.44 796.52 1122.15 746.47 1030.06 716.201C942.809 687.498 838.854 677.218 758.887 709.704C703.544 732.055 688.069 772.852 685.706 819.143C683.831 855.574 689.239 895.484 683.975 930.942C679.916 958.347 671.509 980.73 659.015 999.122C611.11 1069.75 517.29 1064.14 451.184 1068.76C418.952 1071.02 393.002 1076.64 377.641 1094.72C362.334 1112.74 365.147 1131.44 356.787 1149.09C350.878 1161.5 341.517 1176.35 311.618 1182.43C236.172 1197.77 124.099 1107.87 36.4618 1066.27C18.168 1057.64 1.08294 1051.47 -14.3333 1048.21C-101.887 1029.68 -73.5399 1190.21 -143.293 1207.67C-159.671 1221.14 -157.288 1162.08 -185.958 1138.35C-198.723 1127.76 -226.949 1137.12 -300.443 1182.4" stroke="#4844FF" stroke-width="0.5252" stroke-miterlimit="10" stroke-linecap="round"/>
<path d="M2496.08 535.023C2325.38 558.671 2209.08 605.382 2110.01 653.495C2068.46 673.672 2031.91 692.252 1982.54 707.093C1891.12 734.616 1812.35 748.995 1723.97 769.145C1694.48 775.847 1663.78 783.097 1631.55 791.087C1529.34 816.07 1423 836.266 1316.37 817.203C1312.39 816.499 1308.42 815.725 1304.47 814.911C1208.01 794.944 1126.81 745.235 1035.04 714.775C947.746 685.816 843.544 674.903 763.307 707.266C707.691 729.595 692.754 770.638 690.798 817.182C689.263 853.751 694.924 893.722 689.889 929.282C685.976 956.847 677.737 979.349 665.544 997.855C618.267 1069.51 524.656 1064.28 458.621 1070.08C426.386 1072.92 400.547 1079.28 385.616 1098.5C370.76 1117.63 374.67 1137.6 367.138 1156.14C361.79 1169.24 352.84 1184.47 322.96 1191.08C248.372 1207.55 136.326 1114.36 48.1604 1070.1C29.7777 1060.91 12.5241 1054.16 -3.04723 1050.47C-91.7431 1029.36 -62.8331 1191.97 -136.502 1208.14C-154.793 1220.65 -154.379 1159.03 -185.631 1133.53C-200.39 1121.47 -230.658 1129.3 -305.195 1174.44" stroke="#4844FF" stroke-width="0.5207" stroke-miterlimit="10" stroke-linecap="round"/>
<path d="M2496.43 531.469C2327.93 553.785 2210.76 600.275 2110.5 648.663C2068.98 668.698 2032.16 687.287 1983.45 702.442C1893.16 730.544 1814.58 746.379 1726.57 766.994C1697.13 773.881 1666.55 781.198 1634.43 789.091C1532.29 813.884 1425.71 833.111 1319.33 813.773C1315.34 813.038 1311.4 812.255 1307.46 811.442C1211.21 791.28 1130.14 741.902 1038.65 711.261C951.337 682.005 846.886 670.46 766.367 702.769C710.476 725.076 696.079 766.368 694.521 813.132C693.317 849.807 699.248 889.903 694.412 925.574C690.654 953.328 682.614 975.941 670.681 994.54C624.055 1067.18 530.589 1062.34 464.676 1069.39C432.477 1072.81 406.709 1079.89 392.239 1100.26C377.844 1120.53 382.864 1141.68 376.159 1161.13C371.404 1174.9 362.834 1190.52 333.003 1197.66C259.274 1215.25 147.224 1118.78 58.5292 1071.85C40.0177 1062.1 22.6133 1054.82 6.90892 1050.67C-82.8899 1026.99 -79.0459 1161.76 -131.041 1206.54C-147.921 1221.06 -152.853 1153.97 -186.656 1126.68C-203.409 1113.15 -235.72 1119.45 -311.299 1164.46" stroke="#4844FF" stroke-width="0.5162" stroke-miterlimit="10" stroke-linecap="round"/>
<path d="M2496.75 527.925C2330.45 548.939 2212.42 595.209 2110.93 643.848C2069.46 663.734 2032.44 682.446 1984.33 697.8C1895.25 726.628 1816.76 743.812 1729.14 764.883C1699.79 771.947 1669.25 779.318 1637.3 787.095C1535.21 811.707 1428.42 829.955 1322.3 810.374C1318.34 809.631 1314.38 808.857 1310.45 808.003C1214.45 787.638 1133.48 738.601 1042.31 707.801C954.954 678.288 850.246 666.079 769.466 698.295C713.302 720.58 699.435 762.089 698.283 809.105C697.38 845.895 703.602 886.075 698.996 921.847C695.384 949.761 687.521 972.524 675.871 991.177C629.904 1064.84 536.585 1060.39 470.775 1068.61C438.611 1072.63 412.884 1080.43 398.866 1101.91C384.923 1123.3 391.031 1145.68 385.162 1166.06C381 1180.49 371.682 1194.79 343.019 1204.14C272.852 1227.05 158.126 1123.09 68.8715 1073.51C50.271 1063.22 32.7071 1055.38 16.8387 1050.78C-74.0719 1024.5 -65.8324 1163.17 -125.583 1204.81C-144.872 1218.28 -151.309 1148.74 -187.663 1119.67C-206.41 1104.66 -240.724 1109.46 -317.355 1154.29" stroke="#4844FF" stroke-width="0.5117" stroke-miterlimit="10" stroke-linecap="round"/>
<path d="M2497.06 524.318C2332.98 543.992 2214.07 590.08 2111.37 638.963C2069.92 658.676 2032.68 677.45 1985.22 693.088C1897.27 722.464 1818.97 741.135 1731.72 762.701C1702.46 769.943 1672 777.357 1640.16 785.068C1538.15 809.49 1431.12 826.769 1325.26 806.914C1321.3 806.171 1317.36 805.388 1313.44 804.534C1217.65 783.974 1136.8 735.269 1045.92 704.287C958.555 674.509 853.56 661.645 772.519 693.769C716.081 716.031 702.753 757.787 702.03 805.016C701.458 841.913 707.95 882.216 703.565 918.059C700.139 946.155 692.434 969.006 681.055 987.783C635.787 1062.48 542.605 1058.4 476.866 1067.81C444.739 1072.42 419.083 1080.94 405.495 1103.56C392.003 1126.06 399.231 1149.67 394.167 1170.99C390.566 1186.1 381.678 1200.84 353.015 1210.66C283.627 1234.42 168.977 1127.46 79.2156 1075.18C60.4863 1064.32 42.7934 1055.91 26.77 1050.88C-65.2126 1022.03 -52.935 1164.87 -120.147 1203.12C-141.831 1215.47 -149.839 1143.59 -188.721 1112.7C-209.463 1096.22 -245.819 1099.49 -323.493 1144.19" stroke="#4844FF" stroke-width="0.5072" stroke-miterlimit="10" stroke-linecap="round"/>
<path d="M2497.36 520.711C2335.48 539.053 2215.71 584.951 2111.78 634.086C2070.39 653.648 2032.85 672.44 1986.06 688.423C1899.21 718.388 1821.12 738.506 1734.25 760.537C1705.03 767.933 1674.69 775.414 1643 783.05C1541.03 807.29 1433.79 823.591 1328.15 803.47C1324.19 802.727 1320.25 801.913 1316.32 801.059C1220.77 780.296 1140.03 731.932 1049.46 700.76C962.106 670.676 856.832 657.188 775.53 689.219C718.818 711.459 706.029 753.463 705.704 800.913C705.473 837.947 712.225 878.343 708.03 914.266C704.75 942.521 697.223 965.523 686.135 984.383C641.526 1060.1 548.482 1056.38 482.864 1067.03C450.773 1072.23 425.158 1081.48 412.061 1105.24C399.021 1128.85 407.368 1153.67 403.139 1175.93C400.132 1191.7 391.619 1206.94 363.01 1217.18C294.361 1241.77 179.826 1131.83 89.5363 1076.88C70.7091 1065.45 52.8655 1056.51 36.6869 1051.06C-56.3766 1019.6 -40.3966 1166.84 -114.724 1201.5C-138.742 1212.7 -148.361 1138.47 -189.755 1105.82C-212.49 1087.86 -250.889 1089.61 -329.605 1134.17" stroke="#4844FF" stroke-width="0.5027" stroke-miterlimit="10" stroke-linecap="round"/>
<path d="M2497.67 517.105C2337.99 534.146 2217.36 579.853 2112.22 629.201C2070.85 648.622 2033.1 667.445 1986.95 683.711C1901.23 714.224 1823.31 735.869 1736.83 758.355C1707.7 765.929 1677.42 773.494 1645.86 781.023C1543.95 805.082 1436.49 820.406 1331.11 800.01C1327.17 799.227 1323.23 798.444 1319.3 797.559C1223.97 776.632 1143.34 728.538 1053.07 697.246C965.645 666.915 860.144 652.754 778.56 684.732C721.583 706.981 709.324 749.202 709.406 796.904C709.475 834.053 716.519 874.533 712.554 910.558C709.429 939.003 702.1 962.116 691.264 981.038C647.355 1057.79 554.417 1054.45 488.902 1066.27C456.846 1072.07 431.303 1082.03 418.627 1106.91C406.048 1131.66 415.505 1157.67 412.082 1180.88C409.667 1197.32 401.521 1213.02 372.944 1223.72C305.033 1249.14 190.645 1136.2 99.7956 1078.6C80.8486 1066.63 62.8762 1057.13 46.5336 1051.22C-47.6018 1017.18 -19.4349 1182.93 -109.341 1199.86C-138.504 1205.36 -146.913 1133.37 -190.867 1098.9C-215.596 1079.47 -256.038 1079.69 -335.788 1124.15" stroke="#4844FF" stroke-width="0.4982" stroke-miterlimit="10" stroke-linecap="round"/>
<path d="M2497.97 513.468C2340.51 529.167 2218.99 574.693 2112.65 624.285C2071.34 643.555 2033.29 662.396 1987.83 678.967C1903.22 710.069 1825.51 733.16 1739.41 756.142C1710.36 763.893 1680.16 771.502 1648.74 778.925C1546.91 802.794 1439.17 817.157 1334.09 796.509C1330.15 795.726 1326.24 794.904 1322.31 794.05C1227.22 772.919 1146.69 725.165 1056.73 693.684C969.299 663.087 863.519 648.302 781.665 680.156C724.414 702.383 712.664 744.861 713.174 792.775C713.575 830.03 720.889 870.634 717.123 906.77C714.152 935.405 707.022 958.628 696.447 977.644C653.259 1055.4 560.502 1052.57 495.002 1065.5C463 1071.95 437.48 1082.57 425.265 1108.59C413.107 1134.46 423.714 1161.69 421.126 1185.83C419.304 1202.94 411.517 1219.08 383.002 1230.23C315.83 1256.47 201.558 1140.55 110.179 1080.29C91.1344 1067.74 73.0024 1057.69 56.5356 1051.34C-38.6718 1014.73 -9.38805 1183.44 -103.843 1198.15C-134.675 1202.96 -145.381 1128.2 -191.833 1091.9C-218.587 1071.01 -261.009 1069.69 -341.802 1114.01" stroke="#4844FF" stroke-width="0.4938" stroke-miterlimit="10" stroke-linecap="round"/>
<path d="M2498.27 509.861C2343.01 524.229 2220.64 569.596 2113.06 619.408C2071.77 638.506 2033.5 657.409 1988.66 674.272C1905.18 705.922 1827.74 730.678 1741.94 753.978C1712.98 761.937 1682.82 769.568 1651.54 776.916C1549.76 800.603 1441.81 813.989 1336.98 793.066C1333.04 792.283 1329.13 791.461 1325.23 790.567C1230.35 769.241 1149.97 721.678 1060.27 690.157C972.854 659.153 866.76 643.855 784.654 675.647C727.129 697.852 715.808 740.542 716.858 788.704C717.488 826.061 725.164 866.762 721.628 902.999C718.803 931.793 711.85 955.167 701.567 974.267C659.109 1053.05 566.419 1050.57 501.03 1064.71C469.056 1071.72 443.585 1083.1 431.853 1110.23C420.155 1137.24 431.872 1165.66 430.09 1190.73C428.829 1208.52 421.441 1225.12 392.957 1236.73C326.523 1263.79 212.398 1144.89 120.482 1081.93C101.317 1068.85 83.0566 1058.22 66.4259 1051.42C-29.8315 1012.19 0.467241 1183.86 -98.4471 1196.44C-130.981 1200.56 -143.921 1123.03 -192.933 1084.91C-221.681 1062.55 -266.146 1059.69 -347.981 1103.88" stroke="#4844FF" stroke-width="0.4893" stroke-miterlimit="10" stroke-linecap="round"/>
<path d="M2498.55 506.264C2345.48 519.299 2222.25 564.475 2113.47 614.532C2072.24 633.479 2033.71 652.421 1989.52 669.568C1907.13 701.776 1829.88 727.987 1744.48 751.774C1715.61 759.91 1685.54 767.616 1654.4 774.858C1552.69 798.355 1444.5 810.771 1339.9 789.584C1335.99 788.792 1332.07 787.938 1328.17 787.075C1233.54 765.546 1153.27 718.355 1063.85 686.652C976.393 655.391 870.042 639.429 787.675 671.128C729.876 693.311 719.094 736.249 720.542 784.633C721.513 822.126 729.48 862.912 726.134 899.229C723.464 928.213 716.701 951.667 706.678 970.859C664.95 1050.68 572.327 1048.55 507.05 1063.89C475.112 1071.49 449.721 1083.63 438.41 1111.87C427.165 1139.99 440.001 1169.63 439.045 1195.61C438.369 1214.03 431.356 1231.12 402.935 1243.19C337.2 1271.06 223.221 1149.16 130.786 1083.57C111.523 1069.91 93.1424 1058.75 76.3257 1051.54C-20.9728 1009.72 10.2701 1184.34 -93.0112 1194.75C-127.247 1198.18 -142.461 1117.85 -193.952 1077.96C-224.685 1054.16 -271.202 1049.75 -354.08 1093.79" stroke="#4844FF" stroke-width="0.4848" stroke-miterlimit="10" stroke-linecap="round"/>
<path d="M2498.84 502.626C2348.01 514.351 2223.89 559.346 2113.87 609.624C2072.69 628.421 2033.87 647.381 1990.37 664.833C1909.12 697.62 1832.05 725.287 1747.03 749.57C1718.21 757.892 1688.22 765.642 1657.21 772.778C1555.55 796.062 1447.15 807.532 1342.81 786.101C1338.91 785.309 1335.01 784.446 1331.11 783.553C1236.69 761.829 1156.54 714.969 1067.44 683.076C979.975 651.549 873.367 634.924 790.709 666.539C732.636 688.7 722.424 731.876 724.239 780.49C725.541 818.09 733.769 858.968 730.622 895.396C728.129 924.531 721.543 948.135 711.781 967.42C670.792 1048.3 578.266 1046.51 513.101 1063.06C481.199 1071.26 455.849 1084.12 444.998 1113.5C434.214 1142.76 448.16 1173.59 448.01 1200.51C447.926 1219.61 441.271 1237.13 412.912 1249.64C347.876 1278.32 234.084 1153.46 141.089 1085.21C121.698 1070.99 103.197 1059.29 86.2164 1051.62C-12.0922 1007.22 19.9845 1184.74 -87.6239 1193C-123.623 1195.77 -140.956 1112.59 -195.06 1070.94C-227.765 1045.62 -276.316 1039.72 -360.236 1083.62" stroke="#4844FF" stroke-width="0.4803" stroke-miterlimit="10" stroke-linecap="round"/>
<path d="M2499.15 499.02C2350.51 509.413 2225.58 554.24 2114.3 604.708C2073.15 623.363 2034.11 642.354 1991.22 660.098C1911.07 693.443 1834.19 722.597 1749.57 747.367C1720.83 755.834 1690.93 763.66 1660.07 770.72C1558.45 793.823 1449.84 804.315 1345.76 782.609C1341.84 781.786 1337.95 780.924 1334.08 780.021C1239.9 758.094 1159.85 711.575 1071.03 679.5C983.526 647.717 876.661 630.428 793.751 661.981C735.405 684.12 725.732 727.544 727.944 776.379C729.547 814.094 738.146 855.101 735.158 891.617C732.891 920.955 726.433 944.656 716.932 964.035C676.704 1045.94 584.214 1044.51 519.161 1062.27C487.286 1071.02 461.985 1084.64 451.617 1115.12C441.284 1145.5 456.31 1177.53 457.035 1205.4C457.535 1225.14 451.226 1243.16 422.929 1256.13C358.601 1285.64 244.956 1157.78 151.432 1086.87C131.951 1072.11 113.282 1059.82 96.1464 1051.73C-3.20333 1004.74 29.6986 1185.14 -82.1884 1191.31C-119.96 1193.38 -139.518 1107.45 -196.089 1063.96C-230.819 1037.18 -281.381 1029.74 -366.344 1073.51" stroke="#4844FF" stroke-width="0.4758" stroke-miterlimit="10" stroke-linecap="round"/>
<path d="M2499.44 495.382C2353.03 504.434 2227.23 549.142 2114.73 599.792C2073.64 618.296 2034.3 637.305 1992.11 655.354C1913.09 689.279 1836.4 719.889 1752.14 745.123C1723.48 753.767 1693.67 761.668 1662.92 768.632C1561.38 791.544 1452.52 801.066 1348.7 779.087C1344.81 778.255 1340.92 777.392 1337.05 776.49C1243.11 754.359 1163.16 708.181 1074.65 675.915C987.15 643.898 879.988 625.923 796.817 657.383C738.196 679.5 729.063 723.172 731.713 772.25C733.656 810.102 742.516 851.202 739.749 887.789C737.596 917.295 731.377 941.129 722.128 960.569C682.67 1043.53 590.238 1042.41 525.274 1061.42C493.435 1070.77 468.184 1085.14 458.268 1116.74C448.365 1148.26 464.532 1181.47 466.062 1210.29C467.155 1230.69 461.204 1249.15 432.979 1262.6C369.309 1292.9 255.891 1162.09 161.829 1088.49C142.22 1073.15 123.431 1060.34 106.131 1051.78C5.77989 1002.23 39.3961 1185.48 -76.6677 1189.56C-116.242 1190.94 -137.964 1102.25 -197.055 1056.97C-233.779 1028.71 -286.383 1019.74 -372.389 1063.38" stroke="#4844FF" stroke-width="0.4713" stroke-miterlimit="10" stroke-linecap="round"/>
<path d="M2499.75 491.776C2355.53 499.496 2229.05 544.195 2115.14 594.915C2074.13 613.362 2034.51 632.318 1992.97 650.65C1915.04 685.132 1838.54 717.229 1754.7 742.95C1726.11 751.74 1696.35 759.726 1665.78 766.605C1564.29 789.336 1455.22 797.88 1351.62 775.635C1347.74 774.803 1343.84 773.941 1340 772.998C1246.27 750.672 1166.45 704.826 1078.23 672.411C990.687 640.137 883.278 621.529 799.837 652.865C740.943 674.96 732.348 718.879 735.396 768.179C737.671 806.137 746.792 847.33 744.223 884.027C742.226 913.724 736.206 937.668 727.216 957.202C688.519 1041.18 596.123 1040.43 531.272 1060.64C499.469 1070.59 474.218 1085.66 464.833 1118.41C455.312 1151.03 472.659 1185.45 475.035 1215.23C476.68 1236.28 471.096 1255.2 442.942 1269.13C379.941 1300.24 266.709 1166.47 172.118 1090.2C152.42 1074.32 133.502 1060.94 116.008 1051.94C14.6465 999.792 48.9374 1185.87 -71.2945 1187.89C-112.672 1188.58 -136.579 1097.16 -198.146 1050.01C-236.895 1020.28 -291.472 1009.8 -378.56 1053.28" stroke="#4844FF" stroke-width="0.4668" stroke-miterlimit="10" stroke-linecap="round"/>
<path d="M2500.01 488.147C2357.99 494.566 2230.62 539.022 2115.54 590.008C2074.54 608.251 2034.68 627.309 1993.79 645.924C1916.99 680.955 1840.68 714.539 1757.21 740.755C1728.68 749.731 1699.03 757.752 1668.57 764.534C1567.12 787.083 1457.84 794.65 1354.51 772.161C1350.62 771.329 1346.75 770.427 1342.9 769.485C1249.43 746.986 1169.66 701.458 1081.79 668.844C994.239 636.304 886.572 617.033 802.849 648.316C743.689 670.42 735.656 714.547 739.071 764.077C741.685 802.172 751.027 843.435 748.72 880.226C746.868 910.082 741.056 934.168 732.328 953.794C694.431 1038.82 602.04 1038.43 537.291 1059.82C505.524 1070.36 480.354 1086.18 471.382 1120.02C462.36 1153.81 480.809 1189.38 483.959 1220.12C486.228 1241.82 480.941 1261.2 452.88 1275.57C390.547 1307.5 277.501 1170.75 182.381 1091.82C162.555 1075.37 143.539 1061.41 125.867 1052.03C23.5708 997.203 58.4305 1186.2 -65.9297 1186.19C-109.141 1186.2 -135.18 1092 -199.277 1043.02C-240.042 1011.87 -296.639 999.822 -384.73 1043.18" stroke="#4844FF" stroke-width="0.4623" stroke-miterlimit="10" stroke-linecap="round"/>
<path d="M2500.31 484.51C2360.52 489.588 2232.2 533.809 2115.94 585.1C1997.93 637.162 1886.99 697.657 1759.76 738.551C1632.53 779.444 1482.94 799.36 1345.85 765.993C1252.59 743.3 1172.96 698.135 1085.36 665.308C997.768 632.511 889.845 612.576 805.861 643.766C700.77 682.778 758.027 791.493 753.226 876.455C740.424 1102.13 507.907 999.262 477.948 1121.69C463.368 1181.27 530.465 1246.21 462.844 1282.1C388.31 1321.64 239.14 1109.45 135.767 1052.14C32.3942 994.844 67.9462 1186.49 -60.4936 1184.5C-134.509 1183.34 -162.936 922.553 -390.838 1033.07" stroke="#4844FF" stroke-width="0.4578" stroke-miterlimit="10" stroke-linecap="round"/>
<path d="M2498.66 482.735C2359.48 487.738 2231.77 531.822 2116.1 582.976C2076.77 600.375 2038.27 618.706 1999.68 636.963C1923.06 673.184 1846.1 709.033 1762.01 736.263C1671.88 765.462 1570.53 784.131 1470.24 780.577C1429.85 779.138 1389.69 774.118 1350.51 764.758C1257.76 742.556 1178.35 698.267 1091.16 666.161C1003.91 634.104 897.982 616.346 814.745 648.16C774.657 663.394 758.134 688.738 752.457 718.785C743.681 766.51 762.135 826.044 758.055 876.848C753.147 937.844 732.131 974.127 703.563 997.591C629.063 1058.74 504.186 1031.7 482.823 1120.03C468.433 1179.45 534.063 1244.17 466.853 1279.98C391.825 1320.13 242.863 1109.02 138.987 1051.36C112.381 1036.59 94.9251 1038.24 81.3844 1048.65C42.351 1078.66 35.7242 1181.54 -59.4155 1180.67C-133.784 1180.15 -163.679 925.682 -389.558 1035.78" stroke="#4844FF" stroke-width="0.4758" stroke-miterlimit="10" stroke-linecap="round"/>
<path d="M2497.02 480.961C2358.46 485.919 2231.35 529.795 2116.27 580.883C2077.16 598.25 2038.85 616.529 2000.49 634.755C1924.32 670.914 1847.81 706.732 1764.26 734.046C1674.7 763.312 1574.03 782.122 1474.21 778.935C1434.07 777.628 1394.11 772.75 1355.1 763.611C1262.87 741.931 1183.66 698.457 1096.86 667.143C1009.92 635.803 906.137 620.412 823.51 652.721C783.93 668.212 767.071 693.317 760.983 722.979C751.314 769.921 768.022 827.91 762.787 877.37C756.512 936.746 734.947 972.047 706.132 995.113C630.972 1055.25 508.65 1030.35 487.601 1118.49C473.441 1177.78 537.555 1242.24 470.765 1277.99C395.203 1318.73 246.49 1108.71 142.14 1050.69C115.654 1035.99 98.1979 1037.4 84.4579 1047.47C44.836 1076.48 36.5765 1177.04 -58.4252 1177C-133.191 1176.96 -164.549 928.948 -388.405 1038.64" stroke="#4844FF" stroke-width="0.4938" stroke-miterlimit="10" stroke-linecap="round"/>
<path d="M2495.38 479.218C2357.44 484.101 2230.96 527.831 2116.45 578.79C2077.52 596.104 2039.43 614.352 2001.3 632.546C1925.57 668.643 1849.54 704.462 1766.49 731.798C1677.49 761.139 1577.51 780.121 1478.18 777.231C1438.27 776.057 1398.49 771.33 1359.7 762.394C1267.99 741.236 1188.98 698.607 1102.59 668.014C1016 637.413 914.301 624.274 832.342 657.164C793.222 672.858 776.177 697.782 769.554 727.094C759.111 773.319 773.944 829.667 767.594 877.803C759.983 935.551 737.829 969.848 708.806 992.537C632.987 1051.65 513.221 1028.91 492.464 1116.9C478.502 1176.06 541.034 1240.13 474.761 1275.94C398.559 1317.13 250.192 1108.33 145.378 1049.96C119.002 1035.3 101.533 1036.54 87.6375 1046.19C47.3959 1074.2 37.5303 1172.55 -57.3072 1173.19C-132.452 1173.7 -165.261 932.067 -387.085 1041.38" stroke="#4844FF" stroke-width="0.5117" stroke-miterlimit="10" stroke-linecap="round"/>
<path d="M2493.78 477.465C2356.45 482.273 2230.56 525.866 2116.61 576.697C2077.88 593.989 2039.98 612.184 2002.1 630.338C1926.83 666.373 1851.25 702.161 1768.73 729.581C1680.28 758.966 1581.01 778.112 1482.15 775.589C1442.46 774.557 1402.91 769.962 1364.3 761.279C1273.07 740.652 1194.31 698.859 1108.29 668.996C1022.04 639.134 922.397 628.256 841.097 661.694C802.467 677.583 785.184 702.374 778.048 731.297C766.822 776.774 779.767 831.551 772.293 878.334C763.316 934.463 740.613 967.776 711.342 990.068C634.864 1048.17 517.654 1027.57 497.21 1115.37C483.438 1174.38 544.455 1238.18 478.649 1273.99C401.874 1315.75 253.764 1108.07 148.468 1049.31C122.243 1034.7 104.711 1035.73 90.6784 1045.01C49.7775 1072.01 38.3854 1168.18 -56.3497 1169.54C-131.865 1170.62 -166.133 935.333 -385.957 1044.27" stroke="#4844FF" stroke-width="0.5297" stroke-miterlimit="10" stroke-linecap="round"/>
<path d="M2492.15 475.753C2355.44 480.517 2230.18 523.932 2116.79 574.635C2078.28 591.865 2040.58 610.068 2002.92 628.161C1928.09 664.134 1852.98 699.89 1771.01 727.385C1683.12 756.846 1584.53 776.165 1486.19 773.929C1446.73 772.999 1407.41 768.608 1368.98 760.106C1278.27 740.001 1199.71 699.053 1114.11 669.912C1028.17 640.797 930.61 632.172 850.009 666.18C811.869 682.264 794.338 706.891 786.689 735.425C774.681 780.154 785.769 833.352 777.141 878.789C766.827 933.29 743.545 965.63 714.026 987.523C636.888 1044.6 522.265 1026.15 502.112 1113.8C488.57 1172.68 548.031 1236.19 482.716 1271.95C405.398 1314.27 257.546 1107.73 151.777 1048.6C125.671 1034.06 108.148 1034.88 93.9071 1043.79C52.3865 1069.79 39.3885 1163.74 -55.2133 1165.79C-131.13 1167.46 -166.826 938.515 -384.627 1047.04" stroke="#4844FF" stroke-width="0.5476" stroke-miterlimit="10" stroke-linecap="round"/>
<path d="M2490.55 474.032C2354.46 478.72 2229.81 521.959 2117.01 572.595C2078.68 589.772 2041.21 607.944 2003.77 626.006C1929.4 661.917 1854.75 697.673 1773.29 725.191C1685.96 754.726 1588.08 774.178 1490.2 772.278C1450.97 771.481 1411.86 767.231 1373.6 758.951C1283.4 739.337 1205.03 699.274 1119.83 670.854C1034.23 642.447 938.729 636.114 858.786 670.671C821.107 686.959 803.39 711.404 795.206 739.588C782.446 783.561 791.637 835.157 781.894 879.272C770.213 932.152 746.373 963.479 716.607 984.974C638.809 1041.04 526.733 1024.7 506.872 1112.2C493.528 1170.96 551.505 1234.19 486.61 1269.9C408.718 1312.78 261.154 1107.36 154.912 1047.87C128.916 1033.36 111.371 1034 96.9929 1042.54C54.8218 1067.55 40.2882 1159.29 -54.2112 1162.05C-130.498 1164.29 -167.685 941.71 -383.423 1049.85" stroke="#4844FF" stroke-width="0.5656" stroke-miterlimit="10" stroke-linecap="round"/>
<path d="M2488.97 472.373C2353.53 476.977 2229.47 520.078 2117.24 570.586C2079.11 587.741 2041.85 605.851 2004.63 623.882C1930.71 659.731 1856.52 695.457 1775.59 723.058C1688.81 752.638 1591.62 772.293 1494.24 770.721C1455.25 770.056 1416.34 765.948 1378.29 757.911C1288.6 738.819 1210.44 699.601 1125.65 671.903C1040.39 644.235 946.938 640.132 867.703 675.291C830.513 691.773 812.558 716.086 803.861 743.88C790.319 787.106 797.643 837.091 786.755 879.891C773.729 931.112 749.318 961.497 719.335 982.585C640.869 1037.6 531.358 1023.45 511.818 1110.79C498.664 1169.39 555.126 1232.35 490.69 1268.03C412.255 1311.47 264.94 1107.15 158.203 1047.33C132.327 1032.89 114.759 1033.33 100.195 1041.45C57.3646 1065.45 41.2735 1155.02 -53.0616 1158.47C-129.719 1161.29 -168.365 945.056 -382.103 1052.82" stroke="#4844FF" stroke-width="0.5835" stroke-miterlimit="10" stroke-linecap="round"/>
<path d="M2487.43 470.704C2352.6 475.264 2229.13 518.197 2117.47 568.577C2079.55 585.67 2042.49 603.758 2005.53 621.749C1932.06 657.536 1858.33 693.23 1777.91 720.884C1691.71 750.53 1595.2 770.327 1498.32 769.083C1459.53 768.528 1420.84 764.593 1382.98 756.768C1293.81 738.198 1215.85 699.795 1131.47 672.849C1046.53 645.929 955.189 644.069 876.582 679.785C839.883 696.462 821.711 720.602 812.502 748.007C798.207 790.476 803.635 838.86 791.632 880.337C777.271 929.93 752.279 959.341 722.048 980.031C642.923 1034.03 535.967 1022.03 516.742 1109.18C503.786 1167.65 558.763 1230.33 494.747 1265.96C415.769 1309.96 268.712 1106.77 161.502 1046.58C135.736 1032.18 118.115 1032.43 103.445 1040.19C59.9637 1063.2 42.3064 1150.57 -51.9043 1154.69C-128.932 1158.08 -169.028 948.228 -380.752 1055.55" stroke="#4844FF" stroke-width="0.6015" stroke-miterlimit="10" stroke-linecap="round"/>
<path d="M2485.86 469.076C2351.65 473.561 2228.8 516.317 2117.7 566.599C2079.98 583.67 2043.13 601.696 2006.4 619.656C1933.38 655.381 1860.12 691.075 1780.25 718.774C1694.61 748.495 1598.81 768.455 1502.39 767.547C1463.84 767.125 1425.36 763.332 1387.69 755.719C1299.01 737.681 1221.29 700.113 1137.29 673.897C1052.7 647.716 963.398 648.086 885.498 684.405C849.259 701.285 830.91 725.275 821.156 752.299C806.119 794.042 809.663 840.753 796.501 880.987C780.826 928.912 755.224 957.359 724.754 977.681C644.97 1030.66 540.6 1020.8 521.635 1107.81C508.909 1166.15 562.331 1228.54 498.783 1264.17C419.232 1308.73 272.463 1106.67 164.77 1046.08C139.124 1031.74 121.472 1031.77 106.633 1039.17C62.462 1061.17 43.3091 1146.36 -50.7991 1151.19C-128.228 1155.16 -169.753 951.653 -379.445 1058.59" stroke="#4844FF" stroke-width="0.6194" stroke-miterlimit="10" stroke-linecap="round"/>
<path d="M2484.33 467.501C2350.75 471.941 2228.52 514.52 2117.99 564.674C2080.45 581.692 2043.8 599.696 2007.32 617.616C1934.75 653.279 1861.95 688.942 1782.6 716.694C1697.51 746.459 1602.39 766.592 1506.47 766.011C1468.16 765.722 1429.89 762.101 1392.39 754.71C1304.22 737.194 1226.71 700.472 1143.12 674.977C1058.83 649.513 971.614 652.135 894.422 689.055C858.673 706.13 840.108 729.947 829.819 756.622C814.03 797.609 815.708 842.709 801.369 881.638C784.349 927.903 758.177 955.407 727.49 975.322C647.046 1027.28 545.232 1019.57 526.58 1106.39C514.045 1164.58 565.99 1226.72 502.862 1262.29C422.768 1307.42 276.257 1106.49 168.091 1045.54C142.555 1031.23 124.881 1031.06 109.905 1038.1C65.0434 1059.09 44.3639 1142.1 -49.589 1147.59C-127.388 1152.14 -170.403 954.99 -378.064 1061.55" stroke="#4844FF" stroke-width="0.6374" stroke-miterlimit="10" stroke-linecap="round"/>
<path d="M2482.85 465.948C2349.88 470.313 2228.24 512.755 2118.32 562.802C2081.01 579.789 2044.54 597.74 2008.29 615.629C1936.17 651.23 1863.83 686.862 1785.01 714.698C1700.47 744.538 1606.07 764.835 1510.64 764.581C1472.57 764.425 1434.51 760.946 1397.2 753.767C1309.55 736.742 1232.25 700.896 1149.03 676.131C1065.09 651.406 979.928 656.289 903.395 693.758C868.106 711.036 849.324 734.681 838.522 760.967C821.981 801.196 821.784 844.655 806.309 882.301C787.975 926.898 761.192 953.437 730.266 972.986C649.163 1023.93 549.905 1018.37 531.544 1105.04C519.207 1163.1 569.668 1224.96 506.959 1260.48C426.323 1306.17 280.06 1106.34 171.4 1045.06C146.014 1030.81 128.277 1030.43 113.155 1037.07C67.6034 1057.05 45.4063 1137.91 -48.4221 1144.07C-126.592 1149.2 -171.066 958.397 -376.704 1064.54" stroke="#4844FF" stroke-width="0.6553" stroke-miterlimit="10" stroke-linecap="round"/>
<path d="M2481.63 464.824C2349.27 469.113 2228.26 511.409 2118.87 561.337C2081.75 578.271 2045.5 596.191 2009.48 614.049C1937.84 649.579 1865.93 685.22 1787.62 713.078C1703.64 742.994 1609.92 763.432 1514.98 763.506C1477.11 763.46 1439.3 760.144 1402.16 753.217C1315.02 736.714 1237.96 701.572 1155.13 677.67C1071.56 653.542 988.441 660.788 912.584 698.868C877.786 716.341 858.796 739.844 847.451 765.749C830.158 805.222 828.086 847.04 811.443 883.411C791.826 926.331 764.41 951.946 733.227 971.065C651.456 1020.96 554.785 1017.54 536.716 1104.06C524.569 1161.97 573.523 1223.59 511.265 1259.05C430.064 1305.33 284.08 1106.6 174.947 1044.95C149.671 1030.73 131.89 1030.2 116.622 1036.45C70.38 1055.42 46.6563 1134.1 -47.0477 1140.93C-125.61 1146.67 -171.521 962.18 -375.128 1067.95" stroke="#4844FF" stroke-width="0.6733" stroke-miterlimit="10" stroke-linecap="round"/>
<path d="M2481.02 464.696C2349.29 468.941 2228.89 511.029 2120.07 560.86C2083.14 577.771 2047.11 595.629 2011.31 613.456C1940.13 648.924 1868.68 684.534 1790.92 712.467C1707.52 742.418 1614.49 763.06 1520.02 763.47C1482.39 763.557 1444.75 760.392 1407.84 753.669C1321.22 737.688 1244.37 703.391 1161.91 680.219C1078.65 656.839 997.613 666.306 922.424 704.965C888.086 722.642 868.91 745.963 857.03 771.519C838.994 810.267 835.069 850.402 817.228 885.508C796.288 926.729 768.279 951.441 736.879 970.153C654.449 1019.03 560.333 1017.76 542.586 1104.12C530.669 1161.9 578.108 1223.25 516.278 1258.69C434.534 1305.52 288.777 1107.93 179.201 1045.91C154.045 1031.76 136.233 1031 120.828 1036.88C73.8643 1054.86 48.654 1131.39 -44.8946 1138.87C-123.827 1145.19 -171.198 967.048 -372.813 1072.41" stroke="#4844FF" stroke-width="0.6913" stroke-miterlimit="10" stroke-linecap="round"/>
<path d="M2480.45 464.559C2349.33 468.729 2229.52 510.679 2121.31 560.373C2084.59 577.222 2048.76 595.058 2013.18 612.854C1942.45 648.261 1871.46 683.839 1794.23 711.856C1711.38 741.883 1619.03 762.666 1525.09 763.395C1487.69 763.615 1450.26 760.591 1413.52 754.089C1327.41 738.63 1250.76 705.147 1168.72 682.727C1085.8 660.055 1006.81 671.784 932.327 711.045C898.471 728.885 879.127 752.087 866.694 777.231C847.937 815.213 842.137 853.708 823.128 887.539C800.937 927.074 772.255 950.839 740.616 969.184C657.526 1017.04 565.967 1017.93 548.502 1104.1C536.783 1161.75 582.738 1222.83 521.358 1258.2C439.08 1305.63 293.564 1109.11 183.484 1046.72C158.438 1032.62 140.564 1031.63 125.03 1037.19C77.3365 1054.13 50.6791 1128.53 -42.776 1136.69C-122.07 1143.61 -170.94 971.801 -370.492 1076.78" stroke="#4844FF" stroke-width="0.7092" stroke-miterlimit="10" stroke-linecap="round"/>
<path d="M2479.87 464.421C2349.39 468.507 2230.19 510.321 2122.54 559.886C2086.01 576.713 2050.4 594.487 2015.05 612.252C1944.76 647.596 1874.25 683.175 1797.52 711.214C1715.23 741.316 1623.6 762.262 1530.12 763.327C1492.96 763.68 1455.75 760.829 1419.2 754.539C1333.58 739.611 1257.14 706.974 1175.5 685.275C1092.92 663.342 1015.97 677.27 942.166 717.141C908.8 735.176 889.239 758.206 876.272 783.001C856.803 820.248 849.119 857.07 828.912 889.636C805.428 927.463 776.154 950.325 744.236 968.28C660.487 1015.12 571.483 1018.16 554.341 1104.17C542.811 1161.67 587.29 1222.5 526.33 1257.82C443.51 1305.8 298.251 1110.41 187.698 1047.66C162.771 1033.62 144.835 1032.42 129.186 1037.57C80.7712 1053.52 52.6271 1125.76 -40.7124 1134.56C-120.408 1142.06 -170.697 976.624 -368.227 1081.19" stroke="#4844FF" stroke-width="0.7272" stroke-miterlimit="10" stroke-linecap="round"/>
<path d="M2479.27 464.293C2349.41 468.335 2230.83 509.971 2123.72 559.447C2087.38 576.221 2051.99 593.964 2016.86 611.699C1947.03 646.981 1876.97 682.529 1800.77 710.652C1719.03 740.798 1628.11 761.908 1535.1 763.309C1498.13 763.772 1461.18 761.085 1424.79 755.017C1339.68 740.58 1263.45 708.818 1182.22 687.841C1099.95 666.625 1025.08 682.805 951.985 723.278C919.069 741.485 899.341 764.396 885.829 788.81C865.64 825.292 856.103 860.432 834.706 891.764C810.001 927.896 780.023 949.821 747.866 967.408C663.458 1013.23 577.041 1018.41 560.15 1104.25C548.819 1161.62 591.814 1222.17 531.273 1257.44C447.919 1306.01 302.908 1111.73 191.882 1048.61C167.066 1034.6 149.754 1034.3 133.321 1038C82.1494 1049.57 54.5544 1123.03 -38.6297 1132.49C-118.687 1140.6 -170.444 981.478 -365.982 1085.64" stroke="#4844FF" stroke-width="0.7451" stroke-miterlimit="10" stroke-linecap="round"/>
<path d="M2478.7 464.187C2349.46 468.153 2231.46 509.621 2124.96 558.991C2088.84 575.734 2053.61 593.433 2018.74 611.127C1949.36 646.348 1879.77 681.895 1804.1 710.032C1722.92 740.253 1632.69 761.536 1540.17 763.264C1503.44 763.86 1466.69 761.314 1430.5 755.458C1345.91 741.544 1269.88 710.596 1189.04 690.38C1107.11 669.903 1034.28 688.282 961.887 729.357C929.462 747.759 909.548 770.488 895.462 794.53C874.56 830.278 863.201 863.728 840.544 893.811C814.618 928.25 783.945 949.267 751.572 966.447C666.504 1011.25 582.633 1018.55 566.074 1104.26C554.973 1161.5 596.43 1221.82 536.34 1257.03C452.421 1306.2 307.809 1112.84 196.16 1049.53C171.516 1035.54 154.089 1035.07 137.518 1038.4C85.6032 1048.78 56.5438 1120.28 -36.5247 1130.38C-116.943 1139.1 -170.169 986.292 -363.675 1090.07" stroke="#4844FF" stroke-width="0.7631" stroke-miterlimit="10" stroke-linecap="round"/>
<path d="M2478.14 464.081C2349.52 468.003 2232.14 509.294 2126.2 558.536C2090.27 575.226 2055.27 592.925 2020.62 610.557C1951.68 645.715 1882.55 681.232 1807.42 709.453C1726.79 739.749 1637.26 761.164 1545.24 763.221C1508.76 763.949 1472.18 761.554 1436.19 755.941C1352.11 742.549 1276.3 712.446 1195.86 692.951C1114.27 673.182 1043.49 693.822 971.776 735.508C939.802 754.082 919.72 776.692 905.09 800.354C883.467 835.336 870.296 867.127 846.378 895.962C819.261 928.697 787.863 948.816 755.233 965.567C669.497 1009.33 588.191 1018.8 571.945 1104.33C561.034 1161.41 601.015 1221.48 541.345 1256.64C456.883 1306.36 312.528 1114.14 200.397 1050.43C175.873 1036.5 158.362 1035.85 141.707 1038.78C89.088 1047.98 58.5332 1117.53 -34.4197 1128.27C-115.231 1137.6 -169.924 991.116 -361.368 1094.51" stroke="#4844FF" stroke-width="0.781" stroke-miterlimit="10" stroke-linecap="round"/>
<path d="M2477.57 463.975C2349.57 467.822 2232.81 508.967 2127.44 558.08C2091.71 574.748 2056.92 592.385 2022.49 609.986C1954.01 645.082 1885.34 680.568 1810.72 708.841C1730.67 739.173 1641.8 760.77 1550.27 763.154C1514.02 764.015 1477.67 761.792 1441.86 756.361C1358.3 743.491 1282.7 714.234 1202.64 695.5C1121.37 676.478 1052.65 699.308 981.656 741.627C950.173 760.396 929.905 782.824 914.709 806.145C892.374 840.393 877.381 870.493 852.233 898.073C823.927 929.104 791.794 948.293 758.925 964.678C672.529 1007.42 593.779 1019.04 577.825 1104.42C567.112 1161.38 605.609 1221.17 546.358 1256.27C461.362 1306.59 317.248 1115.43 204.652 1051.39C180.239 1037.5 162.041 1035.5 145.873 1039.2C94.4894 1050.96 60.5223 1114.78 -32.3371 1126.19C-113.51 1136.14 -169.671 995.971 -359.123 1098.96" stroke="#4844FF" stroke-width="0.799" stroke-miterlimit="10" stroke-linecap="round"/>
<path d="M2477.01 463.9C2349.62 467.671 2233.49 508.639 2128.66 557.664C2093.14 574.27 2058.55 591.884 2024.35 609.455C1956.32 644.489 1888.11 679.975 1814.04 708.292C1734.55 738.699 1646.39 760.46 1555.33 763.18C1519.28 764.152 1483.18 762.123 1447.54 756.914C1364.47 744.707 1289.09 716.122 1209.45 698.141C1128.53 679.858 1061.84 704.888 991.524 747.817C960.491 766.758 940.055 789.067 924.337 811.968C901.321 845.472 884.506 873.882 858.067 900.223C828.61 929.572 795.712 947.842 762.626 963.819C675.571 1005.54 599.408 1019.31 583.736 1104.5C573.253 1161.33 610.242 1220.88 551.403 1255.9C465.873 1306.8 322.007 1116.75 208.908 1052.35C184.614 1038.52 166.345 1036.28 150.079 1039.63C97.926 1050.35 62.5295 1112.1 -30.1922 1124.11C-111.717 1134.68 -169.356 1000.81 -356.776 1103.41" stroke="#4844FF" stroke-width="0.8169" stroke-miterlimit="10" stroke-linecap="round"/>
<path d="M2476.45 463.793C2349.68 467.52 2234.13 508.32 2129.91 557.239C2094.58 573.791 2060.21 591.375 2026.24 608.945C1958.66 643.918 1890.92 679.372 1817.36 707.743C1738.43 738.225 1650.95 760.127 1560.41 763.165C1524.6 764.27 1488.68 762.423 1453.26 757.386C1370.7 745.671 1295.54 717.962 1216.28 700.711C1135.66 683.145 1071.05 710.396 1001.44 753.957C970.86 773.072 950.287 795.252 933.995 817.781C910.298 850.542 891.701 877.284 863.931 902.363C833.354 930.023 799.66 947.38 766.326 962.959C678.612 1003.66 605.004 1019.58 589.646 1104.59C579.352 1161.26 614.866 1220.56 556.455 1255.56C470.423 1307.04 326.766 1118.07 213.202 1053.33C189.018 1039.54 170.687 1037.08 154.293 1040.1C101.37 1049.76 64.5445 1109.44 -28.0617 1122.09C-109.979 1133.28 -169.046 1005.74 -354.453 1107.91" stroke="#4844FF" stroke-width="0.8349" stroke-miterlimit="10" stroke-linecap="round"/>
<path d="M2475.9 463.749C2349.75 467.401 2234.83 508.055 2131.16 556.845C2096.03 573.376 2061.88 590.897 2028.14 608.436C1961.01 643.347 1893.72 678.771 1820.69 707.225C1742.31 737.782 1655.55 759.848 1565.47 763.223C1529.91 764.46 1494.2 762.755 1458.94 757.939C1376.9 746.746 1301.94 719.883 1223.09 703.352C1142.81 686.526 1080.24 715.975 1011.31 760.148C981.209 779.426 960.468 801.486 943.601 823.644C919.192 855.67 898.874 880.727 869.782 904.576C838.086 930.545 803.587 946.96 770.014 962.172C681.64 1001.86 610.58 1019.9 595.521 1104.78C585.426 1161.33 619.465 1220.39 561.495 1255.29C474.938 1307.39 331.521 1119.49 217.484 1054.38C193.419 1040.66 175.026 1037.99 158.517 1040.6C104.815 1049.18 66.5602 1106.79 -25.9304 1120.07C-108.209 1131.87 -168.776 1010.66 -352.15 1112.44" stroke="#4844FF" stroke-width="0.8528" stroke-miterlimit="10" stroke-linecap="round"/>
<path d="M2475.34 463.674C2349.84 467.273 2235.51 507.758 2132.41 556.42C2097.5 572.889 2063.54 590.388 2030.02 607.897C1963.33 642.714 1896.53 678.169 1824.02 706.677C1746.18 737.278 1660.14 759.507 1570.52 763.218C1535.19 764.588 1499.69 763.025 1464.64 758.452C1383.11 747.781 1308.33 721.741 1229.89 705.963C1149.96 689.875 1089.42 721.524 1021.21 766.329C991.567 785.81 970.68 807.712 953.23 829.467C928.139 860.75 906.07 884.129 875.616 906.726C842.871 931.018 807.505 946.509 773.706 961.282C684.673 999.951 616.168 1020.14 601.423 1104.83C591.518 1161.23 624.121 1220.06 566.531 1254.89C479.44 1307.58 336.271 1120.78 221.721 1055.28C197.798 1041.59 179.312 1038.7 162.705 1040.98C108.203 1048.51 68.5495 1104.04 -23.7945 1117.95C-106.457 1130.4 -168.47 1015.47 -349.813 1116.87" stroke="#4844FF" stroke-width="0.8708" stroke-miterlimit="10" stroke-linecap="round"/>
<path d="M2474.83 463.621C2349.94 467.144 2236.19 507.461 2133.67 556.026C2098.95 572.472 2065.18 589.919 2031.92 607.387C1965.68 642.143 1899.33 677.566 1827.37 706.118C1750.12 736.786 1664.73 759.197 1575.64 763.226C1540.54 764.698 1505.26 763.307 1470.37 758.956C1389.36 748.807 1314.78 723.612 1236.75 708.555C1157.13 693.184 1098.63 727.063 1031.13 772.47C1001.94 792.124 980.913 813.897 962.888 835.28C937.157 865.842 913.305 887.553 881.511 908.858C847.695 931.513 811.475 946.008 777.438 960.414C687.736 998.035 621.827 1020.4 607.343 1104.95C597.667 1161.21 628.754 1219.77 571.584 1254.54C483.959 1307.82 341.03 1122.09 226.016 1056.26C202.212 1042.63 183.655 1039.5 166.92 1041.45C111.63 1047.86 70.6047 1101.41 -21.6724 1115.9C-104.688 1128.98 -168.177 1020.34 -347.528 1121.34" stroke="#4844FF" stroke-width="0.8888" stroke-miterlimit="10" stroke-linecap="round"/>
<path d="M2474.29 463.608C2350.02 467.056 2236.9 507.227 2134.94 555.663C2100.4 572.057 2066.86 589.472 2033.82 606.91C1968.06 641.594 1902.14 676.996 1830.71 705.632C1754.02 736.374 1669.33 758.918 1580.71 763.284C1545.82 764.897 1510.78 763.67 1476.07 759.5C1395.59 749.873 1321.22 725.523 1243.56 711.197C1164.28 696.565 1107.81 732.612 1041.03 778.682C1012.33 798.5 991.165 820.145 972.565 841.156C946.152 870.975 920.59 891.031 887.394 911.062C852.569 932.062 815.442 945.61 781.157 959.618C690.796 996.221 627.443 1020.73 613.272 1105.09C603.795 1161.23 633.406 1219.55 576.646 1254.23C488.496 1308.13 345.807 1123.47 230.32 1057.27C206.627 1043.68 188.008 1040.33 171.175 1041.94C115.106 1047.27 72.6608 1098.77 -19.5008 1113.9C-102.878 1127.59 -167.835 1025.27 -345.155 1125.89" stroke="#4844FF" stroke-width="0.9067" stroke-miterlimit="10" stroke-linecap="round"/>
<path d="M2473.78 463.586C2350.13 466.99 2237.63 506.984 2136.25 555.322C2101.93 571.685 2068.58 589.047 2035.77 606.453C1970.46 641.076 1905.01 676.478 1834.08 705.136C1757.94 735.923 1673.94 758.67 1585.82 763.363C1551.16 765.109 1516.3 764.032 1481.8 760.106C1401.8 751.01 1327.67 727.496 1250.42 713.891C1171.46 700.007 1117.05 738.244 1050.99 784.947C1022.73 804.937 1001.43 826.454 982.251 847.063C955.166 876.169 927.923 894.562 893.285 913.296C857.46 932.672 819.418 945.242 784.916 958.843C693.895 994.428 633.098 1021.09 619.249 1105.29C609.962 1161.27 638.106 1219.37 581.766 1254.01C493.114 1308.49 350.642 1124.94 234.651 1058.38C211.077 1044.85 192.388 1041.26 175.417 1042.5C118.53 1046.73 74.7037 1096.21 -17.3113 1111.97C-101.041 1126.3 -167.475 1030.26 -342.763 1130.5" stroke="#4844FF" stroke-width="0.9247" stroke-miterlimit="10" stroke-linecap="round"/>
<path d="M2473.27 463.563C2350.24 466.892 2238.32 506.718 2137.54 554.95C2103.42 571.259 2070.28 588.591 2037.7 605.966C1972.84 640.527 1907.85 675.897 1837.45 704.639C1761.86 735.502 1678.58 758.381 1590.91 763.411C1556.5 765.29 1521.85 764.355 1487.54 760.64C1408.04 752.035 1334.12 729.367 1257.26 716.523C1178.63 703.347 1126.23 743.792 1060.89 791.128C1033.08 811.291 1011.64 832.679 991.886 852.916C964.151 881.27 935.205 898.039 899.157 915.468C862.34 933.251 823.365 944.781 788.624 958.015C696.944 992.582 638.694 1021.36 625.136 1105.41C616.048 1161.27 642.716 1219.12 586.787 1253.68C497.609 1308.77 355.377 1126.3 238.914 1059.37C215.45 1045.88 196.689 1042.04 179.63 1042.97C121.955 1046.08 76.7486 1093.55 -15.1906 1109.92C-99.3037 1124.89 -167.215 1035.15 -340.481 1134.98" stroke="#4844FF" stroke-width="0.9426" stroke-miterlimit="10" stroke-linecap="round"/>
<path d="M2472.77 463.572C2350.35 466.825 2239.06 506.505 2138.82 554.618C2104.89 570.905 2071.97 588.174 2039.61 605.519C1975.2 640.018 1910.67 675.357 1840.82 704.143C1765.79 735.081 1683.19 758.133 1596.05 763.481C1561.87 765.462 1527.43 764.699 1493.29 761.206C1414.31 753.123 1340.6 731.3 1264.14 719.177C1185.83 706.749 1135.45 749.362 1070.86 797.353C1043.5 817.657 1021.98 838.97 1001.6 858.814C973.227 886.446 942.587 901.622 905.079 917.693C867.302 933.874 827.372 944.405 792.383 957.24C700.044 990.79 644.38 1021.71 631.114 1105.61C622.255 1161.34 647.448 1218.94 591.898 1253.42C502.217 1309.1 360.195 1127.7 243.258 1060.41C219.914 1046.98 201.051 1042.9 183.925 1043.48C125.462 1045.48 78.8534 1090.97 -12.9791 1107.95C-97.4448 1123.56 -166.825 1040.13 -338.067 1139.55" stroke="#4844FF" stroke-width="0.9606" stroke-miterlimit="10" stroke-linecap="round"/>
<path d="M2472.32 463.634C2350.52 466.843 2239.85 506.346 2140.18 554.331C2106.46 570.556 2073.74 587.803 2041.6 605.116C1977.65 639.553 1913.58 674.892 1844.24 703.732C1769.77 734.713 1687.88 757.929 1601.21 763.614C1567.23 765.736 1533.04 765.137 1499.09 761.856C1420.63 754.296 1347.1 733.327 1271.08 721.916C1193.11 710.227 1144.76 755.008 1080.86 803.64C1053.95 824.117 1032.32 845.293 1011.33 864.743C982.279 891.663 944.956 899.503 911.01 919.95C877.293 940.263 831.378 944.028 796.141 956.466C703.142 988.997 650.034 1022.07 637.051 1105.79C628.381 1161.36 652.108 1218.75 596.969 1253.14C506.763 1309.44 364.949 1129.12 247.539 1061.46C224.345 1048.09 205.381 1043.77 188.126 1044.02C128.867 1044.87 80.8644 1088.41 -10.8393 1105.96C-95.6578 1122.21 -166.514 1045.07 -335.734 1144.07" stroke="#4844FF" stroke-width="0.9785" stroke-miterlimit="10" stroke-linecap="round"/>
<path d="M2471.87 463.696C2350.69 466.83 2240.61 506.196 2141.53 554.043C2108.01 570.246 2075.47 587.44 2043.63 604.705C1980.12 639.08 1916.51 674.388 1847.69 703.28C1773.8 734.328 1692.57 757.726 1606.38 763.706C1572.65 765.962 1538.67 765.504 1504.88 762.445C1426.94 755.406 1353.61 735.282 1277.97 724.602C1200.32 713.66 1153.99 760.61 1090.85 809.897C1064.41 830.538 1042.62 851.625 1021.05 870.672C991.372 896.902 952.673 903.091 916.971 922.197C881.905 940.954 835.424 943.674 799.97 955.704C706.303 987.188 655.759 1022.44 643.098 1106C634.628 1161.45 656.878 1218.59 602.19 1252.92C511.49 1309.83 369.885 1130.59 252.002 1062.56C228.919 1049.23 209.883 1044.66 192.531 1044.57C132.476 1044.27 83.101 1085.83 -8.51812 1104.02C-93.6892 1120.91 -166.023 1050.06 -333.242 1148.69" stroke="#4844FF" stroke-width="0.9965" stroke-miterlimit="10" stroke-linecap="round"/>
<path d="M2471.43 463.789C2350.9 466.87 2241.41 506.036 2142.91 553.817C2109.57 569.967 2077.27 587.161 2045.64 604.364C1982.58 638.677 1919.44 673.985 1851.14 702.93C1777.8 734.053 1697.28 757.584 1611.6 763.923C1578.1 766.311 1544.33 765.995 1510.74 763.179C1433.32 756.662 1360.2 737.384 1284.97 727.424C1207.65 717.191 1163.32 766.317 1100.9 816.268C1074.92 837.081 1053.02 858.031 1030.88 876.707C1000.55 902.216 960.559 906.799 923 924.56C886.616 941.75 839.536 943.435 803.835 955.067C709.509 985.532 661.552 1022.93 649.173 1106.31C640.923 1161.59 661.707 1218.51 607.398 1252.77C516.174 1310.3 374.808 1132.13 256.452 1063.73C233.488 1050.47 214.382 1045.65 196.901 1045.23C136.018 1043.79 85.2808 1083.39 -6.23155 1102.19C-91.7464 1119.75 -165.597 1055.16 -330.754 1153.41" stroke="#4844FF" stroke-width="1.0144" stroke-miterlimit="10" stroke-linecap="round"/>
<path d="M2471 463.913C2351.08 466.919 2242.21 505.939 2144.25 553.601C2111.14 569.719 2079.02 586.86 2047.61 604.032C1985.01 638.283 1922.33 673.56 1854.58 702.55C1781.79 733.717 1701.99 757.442 1616.76 764.086C1583.49 766.576 1549.91 766.441 1516.52 763.838C1439.57 757.821 1366.7 739.41 1291.85 730.181C1214.87 720.686 1172.54 771.99 1110.87 822.595C1085.33 843.55 1063.35 864.425 1040.58 882.676C1009.63 907.494 968.321 910.542 928.941 926.847C891.238 942.471 843.552 943.09 807.612 954.354C712.626 983.802 667.216 1023.32 655.138 1106.58C647.087 1161.74 666.394 1218.41 612.497 1252.58C520.778 1310.72 379.613 1133.6 260.752 1064.85C237.899 1051.62 218.721 1046.55 201.152 1045.82C139.504 1043.23 87.3725 1080.89 -4.04195 1100.26C-89.9404 1118.46 -165.237 1060.16 -328.371 1157.99" stroke="#4844FF" stroke-width="1.0324" stroke-miterlimit="10" stroke-linecap="round"/>
<path d="M2470.61 464.09C2351.31 467.02 2243.07 505.895 2145.67 553.428C2112.75 569.493 2080.85 586.603 2049.67 603.744C1987.52 637.933 1925.3 673.179 1858.07 702.253C1785.84 733.495 1706.72 757.362 1621.99 764.365C1588.93 766.996 1555.58 766.994 1522.39 764.603C1445.96 759.108 1373.27 741.551 1298.85 733.034C1222.19 724.288 1181.88 777.728 1120.96 828.989C1095.88 850.116 1073.79 870.885 1050.41 888.742C1018.85 912.83 979.884 920.201 934.977 929.241C892.483 937.824 847.673 942.881 811.516 953.739C715.871 982.169 673.017 1023.83 661.252 1106.9C653.399 1161.94 671.231 1218.37 617.744 1252.45C525.532 1311.2 384.575 1135.16 265.242 1066.04C242.508 1052.88 223.25 1047.54 205.562 1046.5C143.117 1042.77 89.5919 1078.47 -1.71592 1098.46C-87.9582 1117.32 -164.741 1065.28 -325.874 1162.73" stroke="#4844FF" stroke-width="1.0503" stroke-miterlimit="10" stroke-linecap="round"/>
<path d="M2470.24 464.298C2351.56 467.184 2243.9 505.859 2147.1 553.286C2114.37 569.329 2082.69 586.377 2051.74 603.487C1990.04 637.614 1928.28 672.86 1861.57 701.987C1789.9 733.304 1711.49 757.334 1627.25 764.634C1594.43 767.398 1561.3 767.568 1528.27 765.398C1452.36 760.426 1379.87 743.714 1305.83 735.927C1229.52 727.92 1191.2 783.537 1131.01 835.461C1106.33 856.739 1084.2 877.424 1060.2 894.887C1028 918.285 987.361 924.125 940.978 931.744C897.558 938.85 851.758 942.783 815.353 953.242C719.049 980.655 678.75 1024.47 667.308 1107.38C659.645 1162.26 676.05 1218.49 622.943 1252.5C530.205 1311.87 389.488 1136.9 269.682 1067.42C247.058 1054.29 227.739 1048.73 209.944 1047.32C146.693 1042.41 91.8144 1076.19 0.573558 1096.76C-86.0213 1116.26 -164.281 1070.51 -323.382 1167.58" stroke="#4844FF" stroke-width="1.0683" stroke-miterlimit="10" stroke-linecap="round"/>
<path d="M2469.91 464.56C2351.85 467.37 2244.81 505.899 2148.58 553.198C2116.07 569.179 2084.59 586.205 2053.86 603.284C1992.6 637.349 1931.31 672.564 1865.11 701.744C1794.02 733.097 1716.27 757.308 1632.53 764.966C1599.95 767.862 1567.03 768.175 1534.19 766.217C1458.79 761.736 1386.52 745.9 1312.89 738.835C1236.89 731.575 1200.55 789.338 1141.16 841.939C1116.94 863.39 1094.71 883.999 1070.08 901.007C1037.25 923.714 994.943 928.054 947.095 934.183C902.729 939.85 855.951 942.589 819.298 952.65C722.325 979.013 684.622 1025 673.431 1107.74C665.998 1162.49 680.896 1218.48 628.2 1252.41C534.977 1312.42 394.31 1138.67 274.15 1068.65C251.624 1055.63 232.277 1049.74 214.362 1048.04C150.307 1041.95 94.052 1073.84 2.909 1094.99C-84.0297 1115.16 -163.797 1075.7 -320.854 1172.32" stroke="#4844FF" stroke-width="1.0863" stroke-miterlimit="10" stroke-linecap="round"/>
<path d="M2469.6 464.883C2352.15 467.618 2245.74 506.001 2150.06 553.211C2117.73 569.139 2086.47 586.134 2055.97 603.182C1995.16 637.185 1934.33 672.369 1868.69 701.624C1798.16 733.052 1721.12 757.427 1637.84 765.39C1605.48 768.388 1572.78 768.873 1540.11 767.137C1465.22 763.178 1393.16 748.187 1319.91 741.852C1244.25 735.331 1209.9 795.24 1151.24 848.505C1127.45 870.097 1105.14 890.631 1079.89 907.245C1046.43 929.263 1002.47 932.134 953.115 936.748C907.802 940.978 860.055 942.553 823.185 952.207C725.553 977.553 690.406 1025.69 679.537 1108.27C672.302 1162.89 685.756 1218.63 633.439 1252.48C539.722 1313.1 399.265 1140.44 278.631 1070.05C256.215 1057.06 236.798 1050.93 218.764 1048.92C153.933 1041.65 96.2937 1071.63 5.24858 1093.34C-82.0339 1114.18 -163.287 1080.98 -318.343 1177.23" stroke="#4844FF" stroke-width="1.1042" stroke-miterlimit="10" stroke-linecap="round"/>
<path d="M2469.38 465.28C2352.55 467.971 2246.73 506.186 2151.64 553.259C2119.51 569.165 2088.44 586.107 2058.19 603.115C1997.84 637.055 1937.47 672.24 1872.34 701.517C1802.36 733.02 1726 757.537 1643.25 765.849C1611.11 768.989 1578.61 769.616 1546.17 768.114C1471.8 764.677 1399.95 750.531 1327.11 744.948C1251.78 739.175 1219.41 801.231 1161.54 855.173C1138.21 876.937 1115.79 897.365 1089.97 913.576C1055.91 934.925 1010.22 936.314 959.395 939.407C913.103 942.207 864.41 942.578 827.301 951.865C729.01 976.193 696.41 1026.45 685.832 1108.88C678.787 1163.35 690.783 1218.9 638.868 1252.64C544.666 1313.9 404.399 1142.25 283.293 1071.5C261.027 1058.57 241.499 1052.16 223.367 1049.81C157.754 1041.32 98.738 1069.42 7.76866 1091.75C-79.8576 1113.26 -162.597 1086.31 -315.63 1182.15" stroke="#4844FF" stroke-width="1.1222" stroke-miterlimit="10" stroke-linecap="round"/>
<path d="M2469.19 465.772C2353 468.379 2247.77 506.425 2153.26 553.401C2121.34 569.245 2090.46 586.165 2060.44 603.142C2000.57 637.012 1940.63 672.174 1876.03 701.535C1806.59 733.082 1730.95 757.794 1648.67 766.411C1616.76 769.684 1584.46 770.421 1552.19 769.172C1478.31 766.133 1406.67 752.965 1334.24 748.103C1259.25 743.069 1228.84 807.28 1171.72 861.876C1148.83 883.782 1126.34 904.166 1099.88 919.922C1065.19 940.581 1017.82 940.54 965.544 942.071C918.283 943.473 868.643 942.641 831.286 951.529C732.336 974.84 702.291 1027.25 692.036 1109.52C685.19 1163.86 695.741 1219.16 644.237 1252.81C549.54 1314.68 409.482 1144.12 287.872 1073C265.717 1060.11 246.118 1053.45 227.866 1050.81C161.478 1041.13 101.056 1067.35 10.1842 1090.25C-77.7549 1112.42 -162.011 1091.74 -313.013 1187.2" stroke="#4844FF" stroke-width="1.1401" stroke-miterlimit="10" stroke-linecap="round"/>
<path d="M2469.06 466.379C2353.5 468.941 2248.89 506.811 2154.94 553.658C2123.21 569.48 2092.55 586.337 2062.75 603.283C2003.33 637.091 1943.86 672.222 1879.8 701.628C1810.92 733.25 1735.99 758.094 1654.18 767.079C1622.51 770.485 1590.42 771.364 1558.35 770.357C1484.98 767.81 1413.56 755.518 1341.53 751.378C1266.85 747.091 1238.45 813.408 1182.11 868.722C1159.63 890.778 1137.09 911.109 1110.01 926.439C1074.73 946.43 1025.59 944.916 971.877 944.916C923.638 944.889 873.061 942.884 835.456 951.374C735.846 973.667 708.388 1028.22 698.416 1110.3C691.799 1164.52 700.852 1219.6 649.759 1253.17C554.577 1315.69 414.72 1146.17 292.636 1074.69C270.6 1061.86 250.961 1054.95 232.581 1051.97C165.419 1041.11 103.611 1065.41 12.8375 1088.89C-75.4454 1111.73 -161.218 1097.31 -310.189 1192.39" stroke="#4844FF" stroke-width="1.1581" stroke-miterlimit="10" stroke-linecap="round"/>
<path d="M2469.04 467.122C2354.09 469.609 2250.07 507.341 2156.69 554.06C2125.15 569.829 2094.72 586.656 2065.14 603.571C2006.17 637.317 1947.17 672.448 1883.62 701.906C1815.3 733.604 1741.06 758.62 1659.73 767.902C1628.29 771.409 1596.42 772.46 1564.52 771.675C1491.66 769.65 1420.45 758.204 1348.8 754.793C1274.46 751.246 1248.02 819.717 1192.43 875.686C1170.4 897.884 1147.77 918.17 1120.07 933.076C1084.15 952.377 1033.31 949.442 978.174 947.871C928.936 946.455 877.433 943.207 839.621 951.321C739.351 972.596 714.449 1029.3 704.768 1111.23C698.341 1165.29 705.958 1220.15 655.245 1253.64C559.578 1316.8 419.912 1148.3 297.364 1076.48C275.438 1063.69 255.728 1056.53 237.26 1053.24C169.345 1041.15 106.139 1063.61 15.4326 1087.68C-73.1942 1111.18 -160.453 1103.03 -307.4 1197.69" stroke="#4844FF" stroke-width="1.176" stroke-miterlimit="10" stroke-linecap="round"/>
<path d="M2469.13 468.033C2354.8 470.445 2251.4 508 2158.6 554.653C2127.28 570.391 2097.04 587.164 2067.69 604.048C2009.17 637.732 1950.62 672.832 1887.6 702.344C1819.85 734.077 1746.29 759.266 1665.47 768.906C1634.24 772.555 1602.6 773.739 1570.9 773.166C1498.52 771.672 1427.55 761.061 1356.31 758.372C1282.29 755.573 1257.79 826.168 1203.05 882.836C1181.46 905.206 1158.75 925.417 1130.41 939.867C1093.87 958.509 1041.28 954.132 984.721 950.99C934.451 948.193 882.064 943.724 843.994 951.409C743.088 971.626 720.719 1030.52 711.352 1112.26C705.123 1166.2 711.305 1220.83 660.962 1254.22C564.841 1318.01 425.313 1150.58 302.292 1078.39C280.486 1065.67 260.696 1058.23 242.098 1054.61C173.401 1041.3 108.828 1061.9 18.1793 1086.52C-70.7824 1110.73 -159.536 1108.8 -304.452 1203.08" stroke="#4844FF" stroke-width="1.194" stroke-miterlimit="10" stroke-linecap="round"/>
<path d="M2469.35 469.144C2355.64 471.512 2252.86 508.89 2160.62 555.414C2129.49 571.099 2099.47 587.841 2070.35 604.694C2012.28 638.316 1954.19 673.385 1891.69 702.981C1824.51 734.789 1751.62 760.12 1671.29 770.087C1640.3 773.869 1608.87 775.194 1577.34 774.874C1505.48 773.901 1434.69 764.145 1363.86 762.177C1290.18 760.117 1267.63 832.836 1213.69 890.211C1192.51 912.732 1169.75 932.891 1140.82 946.907C1103.69 964.88 1049.32 959.101 991.338 954.358C940.037 950.18 886.756 944.458 848.448 951.776C746.882 970.976 727.06 1031.99 717.984 1113.58C711.977 1167.35 716.66 1221.78 666.728 1255.08C570.122 1319.51 430.794 1153.13 307.291 1080.54C285.595 1067.86 265.765 1060.16 247.048 1056.24C177.598 1041.71 111.618 1060.44 21.0764 1085.66C-68.1981 1110.52 -158.459 1114.89 -301.384 1208.77" stroke="#4844FF" stroke-width="1.2119" stroke-miterlimit="10" stroke-linecap="round"/>
<path d="M2469.59 470.317C2356.49 472.609 2254.3 509.85 2162.67 556.236C2131.73 571.899 2101.92 588.58 2073.03 605.402C2015.41 638.962 1957.79 674.031 1895.84 703.67C1829.21 735.554 1757.04 761.048 1677.17 771.321C1646.41 775.235 1615.17 776.742 1583.85 776.594C1512.52 776.144 1441.93 767.233 1371.5 765.986C1298.15 764.674 1277.54 839.517 1224.39 897.569C1203.65 920.232 1180.82 940.346 1151.26 953.937C1113.52 971.282 1057.39 964.03 998.017 957.706C945.654 952.157 891.519 945.205 852.994 952.116C750.769 970.298 733.534 1033.45 724.749 1114.89C718.94 1168.54 722.187 1222.74 672.636 1255.97C575.575 1321.04 436.416 1155.71 312.44 1082.76C290.863 1070.13 270.954 1062.16 252.117 1057.94C181.915 1042.18 113.935 1058.13 24.0531 1084.84C-64.9634 1111.31 -157.343 1121 -298.214 1214.47" stroke="#4844FF" stroke-width="1.2299" stroke-miterlimit="10" stroke-linecap="round"/>
<path d="M2470.28 472.162C2357.8 474.379 2256.24 511.474 2165.14 557.741C2134.42 573.341 2104.78 590.04 2076.13 606.791C2018.97 640.289 1961.8 675.327 1900.37 705.02C1834.29 736.948 1762.81 762.614 1683.47 773.236C1652.94 777.252 1621.92 778.932 1590.76 779.005C1519.94 779.046 1449.6 771.136 1379.52 770.495C1306.54 770.045 1287.84 846.888 1235.5 905.649C1215.18 928.462 1192.29 948.522 1162.1 961.658C1123.73 978.344 1065.79 969.667 1005.06 961.755C951.629 954.803 896.649 946.652 857.876 953.164C754.991 970.329 740.312 1035.63 731.841 1116.88C726.23 1170.41 728.033 1224.35 678.861 1257.5C581.324 1323.24 442.347 1158.9 317.876 1085.62C296.441 1073.03 276.46 1064.81 257.504 1060.28C186.549 1043.3 117.238 1057.52 27.3564 1084.7C-62.0614 1111.75 -155.87 1127.79 -294.709 1220.87" stroke="#4844FF" stroke-width="1.2478" stroke-miterlimit="10" stroke-linecap="round"/>
<path d="M2471.36 474.635C2359.5 476.808 2258.55 513.694 2168.02 559.864C2137.49 575.443 2108.08 592.079 2079.65 608.799C2022.93 642.235 1966.23 677.242 1905.32 707.019C1839.8 739.022 1769.03 764.853 1690.15 775.78C1659.83 779.938 1629.04 781.75 1598.1 782.067C1527.78 782.63 1457.66 775.564 1387.98 775.645C1315.32 775.943 1298.57 854.91 1247.02 914.347C1227.11 937.31 1204.18 957.349 1173.36 970.029C1134.4 986.047 1074.65 975.945 1012.53 966.453C958.034 958.13 902.191 948.718 863.179 954.863C759.634 971.009 747.511 1038.46 739.331 1119.57C733.91 1172.93 734.255 1226.69 685.485 1259.73C587.494 1326.1 448.686 1162.82 323.742 1089.17C302.426 1076.64 282.396 1068.13 263.312 1063.28C191.635 1045.06 121.431 1058.26 31.0808 1085.21C-59.1765 1112.13 -153.975 1135.22 -290.813 1227.93" stroke="#4844FF" stroke-width="1.2658" stroke-miterlimit="10" stroke-linecap="round"/>
<path d="M2472.49 477.193C2361.28 479.282 2260.92 516.031 2170.97 562.103C2140.63 577.629 2111.44 594.234 2083.24 610.954C2026.98 644.328 1970.74 679.335 1910.34 709.134C1845.41 741.204 1775.32 767.176 1696.91 778.47C1666.83 782.761 1636.25 784.715 1605.46 785.252C1535.64 786.347 1465.76 780.117 1396.45 780.928C1324.13 781.934 1309.3 863.065 1258.59 923.201C1239.12 946.306 1216.12 966.331 1184.67 978.556C1145.09 993.945 1083.52 982.387 1020.07 971.299C964.474 961.581 907.817 950.961 868.588 956.699C764.384 971.828 754.848 1041.42 746.95 1122.34C741.759 1175.58 740.637 1229.12 692.237 1262.05C593.77 1329.1 455.153 1166.83 329.736 1092.82C308.54 1080.35 288.461 1071.56 269.226 1066.41C196.797 1046.97 125.194 1058.32 34.9334 1085.81C-55.6676 1113.4 -151.952 1142.75 -286.768 1235.05" stroke="#4844FF" stroke-width="1.2838" stroke-miterlimit="10" stroke-linecap="round"/>
<path d="M2473.65 479.711C2363.06 481.755 2263.29 518.337 2173.93 564.272C2143.82 579.766 2114.81 596.318 2086.84 613.008C2031.03 646.32 1975.28 681.287 1915.41 711.17C1851.02 743.283 1781.62 769.459 1703.73 781.041C1673.89 785.464 1643.52 787.559 1612.93 788.31C1543.62 789.926 1473.95 784.542 1405.05 786.074C1333.07 787.819 1320.16 871.082 1270.24 931.895C1251.18 955.151 1228.14 975.123 1196.05 986.892C1155.85 1001.62 1092.44 988.648 1027.67 975.993C970.981 964.913 913.501 953.054 874.015 958.363C769.144 972.443 762.163 1044.19 754.596 1124.98C749.604 1178.09 747.046 1231.41 699.057 1264.26C600.136 1331.93 461.688 1170.72 335.758 1096.32C314.672 1083.89 294.522 1074.85 275.199 1069.39C202.048 1048.71 129.017 1058.23 38.8225 1086.31C-52.0825 1114.59 -149.923 1150.18 -282.707 1242.1" stroke="#4844FF" stroke-width="1.3017" stroke-miterlimit="10" stroke-linecap="round"/>
<path d="M2474.74 482.246C2364.76 484.215 2265.62 520.619 2176.8 566.466C2146.87 581.907 2118.09 598.428 2090.35 615.087C2034.98 648.337 1979.71 683.304 1920.34 713.209C1856.51 745.397 1787.82 771.706 1710.4 783.655C1680.79 788.18 1650.61 790.488 1620.22 791.45C1551.43 793.589 1481.92 789.028 1413.44 791.312C1341.77 793.805 1330.77 879.17 1281.73 940.705C1263.08 964.11 1239.99 984.06 1207.31 995.365C1166.5 1009.47 1101.26 995.037 1035.16 980.785C977.341 968.319 919.069 955.212 879.344 960.154C773.813 973.216 769.388 1047.11 762.104 1127.72C757.301 1180.68 753.405 1233.88 705.698 1266.54C606.526 1335.1 468.035 1174.67 341.64 1099.93C320.674 1087.57 300.476 1078.24 281.001 1072.49C207.13 1050.58 132.669 1058.26 42.533 1086.89C-48.707 1115.87 -148.034 1157.72 -278.804 1249.2" stroke="#4844FF" stroke-width="1.3197" stroke-miterlimit="10" stroke-linecap="round"/>
<path d="M2475.9 484.764C2366.53 486.658 2268.01 522.916 2179.76 568.634C2150.02 584.022 2121.46 600.513 2093.95 617.14C2039.03 650.328 1984.22 685.264 1925.37 715.253C1862.1 747.517 1794.09 773.998 1717.16 786.243C1687.76 790.91 1657.82 793.35 1627.62 794.526C1559.34 797.155 1490.05 793.47 1421.98 796.476C1350.66 799.707 1341.56 887.205 1293.36 949.439C1275.12 972.995 1252 992.923 1218.68 1003.77C1177.25 1017.24 1110.12 1001.35 1042.74 985.519C983.786 971.669 924.73 957.345 884.758 961.888C778.567 973.933 776.698 1049.98 769.736 1130.43C765.132 1183.26 759.76 1236.21 712.464 1268.79C612.789 1337.93 474.516 1178.61 347.648 1103.51C326.792 1091.18 306.563 1081.62 286.951 1075.51C212.389 1052.36 136.574 1058.35 46.4301 1087.42C-45.0165 1117.19 -145.966 1165.17 -274.705 1256.27" stroke="#4844FF" stroke-width="1.3376" stroke-miterlimit="10" stroke-linecap="round"/>
<path d="M2477.03 487.322C2368.29 489.171 2270.36 525.261 2182.7 570.842C2153.18 586.2 2124.78 602.646 2097.52 619.233C2043.06 652.359 1988.7 687.264 1930.38 717.306C1867.65 749.614 1800.36 776.259 1723.9 788.872C1694.74 793.671 1665.01 796.253 1634.98 797.68C1567.21 800.832 1498.14 797.992 1430.44 801.728C1359.42 805.676 1352.13 895.241 1304.88 958.24C1287 981.893 1263.89 1001.85 1229.93 1012.21C1187.89 1025.06 1118.9 1007.71 1050.19 990.289C990.107 975.054 930.259 959.482 890.078 963.649C783.229 974.676 783.946 1052.86 777.236 1133.14C772.853 1185.81 765.974 1238.52 719.098 1271.05C618.898 1340.8 480.833 1182.57 353.492 1107.1C332.787 1094.83 312.477 1084.99 292.715 1078.59C217.431 1054.2 140.139 1058.3 50.1107 1088C-41.6887 1118.42 -144.115 1172.68 -270.853 1263.41" stroke="#4844FF" stroke-width="1.3556" stroke-miterlimit="10" stroke-linecap="round"/>
<path d="M2478.17 489.879C2333.62 492.263 2208.42 555.666 2101.1 621.326C1989 689.928 1877.26 766.57 1730.67 791.491C1636.52 807.495 1536.11 800.489 1438.98 806.922C1341.85 813.355 1368.22 984.272 1241.3 1020.62C1161.3 1043.53 982.175 957.283 895.522 965.375C717.478 981.943 843.233 1191.33 725.894 1273.29C608.944 1354.98 441.943 1129.93 298.695 1081.6C144.859 1029.7 -20.3655 1091.97 -266.773 1270.42" stroke="#4844FF" stroke-width="1.3735" stroke-miterlimit="10" stroke-linecap="round"/>
</g>
</svg>
