<svg width="543" height="263" viewBox="0 0 543 263" fill="none" xmlns="http://www.w3.org/2000/svg">
<g opacity="0.15">
<path d="M104.2 24.8662C-20.2405 -28.2075 52.4119 -140.772 143.143 -191.512C193.95 -222.813 167.64 -290.881 230.617 -329.628C293.594 -368.374 303.61 -253.843 401.674 -311.775C499.737 -369.708 609.615 -215.829 553.328 -141.77C497.042 -67.7106 536.882 -68.6543 533.687 47.6745C530.492 164.003 356.875 226.038 300.848 131.633C244.822 37.2289 238.908 82.3192 104.2 24.8662Z" stroke="#4844FF" stroke-width="1.2494"/>
<path d="M122.254 15.9852C8.00808 -32.6715 73.7319 -137.52 157.709 -184.276C205.265 -213.307 181.797 -276.523 239.842 -312.235C299.184 -348.743 308.107 -243.684 398.674 -296.538C489.549 -349.433 592.284 -208.042 539.318 -138.46C486.672 -69.2777 524.233 -69.9733 520.622 37.4875C517.01 144.948 357.242 202.378 304.52 115.131C252.915 28.7735 246.579 68.8948 122.254 15.9852Z" stroke="#4844FF" stroke-width="1.2494"/>
<path d="M140.309 7.10477C36.2568 -37.1351 95.052 -134.269 172.274 -177.04C216.579 -203.8 195.953 -262.164 249.068 -294.841C304.774 -329.11 312.604 -233.525 395.675 -281.301C479.361 -329.158 574.954 -200.255 525.309 -135.149C476.302 -70.8442 511.585 -71.2917 507.557 27.301C503.529 125.894 357.61 178.718 308.191 98.6287C261.008 20.3186 254.251 55.4709 140.309 7.10477Z" stroke="#4844FF" stroke-width="1.2494"/>
<path d="M158.364 -1.77505C64.5068 -41.598 116.373 -131.017 186.841 -169.803C227.895 -194.293 210.111 -247.805 258.294 -277.447C310.365 -309.477 317.103 -223.365 392.677 -266.062C469.174 -308.882 557.624 -192.467 511.3 -131.838C465.933 -72.4102 498.937 -72.6096 494.493 17.1151C490.049 106.84 357.979 155.059 311.864 82.1272C269.102 11.8644 261.923 42.0476 158.364 -1.77505Z" stroke="#4844FF" stroke-width="1.2494"/>
<path d="M176.42 -10.6556C92.7564 -46.0617 137.694 -127.765 201.408 -162.567C239.211 -184.786 224.269 -233.447 267.52 -260.054C315.956 -289.845 321.601 -213.205 389.678 -250.825C458.986 -288.607 540.295 -184.68 497.291 -128.527C455.564 -73.9768 486.289 -73.9281 481.429 6.92846C476.568 87.785 358.348 131.399 315.537 65.6251C277.195 3.40944 269.595 28.6236 176.42 -10.6556Z" stroke="#4844FF" stroke-width="1.2494"/>
<path d="M194.816 -19.265C121.347 -50.2543 159.357 -124.242 216.315 -155.059C250.868 -175.008 238.768 -218.817 277.088 -242.39C321.888 -269.942 326.44 -202.775 387.021 -235.316C449.14 -268.061 523.306 -176.622 483.624 -124.946C445.536 -75.2724 473.983 -74.9756 468.706 -2.98703C463.429 69.0015 359.057 108.011 319.55 49.394C285.63 -4.77442 277.608 15.4707 194.816 -19.265Z" stroke="#4844FF" stroke-width="1.2494"/>
<path d="M213.616 -27.5531C150.341 -54.1254 181.422 -120.398 231.626 -147.23C262.927 -164.909 253.669 -203.866 287.058 -224.404C328.224 -249.717 331.683 -192.023 384.767 -219.486C439.697 -247.194 506.721 -168.242 470.359 -121.043C435.911 -76.2466 462.079 -75.7016 456.386 -12.5811C450.692 50.5393 360.17 84.9438 323.967 33.4844C294.468 -12.6369 286.025 2.63919 213.616 -27.5531Z" stroke="#4844FF" stroke-width="1.2494"/>
<path d="M232.439 -35.8243C179.358 -57.9798 203.51 -116.537 246.96 -139.385C275.01 -154.793 268.594 -188.898 297.052 -206.401C334.582 -229.476 336.948 -181.255 382.536 -203.639C430.277 -226.31 490.158 -159.845 457.118 -117.123C426.309 -77.2039 450.199 -76.4109 444.089 -22.1585C437.979 32.0939 361.306 61.8934 328.407 17.5915C303.329 -20.4826 294.464 -10.1755 232.439 -35.8243Z" stroke="#4844FF" stroke-width="1.2494"/>
<path d="M251.293 -44.0701C208.407 -61.8087 225.631 -112.651 262.326 -131.514C287.125 -144.651 283.551 -173.905 307.077 -188.373C340.972 -209.209 342.245 -170.461 380.337 -187.767C420.889 -205.4 473.628 -151.423 443.908 -113.177C416.739 -78.1359 438.35 -77.0947 431.824 -31.7104C425.298 13.674 362.474 38.8685 332.878 1.72405C312.222 -28.3028 302.935 -22.9648 251.293 -44.0701Z" stroke="#4844FF" stroke-width="1.2494"/>
<path d="M270.197 -52.2791C237.505 -65.6009 247.8 -108.728 277.74 -123.606C299.289 -134.473 298.557 -158.875 317.152 -170.308C347.411 -188.905 347.592 -159.63 378.187 -171.858C411.55 -184.454 457.147 -142.965 430.748 -109.195C407.218 -79.031 426.551 -77.7418 419.608 -41.2255C412.665 -4.70918 363.691 15.8803 337.399 -14.1066C321.164 -36.0862 311.456 -35.7173 270.197 -52.2791Z" stroke="#4844FF" stroke-width="1.2494"/>
<path d="M289.174 -60.4332C266.676 -69.3381 270.043 -104.75 293.229 -115.643C311.526 -124.24 313.636 -143.79 327.3 -152.188C353.924 -168.546 353.012 -148.744 376.11 -155.894C402.285 -163.452 440.739 -134.451 417.661 -105.158C397.771 -79.8712 414.825 -78.3339 407.466 -50.6856C400.106 -23.0374 364.981 -7.0529 341.993 -29.8823C330.18 -43.8148 320.05 -48.4148 289.174 -60.4332Z" stroke="#4844FF" stroke-width="1.2494"/>
</g>
</svg>
