<svg width="22" height="19" viewBox="0 0 22 19" fill="none" xmlns="http://www.w3.org/2000/svg">
<path d="M22 2.49113C21.1819 2.85 20.3101 3.08788 19.4013 3.20338C20.3363 2.64513 21.0499 1.76787 21.3854 0.7105C20.5136 1.23025 19.5511 1.59738 18.5254 1.80225C17.6976 0.920875 16.5179 0.375 15.2309 0.375C12.7339 0.375 10.7236 2.40175 10.7236 4.88637C10.7236 5.24388 10.7539 5.58763 10.8281 5.91488C7.0785 5.732 3.76062 3.93488 1.53175 1.19725C1.14262 1.87238 0.914375 2.64512 0.914375 3.477C0.914375 5.039 1.71875 6.42362 2.91775 7.22525C2.19312 7.2115 1.48225 7.00113 0.88 6.66975C0.88 6.6835 0.88 6.70138 0.88 6.71925C0.88 8.911 2.44338 10.7315 4.4935 11.1509C4.12638 11.2513 3.72625 11.2994 3.311 11.2994C3.02225 11.2994 2.73075 11.2829 2.45712 11.2224C3.0415 13.0085 4.69975 14.3216 6.6715 14.3643C5.137 15.5646 3.18863 16.2879 1.07938 16.2879C0.7095 16.2879 0.35475 16.2714 0 16.226C1.99787 17.5144 4.36563 18.25 6.919 18.25C15.2185 18.25 19.756 11.375 19.756 5.41575C19.756 5.21637 19.7491 5.02387 19.7395 4.83275C20.6346 4.1975 21.3867 3.40413 22 2.49113Z" fill="#111341"/>
</svg>
