<svg width="15" height="13" viewBox="0 0 15 13" fill="none" xmlns="http://www.w3.org/2000/svg">
<path d="M5.7075 13C3.20399 13 1.22531 12.5585 0.278657 11.789L0.260232 11.774L0.243524 11.7571C0.0186474 11.53 -0.0550525 11.2321 0.0415355 10.9398L0.0503475 10.9156C0.167535 10.6198 0.454667 10.4206 0.765831 10.4188C1.40624 10.4076 1.96654 10.3305 2.475 10.1809C1.66396 9.80021 1.10057 9.14099 0.765374 8.18686C0.652649 7.8893 0.749924 7.5594 1.0097 7.36268C1.07379 7.31405 1.14623 7.27732 1.22291 7.25272C0.77224 6.7276 0.439332 6.13006 0.252908 5.49809L0.247071 5.47846L0.243066 5.45836C0.17978 5.13874 0.321343 4.81011 0.580781 4.6686C0.689614 4.60553 0.807831 4.57284 0.926506 4.57007C0.798561 4.29192 0.705521 4.00638 0.650361 3.7191C0.497239 2.92299 0.623581 2.12492 1.02573 1.34706L1.11877 1.15924C1.19327 1.00896 1.33563 0.903384 1.49974 0.87647C1.66385 0.849671 1.83208 0.904424 1.94961 1.02305L2.11909 1.19436C3.45805 2.61122 4.65739 3.2835 6.73094 3.74347C6.82353 2.94009 7.16765 2.1933 7.7228 1.60558C8.38347 0.906272 9.26569 0.513879 10.207 0.500479H10.2131C10.8999 0.500479 11.7518 0.896223 12.267 1.1753C12.709 1.02929 13.2415 0.803236 13.794 0.564242C14.0525 0.441799 14.3712 0.497823 14.5745 0.702971C14.7737 0.904077 14.829 1.18766 14.7233 1.46327C14.6831 1.57612 14.6375 1.6869 14.5868 1.79525C14.6625 1.83025 14.7317 1.87773 14.7902 1.93675C14.967 2.11522 15.0407 2.39452 14.9779 2.64842L14.9711 2.67256C14.7594 3.36124 14.3527 3.92217 13.8148 4.27425C13.725 9.10275 10.1226 13 5.7075 13ZM1.1222 11.2945C2.01427 11.8039 3.71428 12.1121 5.7075 12.1121C7.62381 12.1121 9.4322 11.2816 10.7994 9.77376C12.1779 8.25351 12.937 6.23471 12.937 4.0892V4.06505C12.937 3.87076 13.0429 3.69345 13.2134 3.6022C13.5594 3.41727 13.8395 3.10226 14.0217 2.69948C13.8338 2.72939 13.6428 2.65327 13.5258 2.49456C13.3897 2.31009 13.3882 2.06093 13.522 1.87484C13.5942 1.77434 13.6596 1.6698 13.718 1.56169C13.2409 1.76395 12.7878 1.9453 12.3945 2.06578C12.2516 2.10944 12.0923 2.09235 11.9617 2.01877C11.2614 1.62499 10.6092 1.38957 10.216 1.38842C8.76501 1.41083 7.58524 2.66517 7.58524 4.186C7.58524 4.34321 7.51612 4.4906 7.39584 4.59052C7.27545 4.69032 7.1189 4.73029 6.966 4.69979C4.57511 4.22435 3.15833 3.51141 1.68502 2.01703C1.47388 2.52771 1.4162 3.04208 1.51382 3.54999C1.61281 4.06448 1.87614 4.58001 2.27542 5.04078C2.42717 5.21567 2.44731 5.46587 2.32554 5.66328C2.20424 5.85999 1.97364 5.95194 1.75197 5.89199C1.5787 5.84509 1.4194 5.78352 1.26834 5.7044C1.57607 6.3791 2.10536 7.0031 2.77072 7.46329C2.96355 7.59671 3.04412 7.84541 2.96676 8.06811C2.88928 8.29117 2.67287 8.43475 2.43896 8.41719C2.1841 8.39813 1.9583 8.34927 1.75048 8.26691C2.12356 9.03379 2.71968 9.45575 3.63807 9.61701C3.85676 9.65547 4.02705 9.82978 4.06184 10.0508C4.09675 10.2717 3.98837 10.4907 3.79233 10.5957C3.00956 11.0146 2.154 11.2394 1.1222 11.2945Z" fill="#111341"/>
</svg>
